<?xml version="1.0" standalone="no"?>
<!DOCTYPE svg PUBLIC "-//W3C//DTD SVG 20010904//EN"
 "http://www.w3.org/TR/2001/REC-SVG-20010904/DTD/svg10.dtd">
<svg version="1.0" xmlns="http://www.w3.org/2000/svg"
 width="700.000000pt" height="700.000000pt" viewBox="0 0 700.000000 700.000000"
 preserveAspectRatio="xMidYMid meet">
<metadata>
Created by potrace 1.11, written by Peter Selinger 2001-2013
</metadata>
<g transform="translate(0.000000,700.000000) scale(0.100000,-0.100000)"
fill="#000000" stroke="none">
<path d="M1567 6985 c-36 -36 -36 -8 -36 -1185 l-1 -1056 -52 -2 c-68 -2 -178
-15 -223 -26 -90 -21 -119 -29 -182 -50 -140 -48 -315 -148 -423 -241 -103
-89 -210 -215 -279 -330 -30 -49 -107 -218 -117 -255 -32 -120 -54 -242 -57
-317 0 -14 2 -14 -84 -17 -95 -4 -130 -46 -99 -118 11 -23 31 -30 111 -35 39
-3 71 -6 72 -7 1 -1 5 -24 8 -51 4 -27 13 -77 21 -110 8 -33 17 -69 19 -79 3
-11 16 -51 31 -90 77 -204 207 -386 385 -536 35 -30 66 -56 68 -57 1 -1 -4
-11 -12 -23 -12 -18 -16 -60 -17 -212 -1 -174 1 -192 19 -222 21 -33 57 -56
90 -56 14 0 20 -11 25 -48 4 -26 9 -56 11 -67 4 -22 14 -90 21 -145 2 -19 6
-46 9 -60 5 -29 9 -54 25 -165 6 -44 13 -91 15 -105 3 -14 7 -43 10 -65 3 -22
10 -65 15 -95 5 -30 12 -75 15 -100 3 -25 10 -70 15 -100 5 -30 12 -73 14 -95
3 -22 16 -112 30 -200 14 -88 27 -180 31 -205 3 -25 10 -70 15 -100 5 -30 12
-77 16 -105 3 -27 8 -57 9 -67 2 -9 7 -38 11 -65 9 -64 31 -101 69 -113 37
-12 700 -11 732 1 34 12 53 50 65 126 6 37 16 74 23 81 7 7 53 39 104 70 108
67 404 255 1401 887 206 131 461 291 565 357 343 216 440 277 455 288 8 5 191
121 405 256 215 136 516 326 670 424 154 97 478 302 720 455 635 401 618 389
666 464 24 37 27 51 24 97 -5 69 -37 113 -130 182 -23 17 -580 367 -589 371
-6 2 -13 7 -16 11 -3 3 -86 57 -185 119 -99 62 -389 245 -645 407 -256 162
-591 374 -745 471 -154 97 -309 195 -345 219 -74 48 -1203 761 -1298 820 -34
22 -193 122 -354 224 -160 102 -313 199 -339 215 -27 17 -123 77 -214 135 -91
58 -196 124 -233 148 -246 155 -302 180 -335 147z m211 -2409 c248 -54 467
-177 633 -354 177 -188 271 -398 303 -669 l5 -43 -607 -1 c-334 -1 -795 -2
-1025 -3 l-418 -1 6 40 c6 36 42 132 88 237 15 34 15 38 -1 57 -29 35 -58 18
-96 -58 -39 -77 -71 -168 -81 -228 -3 -23 -12 -43 -18 -45 -11 -3 -163 -3
-208 1 -14 1 -16 10 -13 44 13 143 50 270 116 402 58 115 119 198 222 300 187
185 419 298 691 338 67 10 333 -1 403 -17z m927 -1283 c-8 -72 -44 -198 -79
-282 -81 -190 -235 -373 -418 -496 l-81 -54 -596 -1 -596 0 -76 50 c-159 104
-297 257 -387 430 -66 127 -101 235 -117 358 l-7 52 1182 0 1182 0 -7 -57z
m-537 -953 c12 -8 26 -26 29 -39 5 -21 7 -144 4 -229 -1 -14 -13 -30 -33 -42
-32 -19 -53 -20 -636 -20 -637 0 -649 1 -666 45 -3 9 -6 69 -6 134 0 109 2
119 23 138 12 12 31 23 42 25 11 2 290 3 620 3 507 -1 604 -3 623 -15z m-178
-441 c0 -3 -7 -66 -15 -140 -15 -138 -52 -479 -60 -559 -3 -25 -14 -128 -25
-230 -11 -102 -22 -207 -25 -235 -7 -68 -15 -143 -20 -185 -2 -19 -7 -60 -10
-90 -3 -30 -7 -71 -10 -90 -2 -19 -7 -62 -10 -95 -11 -102 -14 -105 -163 -106
-70 -1 -176 -2 -237 -3 -115 -2 -164 11 -166 44 0 8 -2 24 -5 35 -2 11 -6 47
-9 80 -3 33 -7 78 -10 100 -3 22 -7 56 -10 75 -2 19 -7 69 -11 110 -3 41 -7
82 -9 90 -1 8 -6 49 -10 90 -3 41 -8 86 -10 100 -2 14 -7 50 -10 80 -3 30 -7
71 -10 90 -2 19 -7 67 -10 105 -3 39 -8 77 -10 85 -2 8 -6 47 -10 85 -4 39 -8
90 -11 115 -2 25 -6 61 -9 80 -5 36 -15 132 -20 185 -10 108 -17 171 -20 181
-2 7 133 10 461 10 255 0 464 -4 464 -7z"/>
<path d="M1339 4274 c-154 -27 -321 -104 -444 -204 -58 -48 -75 -81 -55 -105
20 -24 45 -18 102 28 49 39 97 72 158 109 84 50 268 98 382 100 26 0 47 7 60
20 17 17 18 22 5 41 -12 18 -25 22 -73 23 -33 1 -93 -5 -135 -12z"/>
</g>
</svg>
