<?xml version="1.0" encoding="UTF-8"?>
<svg width="318px" height="39px" viewBox="0 0 318 39" version="1.1" xmlns="http://www.w3.org/2000/svg" xmlns:xlink="http://www.w3.org/1999/xlink">
    <!-- Generator: Sketch 46.2 (44496) - http://www.bohemiancoding.com/sketch -->
    <title>Logo</title>
    <desc>Created with Sketch.</desc>
    <defs></defs>
    <g id="Page-1" stroke="none" stroke-width="1" fill="none" fill-rule="evenodd">
        <g id="Desktop" transform="translate(-25.000000, -20.000000)">
            <g id="Header">
                <g id="Logo">
                    <g transform="translate(16.000000, 16.000000)">
                        <path d="M47.02629,22.52373 C47.70369,22.95003 47.96259,23.26443 47.96259,23.71683 C47.96259,24.13533 47.70369,24.48303 47.02629,24.90933 C37.56819,30.86643 28.89069,36.41943 19.42119,42.38043 C18.40539,43.02423 17.99289,43.28013 17.99289,41.89263 L17.99289,5.53563 C17.99289,4.14813 18.40599,4.40403 19.42989,5.04843 C28.89639,11.00973 37.56819,16.56303 47.02629,22.52373 Z" id="Fill-2" fill="#FBC707"></path>
                        <path d="M24.51408,23.97066 C24.51408,26.80356 22.57668,29.20056 19.91238,29.99166 L16.07238,29.99166 C13.40808,29.20056 11.47038,26.80356 11.47038,23.97816 C11.47038,20.49996 14.39058,17.68026 17.99238,17.68026 C21.59418,17.67276 24.51408,20.49246 24.51408,23.97066 Z" id="Fill-4" fill="#3D9BCA"></path>
                        <path d="M11.46846,23.97255 C11.46846,20.65905 14.12106,17.94045 17.48646,17.69355 C19.83306,18.87345 21.43536,21.24285 21.43536,23.97255 C21.43536,24.15825 21.42786,24.34185 21.41316,24.52425 L14.07186,24.42075 L14.20026,24.47385 L20.35956,25.73505 C20.71656,25.80795 21.16026,25.94805 21.00186,26.37255 C20.43816,27.88455 19.35306,29.15865 17.95806,29.99295 L16.07106,29.99295 C13.40616,29.20215 11.46846,26.80545 11.46846,23.97255 Z" id="Fill-6" fill="#47C7FF"></path>
                        <path d="M14.81466,29.99355 C14.53836,29.99355 14.31246,30.17385 14.31246,30.39375 L14.31246,31.50465 C14.31246,31.72485 14.53836,31.90455 14.81466,31.90455 L21.18366,31.90455 C21.45966,31.90455 21.68616,31.72455 21.68616,31.50465 L21.68616,30.39375 C21.68616,30.17385 21.45996,29.99355 21.18366,29.99355 L16.07226,29.99355 L14.81466,29.99355 Z" id="Fill-8" fill="#FFFFFF"></path>
                        <path d="M15.43095,32.47089 L16.42305,41.69709 C16.43565,41.87709 16.57575,42.02469 16.76235,42.02469 L19.18635,42.02469 C19.37265,42.02469 19.51275,41.87709 19.52565,41.69709 L20.51805,32.47089 L15.43095,32.47089 Z" id="Fill-10" fill="#FFFFFF"></path>
                        <path d="M21.01875,31.50495 C21.01875,31.72515 20.79255,31.90485 20.51625,31.90485 L21.18315,31.90485 C21.45945,31.90485 21.68595,31.72515 21.68595,31.50495 L21.68595,30.39405 C21.68595,30.17445 21.45975,29.99415 21.18315,29.99415 L20.51625,29.99415 C20.79285,29.99415 21.01875,30.17415 21.01875,30.39405 L21.01875,31.50495 Z" id="Fill-12" fill="#DEDEDD"></path>
                        <path d="M18.30234,32.47089 L18.25584,41.69529 C18.25584,41.87619 18.10284,42.02379 17.91684,42.02379 L19.18854,42.02379 C19.37484,42.02379 19.51494,41.87589 19.52784,41.69589 L20.52024,32.46969 L18.30354,32.46969" id="Fill-14" fill="#DEDEDD"></path>
                        <path d="M20.51997,32.46915 L15.43197,32.46915 L16.42437,41.69325 C16.44357,41.87265 16.57707,42.02115 16.76367,42.02115 L19.18767,42.02115 C19.37427,42.02115 19.51437,41.87325 19.52697,41.69325 L20.51967,32.46915 L20.51997,32.46915 Z M22.44687,29.58945 C22.58127,29.70645 22.66617,29.87535 22.66617,30.06285 L22.66617,31.83195 C22.66617,32.18235 22.36917,32.46885 22.00647,32.46885 L21.81687,32.46885 L20.32107,42.43215 C20.28027,42.70155 20.08857,42.92745 19.80747,42.92745 L16.14357,42.92745 C15.86157,42.92745 15.65787,42.70335 15.63057,42.43215 L14.13477,32.46885 L14.09157,32.46885 C13.72887,32.46885 13.43217,32.18205 13.43217,31.83195 L13.43217,30.06255 C13.43217,29.89935 13.49637,29.75025 13.60197,29.63715 C11.96487,28.45215 10.85847,26.62095 10.68597,24.53655 L10.03947,24.53655 C9.79767,24.53655 9.59997,24.34545 9.59997,24.11175 C9.59997,23.87835 9.79767,23.68725 10.03947,23.68725 L10.66887,23.68725 C10.82307,19.91145 14.04237,16.89345 17.99097,16.89345 C21.93957,16.89345 25.15977,19.91145 25.31307,23.68725 L25.94247,23.68725 C26.18397,23.68725 26.38197,23.87835 26.38197,24.11175 C26.38197,24.34545 26.18397,24.53655 25.94247,24.53655 L25.29597,24.53655 C25.12737,26.59845 24.04617,28.40775 22.44567,29.59395 L22.44687,29.58945 Z M14.81307,29.99955 L21.18177,29.99955 C21.45807,29.99955 21.68427,30.17925 21.68427,30.39945 L21.68427,31.51035 C21.68427,31.73025 21.45807,31.91025 21.18177,31.91025 L14.81307,31.91025 C14.53677,31.91025 14.31057,31.73025 14.31057,31.51035 L14.31057,30.39945 C14.31057,30.17925 14.53677,29.99955 14.81307,29.99955 L14.81307,29.99955 Z M12.75537,23.69565 C12.78477,23.48955 12.82737,23.28555 12.88317,23.08485 C12.99897,22.66785 13.17177,22.26375 13.39857,21.88425 C13.46637,21.77025 13.61697,21.73125 13.73517,21.79665 C13.85307,21.86205 13.89387,22.00755 13.82607,22.12155 C13.62237,22.46205 13.46637,22.82775 13.36077,23.20815 C13.31637,23.36835 13.28097,23.53125 13.25517,23.69565 L24.50667,23.69565 C24.35307,20.34855 21.49377,17.68035 17.99037,17.68035 C14.48757,17.68035 11.62737,20.34855 11.47467,23.69565 L12.75477,23.69565 L12.75537,23.69565 Z M14.72967,29.43435 L21.25347,29.43435 C23.04267,28.43415 24.29337,26.63715 24.48717,24.54525 L11.49597,24.54525 C11.68887,26.63715 12.94077,28.43325 14.72967,29.43435 L14.72967,29.43435 Z M14.56857,21.19035 C14.47197,21.28365 14.31507,21.28365 14.21847,21.19035 C14.12187,21.09705 14.12187,20.94555 14.21847,20.85225 C14.70087,20.38665 15.27117,20.02185 15.89277,19.77315 C16.51347,19.52505 17.18337,19.39365 17.86527,19.39365 C18.00207,19.39365 18.11277,19.50045 18.11277,19.63245 C18.11277,19.76475 18.00207,19.87155 17.86527,19.87155 C17.24577,19.87155 16.63977,19.99035 16.07997,20.21415 C15.52107,20.43765 15.00597,20.76765 14.56797,21.19035 L14.56857,21.19035 Z" id="Fill-16" fill="#293554"></path>
                        <path d="M182.55204,28.87764 C182.74014,29.06664 182.94444,29.22264 183.16314,29.35164 C183.38154,29.48034 183.59004,29.58504 183.79134,29.66544 C183.99204,29.74614 184.16964,29.80494 184.32204,29.83944 C184.47444,29.87334 184.57914,29.89224 184.63434,29.89224 C184.76634,29.89224 184.93644,29.88504 185.14134,29.87514 C185.34624,29.86464 185.54034,29.83344 185.72784,29.78214 C185.91594,29.72934 186.07824,29.64684 186.21384,29.52744 C186.34854,29.40954 186.41454,29.24184 186.41454,29.02554 C186.41454,28.83024 186.37584,28.67334 186.29964,28.55844 C186.22374,28.44384 186.11154,28.34574 185.96634,28.26564 C185.82084,28.18494 185.64354,28.11504 185.43204,28.05294 C185.22024,27.98934 184.98114,27.91794 184.71714,27.83334 C183.88404,27.61014 183.19734,27.34164 182.65554,27.02814 C182.11434,26.71434 181.68714,26.36244 181.37124,25.97514 C181.05564,25.58844 180.83334,25.17354 180.70854,24.72744 C180.58434,24.28134 180.52044,23.81034 180.52044,23.31534 C180.52044,22.73694 180.63504,22.21074 180.86394,21.73614 C181.09314,21.26244 181.41924,20.85414 181.84254,20.51604 C182.26584,20.17794 182.77254,19.91634 183.36264,19.73184 C183.95274,19.54704 184.60824,19.45674 185.33124,19.45674 C185.76834,19.45674 186.17844,19.49094 186.55944,19.56534 C186.94104,19.63974 187.30584,19.75434 187.65294,19.91034 C188.00004,20.06754 188.33994,20.26944 188.66964,20.51694 C188.99904,20.76474 189.32544,21.06084 189.65184,21.40254 C189.77004,21.54204 189.83184,21.67074 189.83604,21.79284 C189.83934,21.91374 189.75984,22.04724 189.59994,22.18644 C189.32934,22.40964 189.07224,22.62924 188.82594,22.84524 C188.57964,23.06154 188.32284,23.30184 188.05854,23.56704 C187.97634,23.63664 187.89174,23.67714 187.80894,23.69574 C187.72344,23.71284 187.64604,23.71284 187.56954,23.69214 C187.49364,23.67204 187.41924,23.63784 187.35054,23.58834 C187.28094,23.54004 187.21884,23.47974 187.16454,23.41014 C186.92124,23.13804 186.64374,22.95354 186.33144,22.85934 C186.01854,22.76634 185.72724,22.71984 185.45664,22.71984 C185.11644,22.71984 184.84584,22.77864 184.64454,22.89804 C184.44384,23.01594 184.34934,23.19774 184.36344,23.44194 C184.37724,23.62254 184.44564,23.76264 184.56834,23.86374 C184.69074,23.96454 184.83924,24.04854 185.01624,24.11124 C185.19414,24.17334 185.38074,24.22134 185.57844,24.26184 C185.77704,24.30054 185.95674,24.34404 186.12324,24.39384 C186.74814,24.59544 187.32084,24.81564 187.84074,25.05234 C188.36124,25.28964 188.81274,25.57884 189.19464,25.92384 C189.57594,26.26884 189.87474,26.68374 190.08624,27.16434 C190.29804,27.64584 190.40244,28.23144 190.40244,28.92204 C190.40244,29.61204 190.26744,30.22944 189.99264,30.77304 C189.71874,31.31664 189.34014,31.77324 188.86104,32.14314 C188.38254,32.51244 187.81674,32.79474 187.16094,32.99004 C186.50514,33.18534 185.79714,33.28284 185.04054,33.28284 C184.61034,33.28284 184.17294,33.24414 183.72864,33.16794 C183.28434,33.09204 182.85414,32.96634 182.43774,32.79504 C182.02134,32.62524 181.62594,32.40504 181.25064,32.13654 C180.87594,31.86834 180.54294,31.54404 180.25104,31.16034 C180.17514,31.06284 180.11934,30.95874 180.08214,30.85014 C180.04314,30.74184 180.02784,30.63744 180.02934,30.53304 C180.03264,30.42924 180.05424,30.33144 180.09114,30.24384 C180.13014,30.15714 180.18894,30.08274 180.27084,30.02064 L181.61424,28.67154 C181.78104,28.53234 181.93014,28.48284 182.05824,28.52604 C182.18694,28.56804 182.34984,28.68714 182.55114,28.88184 L182.55204,28.87764 Z M167.81874,26.37864 C167.81874,26.83854 167.90394,27.26754 168.03414,27.66834 C168.18174,28.06944 168.37674,28.41804 168.64134,28.71084 C168.90534,29.00364 169.22454,29.23374 169.59564,29.40474 C169.96704,29.57424 170.37684,29.66244 170.82774,29.66244 C171.29274,29.66244 171.72684,29.57544 172.12554,29.40474 C172.52484,29.23464 172.87194,29.00364 173.16684,28.71084 C173.46174,28.41804 173.69094,28.06974 173.85774,27.66834 C174.02454,27.26754 174.10734,26.83854 174.10734,26.37864 C174.10734,25.93254 174.02514,25.50714 173.85774,25.10274 C173.69094,24.69774 173.46204,24.34254 173.16684,24.03594 C172.87194,23.72934 172.52484,23.48484 172.12554,23.30754 C171.72654,23.12904 171.29274,23.04264 170.82774,23.04264 C170.37654,23.04264 169.96734,23.12934 169.59564,23.30754 C169.22424,23.48574 168.90504,23.72934 168.64134,24.03594 C168.37674,24.34254 168.17604,24.69804 168.03414,25.10274 C167.88684,25.50684 167.81874,25.93254 167.81874,26.37864 L167.81874,26.37864 Z M178.07514,32.23464 C178.07514,32.35284 178.05534,32.46504 178.01154,32.57304 C177.96984,32.68164 177.89994,32.76834 177.80454,32.83104 C177.72864,32.90694 177.63774,32.95494 177.53394,32.97684 C177.43014,32.99694 177.33954,33.00774 177.26334,33.00774 L175.21254,33.00774 C175.06674,33.00774 174.94884,32.98764 174.85884,32.94864 C174.76764,32.90994 174.69594,32.85744 174.64014,32.78754 C174.58584,32.71764 174.53934,32.63034 174.50034,32.52984 C174.46164,32.42874 174.41994,32.31954 174.37794,32.20194 L174.07614,31.41774 C173.88774,31.60674 173.68404,31.80444 173.46174,32.01714 C173.23944,32.22984 172.99674,32.42844 172.72944,32.60934 C172.46214,32.79024 172.17084,32.94084 171.85854,33.06294 C171.54624,33.18384 171.21324,33.24744 170.85894,33.24744 C170.22714,33.24744 169.62324,33.16704 169.04424,33.00714 C168.46464,32.84574 167.92314,32.61654 167.42034,32.32044 C166.91694,32.02404 166.45824,31.66854 166.04814,31.25394 C165.63774,30.83874 165.28704,30.37884 164.99334,29.86974 C164.69934,29.36064 164.46894,28.80954 164.31024,28.22064 C164.14104,27.63144 164.07114,27.01794 164.07114,26.37594 C164.07114,25.40694 164.24034,24.50364 164.60214,23.67054 C164.95494,22.83744 165.43944,22.11294 166.04814,21.49554 C166.65894,20.87844 167.37774,20.39364 168.20424,20.04174 C169.03044,19.68984 169.91514,19.51554 170.85984,19.51554 C171.29004,19.51554 171.68604,19.57914 172.04694,19.70664 C172.40784,19.83534 172.73754,20.00634 173.03274,20.21544 C173.32764,20.42574 173.59494,20.66154 173.83434,20.92674 C174.07344,21.19164 174.28524,21.46014 174.47274,21.73194 L174.87894,20.46684 C174.94854,20.29284 175.00764,20.14944 175.05204,20.04114 C175.09704,19.93284 175.14534,19.85244 175.19784,19.80084 C175.25064,19.74804 175.31274,19.71414 175.38804,19.69704 C175.46424,19.67994 175.57224,19.67214 175.71114,19.67214 L177.26244,19.67214 C177.33834,19.67214 177.42924,19.68264 177.53304,19.70304 C177.63684,19.72344 177.72744,19.77294 177.80364,19.84914 C177.90144,19.92504 177.97044,20.01264 178.01064,20.11074 C178.05264,20.20854 178.07424,20.31864 178.07424,20.44554 L178.07424,32.23134 L178.07514,32.23464 Z M157.97154,15.24744 C157.97154,14.95464 158.03514,14.74554 158.16204,14.62344 C158.28924,14.50104 158.48124,14.44284 158.74554,14.44284 L161.16084,14.44284 C161.40384,14.44284 161.60244,14.50194 161.75064,14.62344 C161.89794,14.74434 161.97264,14.95464 161.97264,15.24744 L161.97264,17.28744 C161.97264,17.36964 161.95554,17.46144 161.90904,17.55924 C161.86734,17.65704 161.82384,17.75034 161.73984,17.84124 C161.67654,17.93304 161.59284,18.00504 161.48634,18.06444 C161.38074,18.12354 161.27064,18.15594 161.14584,18.15594 L158.73054,18.15594 C158.21694,18.15594 157.96074,17.86674 157.96074,17.28834 L157.96074,15.24834 L157.97154,15.24744 Z M157.97154,20.53914 C157.97154,20.31564 158.03514,20.12424 158.16204,19.96404 C158.28924,19.80264 158.48124,19.72344 158.74554,19.72344 L161.12964,19.72344 C161.21484,19.72344 161.29884,19.74024 161.40054,19.77774 C161.50584,19.81644 161.59074,19.87074 161.67084,19.94544 C161.75634,20.01684 161.81814,20.10684 161.88654,20.20314 C161.95014,20.30094 161.97174,20.41344 161.97174,20.53794 L161.97174,32.19804 C161.97174,32.46294 161.90814,32.66154 161.75424,32.79744 C161.60694,32.93274 161.39904,33.00354 161.12844,33.00354 L158.74434,33.00354 C158.23044,33.00354 157.97454,32.73474 157.97454,32.19804 L157.97454,20.53824 L157.97154,20.53914 Z M153.58794,28.91664 C153.69324,28.84644 153.77814,28.80174 153.86484,28.78434 C153.95004,28.76754 154.01214,28.76124 154.05504,28.76124 C154.18224,28.76124 154.28154,28.78434 154.37874,28.83294 C154.48404,28.88094 154.56894,28.98474 154.68114,29.14644 L155.84574,30.91344 C155.88774,30.96774 155.90934,31.03134 155.95134,31.10244 C155.99304,31.17204 155.99304,31.22634 155.99304,31.27014 C155.99304,31.43154 155.95134,31.55964 155.84574,31.66044 C155.74044,31.76124 155.63454,31.85184 155.51574,31.92894 C154.94724,32.32644 154.32564,32.64384 153.64974,32.88414 C152.97324,33.12444 152.25444,33.24684 151.49814,33.24684 C150.87234,33.24684 150.27414,33.16644 149.69244,33.00654 C149.11314,32.84514 148.57194,32.61594 148.07154,32.31984 C147.57234,32.02344 147.11394,31.66794 146.69724,31.25304 C146.28084,30.83814 145.92744,30.37824 145.63584,29.86914 C145.34424,29.35974 145.11804,28.80924 144.95514,28.22004 C144.78594,27.63084 144.70764,27.01704 144.70764,26.37534 C144.70764,25.73394 144.79284,25.11684 144.95514,24.52434 C145.12434,23.93214 145.34394,23.38134 145.63584,22.87554 C145.92774,22.37004 146.28054,21.90984 146.69724,21.49494 C147.11394,21.08004 147.57234,20.72814 148.07154,20.43534 C148.57044,20.14254 149.11194,19.91604 149.69244,19.75554 C150.27204,19.59414 150.87234,19.51494 151.49814,19.51494 C152.25504,19.51494 152.95494,19.61574 153.59694,19.81824 C154.23954,20.01984 154.84014,20.32044 155.40264,20.71764 L155.36064,20.68674 C155.50824,20.77824 155.63544,20.88204 155.72424,21.00384 C155.80944,21.12654 155.85144,21.27954 155.85144,21.46074 C155.85144,21.58494 155.80944,21.71514 155.72424,21.84744 L154.79844,23.42694 C154.60824,23.76864 154.36704,23.93934 154.09014,23.93934 C154.02684,23.93934 153.94284,23.92224 153.86184,23.89104 C153.77664,23.86014 153.67164,23.80884 153.55944,23.72964 C153.25494,23.52804 152.92734,23.36034 152.57634,23.23134 C152.22534,23.10264 151.85154,23.04024 151.45584,23.04024 C151.01814,23.04024 150.61614,23.12694 150.24834,23.30484 C149.88054,23.48334 149.56764,23.72694 149.30754,24.03354 C149.04744,24.34014 148.84254,24.69564 148.69644,25.10004 C148.54914,25.50474 148.47684,25.92984 148.47684,26.37594 C148.47684,26.83584 148.56204,27.26484 148.69644,27.66594 C148.84404,28.06704 149.04744,28.41564 149.30754,28.70844 C149.56764,29.00124 149.88024,29.23134 150.24834,29.40204 C150.61614,29.57184 151.02024,29.65974 151.45584,29.65974 C151.85124,29.65974 152.22324,29.59014 152.57004,29.44974 C152.91654,29.30994 153.24654,29.13264 153.55944,28.91694 L153.58794,28.91664 Z M130.55214,19.90164 C130.62984,19.82544 130.74324,19.77744 130.83954,19.75554 C130.94784,19.73544 131.02854,19.72464 131.12334,19.72464 L132.69624,19.72464 C132.82044,19.72464 132.92724,19.74474 133.01724,19.78974 C133.09494,19.83474 133.18494,19.89834 133.24374,19.97454 C133.30584,20.05074 133.35234,20.13804 133.39884,20.23614 C133.44564,20.33394 133.46094,20.43594 133.50774,20.53974 L133.83024,21.87804 C133.93884,21.66204 134.08464,21.41484 134.28624,21.13914 C134.47554,20.86404 134.73624,20.60574 135.03864,20.36514 C135.34104,20.12484 135.70884,19.92264 136.12764,19.75884 C136.54794,19.59534 137.03334,19.51464 137.58894,19.51464 C138.38004,19.51464 139.09824,19.66644 139.74504,19.97454 C140.38974,20.28144 140.94174,20.69964 141.39714,21.22974 C141.85164,21.75954 142.20234,22.37664 142.45194,23.08494 C142.70154,23.79294 142.82604,24.54894 142.82604,25.34994 L142.82604,32.19924 C142.82604,32.46414 142.76244,32.66274 142.65714,32.79864 C142.55154,32.93394 142.35894,33.00474 142.10934,33.00474 L139.70334,33.00474 C139.40724,33.00474 139.19934,32.95194 139.09074,32.85264 C138.98214,32.75184 138.92154,32.55654 138.92154,32.26344 L138.92154,25.45614 C138.92154,25.15674 138.85974,24.87084 138.73254,24.60234 C138.60834,24.33384 138.41904,24.09684 138.19584,23.89104 C137.97564,23.68524 137.72244,23.52504 137.44344,23.40654 C137.16414,23.28864 136.87404,23.22804 136.58244,23.22804 C136.33434,23.22804 136.07844,23.28264 135.81924,23.39604 C135.56034,23.50614 135.31824,23.66064 135.09954,23.85954 C134.88384,24.05904 134.69754,24.29154 134.54574,24.56004 C134.39064,24.82854 134.30994,25.12134 134.28984,25.43514 L134.28984,32.23344 C134.28984,32.35104 134.27454,32.47014 134.22774,32.58894 C134.18124,32.70714 134.11914,32.79684 134.01834,32.86074 C133.94094,32.91534 133.84914,32.95404 133.76544,32.97564 C133.68804,32.99604 133.59654,33.00684 133.48944,33.00684 L131.13624,33.00684 C130.83984,33.00684 130.62294,32.93244 130.49094,32.78694 C130.36674,32.64114 130.30164,32.44524 130.30164,32.20164 L130.30164,20.49954 C130.30164,20.36784 130.31694,20.24514 130.37904,20.13384 C130.44114,20.02194 130.53444,19.93434 130.62114,19.87194 L130.55904,19.90314 L130.55214,19.90164 Z M121.73364,14.17074 C121.78014,14.13654 121.81134,14.11164 121.84224,14.09934 C121.85784,14.08524 121.90434,14.07924 121.95114,14.07924 C122.01294,14.07924 122.07534,14.11014 122.16024,14.17224 L124.83624,16.85004 C124.89834,16.89174 124.91394,16.97244 124.91394,17.09034 C124.91394,17.15424 124.89834,17.21934 124.83624,17.29014 L123.92094,18.23124 C123.84354,18.30744 123.75354,18.34614 123.64194,18.34614 C123.56454,18.34614 123.47274,18.31524 123.41514,18.25284 L121.96794,16.76814 L120.48984,18.26334 C120.41214,18.33954 120.33444,18.36744 120.24774,18.34554 C120.17034,18.32544 120.09264,18.28674 120.03354,18.23094 L119.09814,17.32104 C119.05194,17.28684 119.03634,17.24964 119.03634,17.21064 C119.02584,17.17194 119.02074,17.13474 119.02074,17.09274 C119.02074,17.03874 119.03124,16.99194 119.03634,16.95804 C119.05164,16.92384 119.08284,16.89264 119.09814,16.86474 L121.74324,14.17794 L121.73364,14.17074 Z M121.56444,22.70484 C121.29624,22.70484 121.03254,22.75764 120.77964,22.86594 C120.52704,22.97454 120.28494,23.12094 120.06474,23.30154 C119.84454,23.48214 119.64264,23.68854 119.46894,23.91894 C119.30004,24.14874 119.14644,24.38244 119.03454,24.61974 L124.35534,24.61974 C124.20024,24.34734 124.05444,24.09654 123.88374,23.86614 C123.71604,23.63604 123.51774,23.43414 123.30054,23.25954 C123.08184,23.08554 122.82894,22.94934 122.54964,22.85184 C122.27064,22.75374 121.93854,22.70574 121.56624,22.70574 L121.56444,22.70484 Z M126.57354,31.41564 C125.96244,31.98024 125.27664,32.41974 124.51194,32.73684 C123.74874,33.05424 122.93904,33.21474 122.08584,33.21474 C121.13484,33.21474 120.23664,33.04044 119.38974,32.69184 C118.54134,32.34294 117.79974,31.85874 117.16224,31.24164 C116.52324,30.62424 116.01594,29.89974 115.64214,29.06334 C115.26834,28.22664 115.07754,27.31674 115.07754,26.33454 C115.07754,25.72104 115.15494,25.12494 115.30254,24.55044 C115.45764,23.97534 115.66404,23.43864 115.93704,22.93704 C116.21004,22.43514 116.54334,21.97134 116.93574,21.54954 C117.32994,21.12774 117.76434,20.76864 118.24974,20.46924 C118.73844,20.16924 119.26134,19.93554 119.83344,19.76844 C120.40284,19.60074 121.00314,19.51704 121.63434,19.51704 C122.21004,19.51704 122.76984,19.59324 123.31134,19.74714 C123.85434,19.89924 124.36164,20.11674 124.83774,20.39544 C125.31534,20.67414 125.74524,21.00894 126.14214,21.39924 C126.53784,21.78984 126.87744,22.21524 127.16124,22.67844 C127.44534,23.14194 127.67004,23.63724 127.82514,24.16344 C127.98054,24.68994 128.05644,25.23384 128.05644,25.79094 C128.05644,26.15334 128.05284,26.44974 128.04264,26.68014 C128.03214,26.90994 127.98054,27.09144 127.87344,27.22734 C127.76454,27.36234 127.61754,27.45774 127.39104,27.50934 C127.16604,27.56214 126.83244,27.59034 126.39654,27.59034 L118.89954,27.59034 C118.96164,28.03614 119.10894,28.40934 119.32314,28.70904 C119.53254,29.00874 119.77914,29.24634 120.05544,29.42394 C120.33144,29.60214 120.62934,29.73054 120.94104,29.80734 C121.25274,29.88324 121.54764,29.92194 121.82694,29.92194 C122.07504,29.92194 122.33544,29.89404 122.59914,29.84124 C122.86134,29.78844 123.12054,29.72034 123.36714,29.63124 C123.61224,29.54424 123.83874,29.44224 124.04334,29.32794 C124.25274,29.21304 124.40934,29.09484 124.53834,28.96914 C124.64694,28.87734 124.74744,28.80774 124.82514,28.76304 C124.90254,28.71804 124.99434,28.69794 125.07804,28.69794 C125.15544,28.69794 125.26734,28.72884 125.35404,28.79094 C125.43174,28.85454 125.54334,28.94304 125.66754,29.06304 L126.77184,30.31794 C126.84954,30.40914 126.89604,30.48774 126.92694,30.56184 C126.94254,30.63354 126.97374,30.71244 126.97374,30.78834 C126.97374,30.92814 126.92694,31.04634 126.86484,31.14714 C126.78744,31.24824 126.69594,31.33854 126.59634,31.41594 L126.57354,31.41564 Z M108.73434,15.25044 C108.73434,14.95764 108.79644,14.74854 108.92364,14.62644 C109.04784,14.50404 109.24164,14.44614 109.50684,14.44614 L111.92214,14.44614 C112.16424,14.44614 112.36434,14.50494 112.51164,14.62644 C112.66674,14.74734 112.73184,14.95794 112.73184,15.25044 L112.73184,17.29044 C112.73184,17.37264 112.71654,17.46474 112.67004,17.56224 C112.62354,17.66004 112.59234,17.75334 112.50084,17.84454 C112.43874,17.93604 112.34574,18.00804 112.24794,18.06744 C112.13934,18.12654 112.03374,18.15894 111.90834,18.15894 L109.49304,18.15894 C108.97794,18.15894 108.72384,17.87004 108.72384,17.29134 L108.72384,15.25134 L108.73434,15.25044 Z M108.73434,20.54214 C108.73434,20.31894 108.79644,20.12724 108.92364,19.96704 C109.04784,19.80564 109.24164,19.72644 109.50684,19.72644 L111.89124,19.72644 C111.96864,19.72644 112.06014,19.74354 112.15944,19.78074 C112.26834,19.81944 112.35054,19.87374 112.42794,19.94844 C112.50564,20.01984 112.58334,20.10984 112.64214,20.20644 C112.70424,20.30394 112.71954,20.41644 112.71954,20.54094 L112.71954,32.20104 C112.71954,32.46594 112.65774,32.66454 112.50384,32.80044 C112.34874,32.93544 112.15044,33.00654 111.87894,33.00654 L109.49454,33.00654 C108.97944,33.00654 108.72534,32.73804 108.72534,32.20134 L108.72534,20.54124 L108.73434,20.54214 Z M95.98974,26.37834 C95.98974,26.83854 96.06714,27.26754 96.20364,27.66834 C96.35874,28.06944 96.54654,28.41804 96.81024,28.71054 C97.07394,29.00364 97.39344,29.23374 97.76274,29.40444 C98.13504,29.57424 98.54304,29.66244 98.99604,29.66244 C99.44124,29.66244 99.86154,29.58174 100.25244,29.42184 C100.64634,29.26074 100.98474,29.03874 101.27484,28.75644 C101.56464,28.47354 101.80374,28.14264 101.97894,27.75924 C102.14814,27.37614 102.25194,26.96424 102.27204,26.52534 L102.27204,26.37954 C102.27204,25.93344 102.19464,25.50804 102.02394,25.10364 C101.85504,24.69894 101.62854,24.34374 101.33214,24.03684 C101.03904,23.73024 100.68864,23.48604 100.29114,23.30844 C99.88944,23.12994 99.45834,23.04354 98.99304,23.04354 C98.54154,23.04354 98.13204,23.13054 97.75974,23.30844 C97.38594,23.48694 97.06794,23.73024 96.80724,24.03684 C96.54504,24.34344 96.34044,24.69894 96.20064,25.10364 C96.04554,25.50804 95.98674,25.93344 95.98674,26.37954 L95.98974,26.37834 Z M101.97744,31.38774 C101.78664,31.57674 101.58204,31.77804 101.36004,31.99434 C101.13504,32.21034 100.88214,32.41284 100.61394,32.60094 C100.34394,32.78994 100.05084,32.94264 99.73914,33.06474 C99.42714,33.18564 99.08904,33.24954 98.72904,33.24954 C97.78434,33.24954 96.91734,33.07134 96.12294,32.71614 C95.32734,32.36034 94.64484,31.87224 94.07244,31.25574 C93.50004,30.63834 93.05304,29.91354 92.72904,29.07744 C92.40624,28.24074 92.24034,27.34134 92.24034,26.37954 C92.24034,25.41054 92.40924,24.50724 92.72904,23.67414 C93.05154,22.84104 93.49824,22.11654 94.07244,21.49884 C94.64784,20.88204 95.32884,20.39724 96.12294,20.04564 C96.91884,19.69344 97.78434,19.51914 98.72904,19.51914 C99.10764,19.51914 99.46134,19.57344 99.77604,19.68684 C100.08954,19.79844 100.38114,19.94154 100.64184,20.11554 C100.90074,20.28984 101.14134,20.48484 101.36154,20.70474 C101.57694,20.92464 101.78664,21.14064 101.97894,21.34974 L101.97894,16.56984 C101.97894,16.34664 102.04104,16.15884 102.18834,16.00494 C102.31254,15.85284 102.52344,15.77484 102.79494,15.77484 L105.13734,15.77484 C105.21474,15.77484 105.32634,15.79194 105.42264,15.82914 C105.53124,15.86814 105.61344,15.92244 105.69564,15.99264 C105.77304,16.06254 105.85074,16.14474 105.90504,16.24404 C105.96714,16.34184 105.98274,16.45014 105.98274,16.56864 L105.98274,32.20644 C105.98274,32.74344 105.70344,33.01134 105.13884,33.01134 L103.09884,33.01134 C102.94374,33.01134 102.85224,32.99454 102.77634,32.95884 C102.69864,32.92434 102.62094,32.87154 102.58704,32.80674 C102.54054,32.74164 102.47844,32.65614 102.43194,32.55594 C102.38544,32.45514 102.35424,32.33994 102.27684,32.20734 L101.97564,31.39164 L101.97744,31.38774 Z M89.88894,32.83074 C89.81124,32.90694 89.69964,32.95494 89.60484,32.97654 C89.49624,32.99664 89.41554,33.00774 89.31954,33.00774 L87.74634,33.00774 C87.62244,33.00774 87.51534,32.98284 87.42384,32.93754 C87.34644,32.89284 87.25464,32.83404 87.19734,32.75724 C87.13524,32.68134 87.08874,32.59374 87.04224,32.49564 C86.99574,32.39754 86.96454,32.29614 86.93364,32.19264 L86.61084,30.85374 C86.50224,31.07004 86.35824,31.31364 86.15964,31.58934 C85.97034,31.86444 85.70814,32.12244 85.40244,32.36304 C85.10004,32.60334 84.73254,32.80554 84.30894,32.96964 C83.88534,33.13314 83.40144,33.21744 82.85214,33.21744 C82.06104,33.21744 81.34314,33.06534 80.69754,32.75724 C80.05224,32.45004 79.50324,32.03214 79.04874,31.50204 C78.59274,30.97194 78.23904,30.35184 77.99064,29.64354 C77.74254,28.93614 77.61684,28.18284 77.61684,27.38154 L77.61684,20.53224 C77.61684,20.26734 77.67894,20.06514 77.78454,19.92894 C77.89314,19.79424 78.07914,19.72734 78.33204,19.72734 L80.73804,19.72734 C81.03414,19.72734 81.24234,19.77564 81.35064,19.87794 C81.45924,19.97874 81.51834,20.17764 81.51834,20.47074 L81.51834,27.27804 C81.51834,27.57774 81.58044,27.86004 81.72774,28.12854 C81.85194,28.39704 82.03944,28.63404 82.26294,28.83954 C82.48314,29.04564 82.74054,29.20884 83.01984,29.32764 C83.29884,29.44554 83.58744,29.50614 83.87904,29.50614 C84.12714,29.50614 84.38784,29.44704 84.65784,29.32764 C84.92304,29.20974 85.17294,29.04864 85.39764,28.85004 C85.62264,28.65054 85.80864,28.41804 85.95294,28.14924 C86.10834,27.88104 86.16864,27.59874 86.16864,27.29844 L86.16864,20.50044 C86.16864,20.38284 86.18424,20.26374 86.23074,20.14494 C86.27724,20.02704 86.33934,19.93674 86.44014,19.87284 C86.51754,19.81854 86.60904,19.77984 86.69454,19.75824 C86.77194,19.73814 86.86374,19.72734 86.96754,19.72734 L89.32074,19.72734 C89.61684,19.72734 89.83584,19.80174 89.96604,19.94664 C90.09024,20.09274 90.15534,20.28864 90.15534,20.53224 L90.15534,32.23404 C90.15534,32.36604 90.13974,32.48844 90.07764,32.60004 C90.01584,32.71164 89.92254,32.79954 89.83434,32.86164 L89.89614,32.83074 L89.88894,32.83074 Z M68.42004,22.36194 C68.29584,22.71774 68.15784,23.10114 68.01984,23.51214 C67.89564,23.92374 67.75134,24.33834 67.61784,24.75684 C67.49394,25.17474 67.35594,25.58634 67.21764,25.99434 C67.09344,26.40204 66.94764,26.78514 66.81744,27.14094 L70.01454,27.14094 L68.42304,22.36104 L68.42004,22.36194 Z M66.52614,17.88624 C66.53304,17.84454 66.54144,17.79954 66.58794,17.75124 C66.63444,17.70324 66.66534,17.65824 66.74304,17.61624 C66.80514,17.57454 66.85194,17.54034 66.91224,17.51544 C66.97434,17.49054 67.03644,17.48124 67.08144,17.48124 L69.74634,17.48124 C69.87054,17.48124 69.96204,17.51544 70.04724,17.59014 C70.12494,17.66124 70.20234,17.72964 70.23654,17.78514 L70.49574,18.38124 L75.96204,32.54064 C76.02414,32.68044 76.00854,32.79144 75.91554,32.87904 C75.83814,32.96574 75.70614,33.01074 75.52014,33.01074 L72.53244,33.01074 C72.37734,33.01074 72.25314,32.97984 72.16494,32.91924 C72.08754,32.86014 72.00984,32.76204 71.95554,32.62284 C71.80044,32.26704 71.68254,31.91184 71.54904,31.55964 C71.42514,31.20804 71.28714,30.85584 71.15364,30.49974 L65.62524,30.49974 C65.50104,30.85584 65.36304,31.20774 65.22474,31.55964 C65.10084,31.91184 64.95474,32.26704 64.82304,32.62284 C64.74564,32.88114 64.55784,33.00954 64.29084,33.00954 L61.21974,33.00954 C61.09554,33.00954 60.98244,32.97564 60.89394,32.90604 C60.81624,32.83584 60.78504,32.73204 60.84714,32.59224 L66.50154,17.88834 L66.52614,17.88624 Z" id="Fill-18" fill="#FFFFFF"></path>
                        <path d="M196.98369,17.71464 C196.98369,17.58684 197.02299,17.47644 197.10129,17.38404 C197.17929,17.29164 197.29659,17.24544 197.45289,17.24544 L200.58909,17.24544 C200.69559,17.24544 200.80929,17.28804 200.93019,17.37324 C201.05139,17.45874 201.11169,17.57244 201.11169,17.71464 L201.11169,32.61564 C201.11169,32.92854 200.93769,33.08484 200.58909,33.08484 L197.45289,33.08484 C197.13999,33.08484 196.98369,32.92854 196.98369,32.61564 L196.98369,17.71464 Z" id="Fill-20" fill="#F8C300"></path>
                        <path d="M204.40575,19.72002 C204.49845,19.64172 204.59445,19.59192 204.69375,19.57062 C204.80055,19.54932 204.89985,19.53852 204.99255,19.53852 L206.60295,19.53852 C206.73105,19.53852 206.84145,19.56342 206.93385,19.61322 C207.02625,19.65582 207.10455,19.71612 207.16845,19.79442 C207.23235,19.87272 207.28215,19.96152 207.31785,20.06112 C207.36045,20.16072 207.39945,20.26362 207.43515,20.37042 L207.76575,21.73572 C207.87255,21.51522 208.02525,21.26652 208.22445,20.98902 C208.43055,20.70462 208.69005,20.44152 209.00295,20.19972 C209.31585,19.95102 209.68575,19.74462 210.11235,19.58112 C210.54615,19.41042 211.04745,19.32522 211.61625,19.32522 C212.42685,19.32522 213.16275,19.48152 213.82455,19.79442 C214.48575,20.10732 215.04735,20.53392 215.50965,21.07452 C215.97885,21.61482 216.34155,22.24782 216.59775,22.97292 C216.85365,23.69112 216.98175,24.45912 216.98175,25.27692 L216.98175,32.26362 C216.98175,32.53362 216.92115,32.73972 216.80025,32.88222 C216.68655,33.01722 216.50145,33.08472 216.24555,33.08472 L213.78165,33.08472 C213.47565,33.08472 213.26595,33.03522 213.15225,32.93562 C213.03855,32.82882 212.98155,32.62632 212.98185,32.32722 L212.98185,25.38372 C212.98155,25.07772 212.91075,24.78972 212.76825,24.51972 C212.63325,24.24222 212.45175,24.00072 212.22435,23.79432 C211.99695,23.58102 211.73715,23.41392 211.44585,23.29302 C211.16145,23.17212 210.86985,23.11182 210.57105,23.11182 C210.31485,23.11182 210.05175,23.16852 209.78175,23.28252 C209.51865,23.39622 209.27355,23.55612 209.04585,23.76222 C208.82535,23.96142 208.63695,24.19962 208.48035,24.47682 C208.33125,24.74712 208.24575,25.04232 208.22445,25.36242 L208.22445,32.29542 C208.22445,32.41632 208.19955,32.53752 208.14975,32.65812 C208.10715,32.77902 208.03965,32.87142 207.94725,32.93562 C207.85455,32.99232 207.76575,33.03132 207.68055,33.05262 C207.60225,33.07422 207.50985,33.08502 207.40305,33.08502 L204.99255,33.08502 C204.68685,33.08502 204.46635,33.01032 204.33135,32.86122 C204.19635,32.71182 204.12855,32.51262 204.12855,32.26392 L204.12855,20.32782 C204.12855,20.19282 204.15705,20.06832 204.21375,19.95462 C204.27795,19.84092 204.36315,19.75182 204.46995,19.68792 L204.40605,19.72002 L204.40575,19.72002 Z" id="Fill-22" fill="#F8C300"></path>
                        <path d="M220.36611,17.42667 C220.36611,17.20647 220.43721,17.04267 220.57971,16.93617 C220.72881,16.82217 220.93851,16.71567 221.20911,16.61607 L223.63011,15.77337 C223.66581,15.76647 223.69761,15.76287 223.72611,15.76287 L223.82211,15.76287 C224.08521,15.76287 224.25951,15.84117 224.34471,15.99747 C224.43711,16.14687 224.48361,16.34607 224.48361,16.59507 L224.47281,19.95477 L226.25421,19.95477 C226.48191,19.95477 226.66671,20.02227 226.80891,20.15757 C226.95081,20.29257 227.02221,20.49537 227.02221,20.76537 L227.02221,22.82397 C227.02221,23.12277 226.95081,23.34327 226.80891,23.48547 C226.66671,23.62047 226.48191,23.68797 226.25421,23.68797 L224.47281,23.68797 L224.48361,32.26377 C224.48361,32.53407 224.40531,32.74047 224.24871,32.88267 C224.09241,33.01767 223.87521,33.08517 223.59801,33.08517 L221.18751,33.08517 C220.64001,33.08517 220.36611,32.81127 220.36611,32.26377 L220.35561,23.68797 L219.57681,23.68797 C219.02931,23.68797 218.75571,23.39997 218.75571,22.82397 L218.75571,20.76537 C218.75571,20.22507 219.02931,19.95477 219.57681,19.95477 L220.35561,19.95477 L220.36611,17.42667 Z" id="Fill-24" fill="#F8C300"></path>
                        <path d="M234.59649,22.57866 C234.31929,22.57866 234.04899,22.63536 233.78589,22.74936 C233.52969,22.85586 233.28819,23.00166 233.06079,23.18646 C232.83309,23.37156 232.62699,23.58126 232.44189,23.81586 C232.26429,24.05046 232.11849,24.28896 232.00449,24.53046 L237.45519,24.53046 C237.30579,24.25326 237.14229,23.99736 236.96469,23.76246 C236.79369,23.52786 236.59479,23.32176 236.36709,23.14386 C236.14689,22.96626 235.89069,22.82766 235.59939,22.72806 C235.31499,22.62846 234.98049,22.57866 234.59649,22.57866 L234.59649,22.57866 Z M239.72739,31.46376 C239.10159,32.03976 238.39749,32.49126 237.61539,32.81826 C236.83299,33.13836 236.00439,33.29826 235.12989,33.29826 C234.15549,33.29826 233.23479,33.12066 232.36719,32.76516 C231.49989,32.40966 230.73909,31.91886 230.08479,31.29306 C229.43049,30.66036 228.91149,29.91696 228.52749,29.06376 C228.14319,28.21056 227.95149,27.28236 227.95149,26.27976 C227.95149,25.65396 228.02619,25.04976 228.17559,24.46656 C228.33189,23.87646 228.54879,23.32536 228.82599,22.81326 C229.11039,22.30116 229.45179,21.83196 229.85019,21.40536 C230.25519,20.97156 230.70669,20.60166 231.20439,20.29596 C231.70239,19.99026 232.24269,19.75206 232.82619,19.58136 C233.40909,19.41066 234.02409,19.32546 234.67119,19.32546 C235.26159,19.32546 235.83399,19.40376 236.38869,19.56006 C236.94309,19.71636 237.46239,19.93686 237.94569,20.22126 C238.43649,20.50566 238.88439,20.84706 239.28999,21.24546 C239.69499,21.64356 240.04359,22.08096 240.33519,22.55736 C240.62679,23.02656 240.85089,23.53146 241.00719,24.07206 C241.17069,24.60516 241.25259,25.15626 241.25259,25.72536 C241.25259,26.09496 241.24539,26.39706 241.23129,26.63166 C241.22439,26.86626 241.17099,27.05496 241.07139,27.19716 C240.97179,27.33216 240.80439,27.42846 240.57009,27.48516 C240.34239,27.53496 240.00459,27.55986 239.55669,27.55986 L231.87699,27.55986 C231.94809,28.01496 232.09029,28.39536 232.30329,28.70106 C232.52409,29.00676 232.77639,29.25246 233.06079,29.43726 C233.34519,29.61486 233.64759,29.74266 233.96739,29.82096 C234.28749,29.89926 234.58989,29.93856 234.87429,29.93856 C235.13019,29.93856 235.39329,29.91366 235.66359,29.86386 C235.93359,29.80686 236.19309,29.73576 236.44209,29.65056 C236.69799,29.55786 236.92899,29.45466 237.13539,29.34126 C237.34869,29.22036 237.51939,29.09586 237.64749,28.96776 C237.76119,28.87536 237.85719,28.80786 237.93549,28.76526 C238.02069,28.71546 238.10949,28.69056 238.20219,28.69056 C238.29429,28.69056 238.38699,28.72236 238.47909,28.78656 C238.57869,28.85046 238.68909,28.94286 238.80999,29.06376 L239.94039,30.34356 C240.01869,30.43626 240.06849,30.52146 240.09009,30.59976 C240.11139,30.67086 240.12219,30.74556 240.12219,30.82386 C240.12219,30.96606 240.08319,31.09056 240.00489,31.19706 C239.92689,31.29666 239.83419,31.38546 239.72769,31.46376 L239.72739,31.46376 Z" id="Fill-26" fill="#F8C300"></path>
                        <path d="M243.50274,20.32794 C243.50274,20.20704 243.52764,20.09334 243.57744,19.98684 C243.63414,19.87284 243.70164,19.78404 243.78024,19.72014 C243.96504,19.59924 244.15704,19.53864 244.35624,19.53864 L245.96664,19.53864 C246.10164,19.53864 246.20844,19.56354 246.28644,19.61334 C246.36474,19.66314 246.42894,19.72704 246.47874,19.80534 C246.53544,19.88364 246.58194,19.97244 246.61734,20.07204 C246.65994,20.17164 246.70974,20.27124 246.76674,20.37084 C246.78084,20.39904 246.80904,20.47044 246.85194,20.58414 C246.89484,20.69064 246.94104,20.81154 246.99054,20.94684 C247.04034,21.07464 247.08654,21.19914 247.12944,21.32004 C247.17924,21.43374 247.21104,21.50844 247.22514,21.54414 C247.43874,21.30924 247.64124,21.06414 247.83354,20.80824 C248.03244,20.54484 248.24214,20.30304 248.46264,20.08284 C248.68314,19.86234 248.92854,19.68084 249.19854,19.53894 C249.46884,19.39674 249.78894,19.32534 250.15884,19.32534 C250.54254,19.32534 250.88394,19.35384 251.18274,19.41084 C251.48844,19.46754 251.77644,19.55304 252.04644,19.66674 C252.31674,19.77324 252.58344,19.91214 252.84654,20.08284 C253.11684,20.25324 253.40844,20.45244 253.72134,20.68014 C254.21184,20.94324 254.30424,21.33414 253.99854,21.85314 L253.02774,23.50674 C252.88554,23.72004 252.71124,23.85144 252.50514,23.90124 C252.29904,23.95104 252.07494,23.91924 251.83344,23.80524 C251.52744,23.50674 251.21454,23.28624 250.89474,23.14404 C250.58184,22.99464 250.22244,22.91994 249.81744,22.91994 C249.53994,22.91994 249.29484,22.95924 249.08124,23.03724 C248.87514,23.11554 248.68644,23.22594 248.51604,23.36814 C248.34534,23.51034 248.18514,23.68104 248.03604,23.87994 C247.88664,24.07914 247.73724,24.29964 247.58784,24.54144 L247.58784,32.26374 C247.58784,32.53404 247.52064,32.74014 247.38534,32.88264 C247.25754,33.01764 247.04034,33.08514 246.73464,33.08514 L244.33464,33.08514 C243.78024,33.08514 243.50274,32.81124 243.50274,32.26374 L243.50274,20.32794 Z" id="Fill-28" fill="#F8C300"></path>
                        <path d="M258.20802,26.32266 C258.20802,26.79156 258.27882,27.23256 258.42132,27.64506 C258.57072,28.05066 258.78042,28.40256 259.05072,28.70136 C259.32072,28.99986 259.64442,29.23806 260.02122,29.41596 C260.40522,29.58636 260.82822,29.67186 261.29052,29.67186 C261.76692,29.67186 262.20792,29.58636 262.61322,29.41596 C263.02572,29.23806 263.38092,28.99986 263.67972,28.70136 C263.98572,28.40256 264.22392,28.05066 264.39432,27.64506 C264.56502,27.23256 264.65052,26.79156 264.65052,26.32266 C264.65052,25.86726 264.56502,25.43376 264.39432,25.02126 C264.22392,24.60876 263.98572,24.24606 263.67972,23.93316 C263.38092,23.62026 263.02572,23.37516 262.61322,23.19726 C262.20792,23.01246 261.76692,22.92006 261.29052,22.92006 C260.82822,22.92006 260.40522,23.01246 260.02122,23.19726 C259.64442,23.37516 259.32072,23.62026 259.05072,23.93316 C258.78042,24.24606 258.57072,24.60876 258.42132,25.02126 C258.27882,25.43376 258.20802,25.86726 258.20802,26.32266 L258.20802,26.32266 Z M268.71432,32.29566 C268.71432,32.41656 268.69302,32.53386 268.65042,32.64786 C268.60782,32.75436 268.53672,32.83986 268.43712,32.90376 C268.35882,32.98176 268.26612,33.03156 268.15962,33.05316 C268.05282,33.07446 267.96072,33.08526 267.88242,33.08526 L265.78122,33.08526 C265.63182,33.08526 265.51092,33.06726 265.41852,33.03186 C265.32612,32.98956 265.25142,32.93226 265.19442,32.86146 C265.13772,32.79036 265.08792,32.70486 265.04502,32.60526 C265.00962,32.49876 264.97032,32.38476 264.92772,32.26416 L264.61842,31.46406 C264.42672,31.65576 264.21672,31.86216 263.98932,32.08266 C263.76162,32.29596 263.50932,32.49486 263.23182,32.67996 C262.96182,32.86506 262.66632,33.01776 262.34652,33.13866 C262.02672,33.26646 261.68532,33.33066 261.32262,33.33066 C260.67552,33.33066 260.05332,33.24876 259.45602,33.08526 C258.86562,32.92176 258.31122,32.69076 257.79192,32.39196 C257.27982,32.08626 256.81422,31.72356 256.39482,31.30386 C255.97512,30.87756 255.61272,30.40446 255.30672,29.88546 C255.00792,29.36646 254.77692,28.80786 254.61342,28.21086 C254.44992,27.60606 254.36802,26.97696 254.36802,26.32266 C254.36802,25.33446 254.54952,24.41676 254.91222,23.57076 C255.27492,22.71756 255.76872,21.97806 256.39452,21.35226 C257.02032,20.71926 257.75652,20.22516 258.60252,19.86966 C259.44882,19.50696 260.35542,19.32546 261.32262,19.32546 C261.76362,19.32546 262.16862,19.39326 262.53882,19.52826 C262.90842,19.65636 263.24232,19.82706 263.54112,20.04036 C263.84712,20.25366 264.12072,20.49546 264.36252,20.76576 C264.61152,21.03576 264.83172,21.30966 265.02402,21.58686 L265.43982,20.29626 C265.51092,20.11836 265.56762,19.97616 265.61052,19.86966 C265.66032,19.75566 265.71012,19.67406 265.75992,19.62426 C265.81662,19.56726 265.88442,19.53186 265.96272,19.51746 C266.04072,19.49616 266.15112,19.48536 266.29302,19.48536 L267.88242,19.48536 C267.96072,19.48536 268.05312,19.49616 268.15992,19.51746 C268.26642,19.53906 268.35882,19.58886 268.43712,19.66686 C268.53672,19.74516 268.60782,19.83426 268.65042,19.93356 C268.69302,20.03316 268.71432,20.14716 268.71432,20.27496 L268.71432,32.29596 L268.71432,32.29566 Z" id="Fill-30" fill="#F8C300"></path>
                        <path d="M272.11524,17.42667 C272.11524,17.20647 272.18604,17.04267 272.32854,16.93617 C272.47764,16.82217 272.68764,16.71567 272.95794,16.61607 L275.37924,15.77337 C275.41464,15.76647 275.44644,15.76287 275.47494,15.76287 L275.57124,15.76287 C275.83404,15.76287 276.00864,15.84117 276.09384,15.99747 C276.18594,16.14687 276.23244,16.34607 276.23244,16.59507 L276.22164,19.95477 L278.00304,19.95477 C278.23074,19.95477 278.41554,20.02227 278.55804,20.15757 C278.69994,20.29257 278.77134,20.49537 278.77134,20.76537 L278.77134,22.82397 C278.77134,23.12277 278.69994,23.34327 278.55804,23.48547 C278.41554,23.62047 278.23074,23.68797 278.00304,23.68797 L276.22164,23.68797 L276.23244,32.26377 C276.23244,32.53407 276.15414,32.74047 275.99754,32.88267 C275.84124,33.01767 275.62434,33.08517 275.34684,33.08517 L272.93634,33.08517 C272.38884,33.08517 272.11524,32.81127 272.11524,32.26377 L272.10474,23.68797 L271.32594,23.68797 C270.77844,23.68797 270.50454,23.39997 270.50454,22.82397 L270.50454,20.76537 C270.50454,20.22507 270.77844,19.95477 271.32594,19.95477 L272.10474,19.95477 L272.11524,17.42667 Z" id="Fill-32" fill="#F8C300"></path>
                        <path d="M280.4496,14.97348 C280.4496,14.67468 280.5135,14.46498 280.6416,14.34408 C280.7694,14.21628 280.9686,14.15208 281.2389,14.15208 L283.7136,14.15208 C283.9623,14.15208 284.1615,14.21628 284.3109,14.34408 C284.4675,14.46498 284.5455,14.67468 284.5455,14.97348 L284.5455,17.05338 C284.5455,17.13858 284.5242,17.23128 284.4813,17.33058 C284.4459,17.43018 284.3928,17.52618 284.3214,17.61858 C284.2506,17.71098 284.1615,17.78928 284.055,17.85348 C283.9554,17.91018 283.8417,17.93868 283.7136,17.93868 L281.2389,17.93868 C280.7127,17.93868 280.4496,17.64348 280.4496,17.05338 L280.4496,14.97348 Z M280.4496,20.37078 C280.4496,20.14308 280.5135,19.94748 280.6416,19.78398 C280.7694,19.62048 280.9686,19.53858 281.2389,19.53858 L283.6815,19.53858 C283.767,19.53858 283.8591,19.56018 283.9587,19.60278 C284.0583,19.63818 284.151,19.69518 284.2362,19.77348 C284.3214,19.84428 284.3928,19.92978 284.4495,20.02938 C284.5134,20.12898 284.5455,20.24268 284.5455,20.37078 L284.5455,32.26368 C284.5455,32.53398 284.4708,32.74008 284.3214,32.88258 C284.172,33.01758 283.9587,33.08508 283.6815,33.08508 L281.2389,33.08508 C280.7127,33.08508 280.4496,32.81118 280.4496,32.26368 L280.4496,20.37078 Z" id="Fill-34" fill="#F8C300"></path>
                        <path d="M286.17831,20.59467 C286.03611,20.30307 286.00791,20.05407 286.09311,19.84797 C286.18551,19.64187 286.39881,19.53867 286.73331,19.53867 L289.46361,19.53867 C289.64841,19.53867 289.80861,19.58847 289.94361,19.68807 C290.08581,19.78767 290.18541,19.92987 290.24241,20.11467 C290.36301,20.49147 290.49471,20.91477 290.63691,21.38397 C290.78631,21.85317 290.93931,22.33677 291.09591,22.83477 C291.25941,23.32527 291.41931,23.81607 291.57561,24.30687 C291.73221,24.79017 291.87411,25.23807 292.00221,25.65057 C292.13721,26.05617 292.25481,26.41137 292.35441,26.71737 C292.46091,27.01587 292.53921,27.22917 292.58901,27.35727 L294.85011,20.11467 C294.94281,19.88727 295.04601,19.73427 295.15941,19.65597 C295.28061,19.57797 295.44741,19.53867 295.66071,19.53867 L298.46601,19.53867 C298.67211,19.53867 298.82871,19.56357 298.93521,19.61337 C299.04201,19.66317 299.11311,19.73067 299.14881,19.81617 C299.18451,19.90137 299.19141,20.00097 299.17011,20.11467 C299.14821,20.22147 299.11281,20.33517 299.06331,20.45607 L293.98581,32.62647 C293.90781,32.75457 293.81541,32.86467 293.70891,32.95707 C293.60211,33.04257 293.44221,33.08517 293.22891,33.08517 L291.95961,33.08517 C291.67491,33.08517 291.47211,33.04587 291.35151,32.96787 C291.23751,32.88237 291.15231,32.76897 291.09561,32.62647 L286.17831,20.59467 Z" id="Fill-36" fill="#F8C300"></path>
                        <path d="M303.39435,26.32266 C303.39435,26.79156 303.46545,27.23256 303.60795,27.64506 C303.75705,28.05066 303.96675,28.40256 304.23735,28.70136 C304.50735,28.99986 304.83075,29.23806 305.20785,29.41596 C305.59155,29.58636 306.01485,29.67186 306.47685,29.67186 C306.95355,29.67186 307.39425,29.58636 307.79985,29.41596 C308.21235,29.23806 308.56755,28.99986 308.86635,28.70136 C309.17205,28.40256 309.41055,28.05066 309.58095,27.64506 C309.75165,27.23256 309.83715,26.79156 309.83715,26.32266 C309.83715,25.86726 309.75165,25.43376 309.58095,25.02126 C309.41055,24.60876 309.17205,24.24606 308.86635,23.93316 C308.56755,23.62026 308.21235,23.37516 307.79985,23.19726 C307.39425,23.01246 306.95355,22.92006 306.47685,22.92006 C306.01485,22.92006 305.59155,23.01246 305.20785,23.19726 C304.83075,23.37516 304.50735,23.62026 304.23735,23.93316 C303.96675,24.24606 303.75705,24.60876 303.60795,25.02126 C303.46545,25.43376 303.39435,25.86726 303.39435,26.32266 L303.39435,26.32266 Z M313.90065,32.29566 C313.90065,32.41656 313.87965,32.53386 313.83705,32.64786 C313.79415,32.75436 313.72335,32.83986 313.62375,32.90376 C313.54545,32.98176 313.45275,33.03156 313.34625,33.05316 C313.23945,33.07446 313.14735,33.08526 313.06905,33.08526 L310.96755,33.08526 C310.81845,33.08526 310.69755,33.06726 310.60485,33.03186 C310.51275,32.98956 310.43805,32.93226 310.38105,32.86146 C310.32435,32.79036 310.27455,32.70486 310.23165,32.60526 C310.19625,32.49876 310.15695,32.38476 310.11435,32.26416 L309.80505,31.46406 C309.61305,31.65576 309.40335,31.86216 309.17565,32.08266 C308.94825,32.29596 308.69565,32.49486 308.41845,32.67996 C308.14815,32.86506 307.85295,33.01776 307.53315,33.13866 C307.21305,33.26646 306.87195,33.33066 306.50925,33.33066 C305.86215,33.33066 305.23965,33.24876 304.64235,33.08526 C304.05225,32.92176 303.49785,32.69076 302.97855,32.39196 C302.46645,32.08626 302.00055,31.72356 301.58115,31.30386 C301.16175,30.87756 300.79905,30.40446 300.49335,29.88546 C300.19455,29.36646 299.96325,28.80786 299.80005,28.21086 C299.63655,27.60606 299.55465,26.97696 299.55465,26.32266 C299.55465,25.33446 299.73615,24.41676 300.09855,23.57076 C300.46125,22.71756 300.95535,21.97806 301.58115,21.35226 C302.20695,20.71926 302.94285,20.22516 303.78915,19.86966 C304.63545,19.50696 305.54205,19.32546 306.50925,19.32546 C306.95025,19.32546 307.35525,19.39326 307.72515,19.52826 C308.09475,19.65636 308.42895,19.82706 308.72775,20.04036 C309.03345,20.25366 309.30735,20.49546 309.54915,20.76576 C309.79815,21.03576 310.01835,21.30966 310.21035,21.58686 L310.62615,20.29626 C310.69755,20.11836 310.75425,19.97616 310.79715,19.86966 C310.84695,19.75566 310.89675,19.67406 310.94655,19.62426 C311.00325,19.56726 311.07075,19.53186 311.14905,19.51746 C311.22705,19.49616 311.33775,19.48536 311.47965,19.48536 L313.06905,19.48536 C313.14735,19.48536 313.23945,19.49616 313.34625,19.51746 C313.45305,19.53906 313.54545,19.58886 313.62375,19.66686 C313.72335,19.74516 313.79445,19.83426 313.83705,19.93356 C313.87965,20.03316 313.90095,20.14716 313.90095,20.27496 L313.90095,32.29596 L313.90065,32.29566 Z" id="Fill-38" fill="#F8C300"></path>
                        <path d="M318.48603,28.87179 C318.67833,29.06379 318.88413,29.22759 319.10493,29.36259 C319.33233,29.49069 319.54923,29.59719 319.75533,29.68239 C319.96173,29.76069 320.14293,29.81739 320.29953,29.85309 C320.45553,29.88879 320.56263,29.90649 320.61933,29.90649 C320.75463,29.90649 320.92503,29.90319 321.13113,29.89599 C321.34443,29.88189 321.54723,29.84979 321.73923,29.79999 C321.93123,29.74299 322.09473,29.65389 322.22973,29.53329 C322.37223,29.41239 322.44303,29.24139 322.44303,29.02119 C322.44303,28.82199 322.40433,28.66569 322.32603,28.55199 C322.24773,28.43079 322.13403,28.33149 321.98463,28.25319 C321.83523,28.16799 321.65043,28.09329 321.42993,28.02909 C321.21693,27.96549 320.97483,27.89049 320.70483,27.80529 C319.85133,27.57789 319.14723,27.30369 318.59253,26.98389 C318.03813,26.66409 317.59713,26.30829 317.27013,25.91709 C316.95003,25.51899 316.72623,25.09239 316.59813,24.63729 C316.47003,24.18219 316.40613,23.70219 316.40613,23.19729 C316.40613,22.60719 316.52343,22.07019 316.75803,21.58659 C316.99263,21.10299 317.32713,20.69079 317.76063,20.34939 C318.19443,20.00109 318.71373,19.73439 319.31793,19.54929 C319.92243,19.35759 320.59443,19.26129 321.33393,19.26129 C321.78183,19.26129 322.20153,19.30059 322.59243,19.37889 C322.98363,19.44999 323.35713,19.56729 323.71263,19.73079 C324.06813,19.88739 324.41313,20.09349 324.74733,20.34939 C325.08873,20.59839 325.42653,20.89689 325.76073,21.24549 C325.88133,21.38769 325.94193,21.52269 325.94193,21.65079 C325.94913,21.77169 325.87053,21.90309 325.70703,22.04559 C325.42983,22.27299 325.16343,22.49679 324.90723,22.71729 C324.65823,22.93779 324.39873,23.18319 324.12873,23.45349 C324.04323,23.52459 323.95773,23.57079 323.87253,23.59209 C323.78733,23.60619 323.70543,23.60289 323.62743,23.58159 C323.54913,23.55999 323.47443,23.52459 323.40333,23.47509 C323.33223,23.42529 323.26803,23.36469 323.21133,23.29359 C322.96263,23.01609 322.67823,22.83129 322.35783,22.73889 C322.03803,22.63929 321.73953,22.58949 321.46203,22.58949 C321.11373,22.58949 320.83623,22.65009 320.62983,22.77099 C320.42373,22.89189 320.32803,23.07669 320.34213,23.32569 C320.35593,23.51049 320.42373,23.65629 320.54463,23.76279 C320.67273,23.86239 320.82573,23.94429 321.00363,24.00819 C321.18843,24.07209 321.38013,24.12549 321.57963,24.16809 C321.78573,24.20379 321.97413,24.24639 322.14453,24.29619 C322.78473,24.50259 323.37123,24.72639 323.90463,24.96819 C324.43803,25.20999 324.90033,25.50879 325.29153,25.86429 C325.68243,26.21259 325.98453,26.63199 326.19783,27.12279 C326.41833,27.61359 326.52873,28.21089 326.52873,28.91499 C326.52873,29.61879 326.38653,30.24819 326.10213,30.80289 C325.82463,31.35729 325.44063,31.82319 324.94983,32.19999 C324.45933,32.57709 323.87613,32.86509 323.20083,33.06429 C322.53213,33.26319 321.81033,33.36279 321.03543,33.36279 C320.59443,33.36279 320.14653,33.32349 319.69143,33.24519 C319.23633,33.16689 318.79533,33.04269 318.36873,32.87199 C317.94213,32.69409 317.53683,32.47029 317.15283,32.19999 C316.76853,31.92279 316.42773,31.58859 316.12893,31.19739 C316.05063,31.09779 315.99033,30.99459 315.94743,30.88809 C315.91203,30.77439 315.89403,30.66429 315.89403,30.55749 C315.90123,30.45069 315.92253,30.35469 315.95793,30.26949 C316.00083,30.17709 316.06473,30.09879 316.15023,30.03489 L317.52603,28.65879 C317.69673,28.51629 317.84613,28.46679 317.97423,28.50939 C318.10923,28.55229 318.27993,28.67289 318.48603,28.87209 L318.48603,28.87179 Z" id="Fill-40" fill="#F8C300"></path>
                        <polygon id="Fill-1" points="0 48 336 48 336 0 0 0"></polygon>
                    </g>
                </g>
            </g>
        </g>
    </g>
</svg>