<?xml version="1.0" encoding="UTF-8" standalone="no"?>
<svg xmlns:rdf="http://www.w3.org/1999/02/22-rdf-syntax-ns#" style="image-rendering:optimizeQuality;text-rendering:geometricPrecision;shape-rendering:geometricPrecision" xmlns="http://www.w3.org/2000/svg" fill-rule="evenodd" xml:space="preserve" height="32" width="389" version="1.1" clip-rule="evenodd" xmlns:cc="http://creativecommons.org/ns#" xmlns:dc="http://purl.org/dc/elements/1.1/" viewBox="0 0 15.044779 1.2376158"><defs><style type="text/css"><![CDATA[
    .fil1 {fill:#F8C300;fill-rule:nonzero}
    .fil0 {fill:white;fill-rule:nonzero}
   ]]></style></defs><g fill-rule="nonzero" transform="matrix(.9999 0 0 1 104.4 37.27)"><path d="m-104.1-37.03c0.00045-0.0027 0.00099-0.0056 0.004-0.0087 0.003-0.0031 0.005-0.006 0.01-0.0087 0.004-0.0027 0.007-0.0049 0.0109-0.0065 0.004-0.0016 0.008-0.0022 0.0109-0.0022h0.1718c0.008 0 0.0139 0.0022 0.0194 0.007 0.005 0.0046 0.01 0.009 0.0122 0.01259l0.0167 0.03842 0.3524 0.9127c0.004 0.009 0.003 0.01617-0.003 0.0218-0.005 0.0056-0.0135 0.0085-0.0255 0.0085h-0.1926c-0.01 0-0.018-0.002-0.0237-0.0059-0.005-0.0038-0.01-0.01013-0.0135-0.0191-0.01-0.02293-0.0176-0.04583-0.0262-0.06852-0.008-0.02269-0.0169-0.04539-0.0255-0.06832h-0.3564c-0.008 0.02293-0.0169 0.04562-0.0258 0.06832-0.008 0.02269-0.0174 0.04559-0.0259 0.06852-0.005 0.01665-0.0171 0.02494-0.0343 0.02494h-0.198c-0.008 0-0.0153-0.0022-0.021-0.0067-0.005-0.0045-0.007-0.01122-0.003-0.02022l0.3645-0.9478zm0.1221 0.2885c-0.008 0.02293-0.0169 0.04764-0.0258 0.07414-0.008 0.02653-0.0173 0.05325-0.0259 0.08022-0.008 0.02695-0.0169 0.05348-0.0258 0.07976-0.008 0.0263-0.0174 0.051-0.0258 0.07392h0.2061l-0.1026-0.3081zm1.384 0.6748c-0.005 0.0049-0.0122 0.008-0.0183 0.0094-0.007 0.0013-0.0122 0.002-0.0184 0.002h-0.1014c-0.008 0-0.0149-0.0016-0.0208-0.0045-0.005-0.0029-0.0109-0.0067-0.0146-0.01163-0.004-0.0049-0.007-0.01054-0.01-0.01687-0.003-0.0063-0.005-0.01287-0.007-0.01954l-0.0208-0.08629c-0.007 0.01394-0.0163 0.02965-0.0291 0.04741-0.0122 0.01774-0.0291 0.03437-0.0488 0.04988-0.0195 0.01549-0.0432 0.02852-0.0705 0.03909-0.0273 0.01054-0.0585 0.01597-0.0939 0.01597-0.051 0-0.0973-0.0098-0.1389-0.02966-0.0416-0.01979-0.077-0.04674-0.1063-0.08091-0.0294-0.03415-0.0522-0.07414-0.0682-0.1198-0.016-0.04559-0.0241-0.09415-0.0241-0.1458v-0.4415c0-0.01707 0.004-0.03011 0.0108-0.03887 0.007-0.0087 0.019-0.013 0.0353-0.013h0.1551c0.0191 0 0.0325 0.0031 0.0395 0.0097 0.007 0.0065 0.0108 0.01932 0.0108 0.03821v0.4388c0 0.01932 0.004 0.03752 0.0135 0.05481 0.008 0.01732 0.0201 0.03258 0.0345 0.04584 0.0142 0.01327 0.0308 0.02381 0.0488 0.03146 0.018 0.0076 0.0366 0.0115 0.0554 0.0115 0.016 0 0.0328-0.0038 0.0502-0.0115 0.0171-0.0076 0.0332-0.01797 0.0477-0.03078 0.0145-0.01287 0.0265-0.02786 0.0358-0.04517 0.01-0.0173 0.0139-0.03549 0.0139-0.05484v-0.4382c0-0.0076 0.001-0.01527 0.004-0.02293 0.003-0.0076 0.007-0.01341 0.0135-0.01752 0.005-0.0035 0.0109-0.006 0.0164-0.0074 0.005-0.0013 0.0109-0.002 0.0176-0.002h0.1517c0.0191 0 0.0332 0.0048 0.0416 0.01416 0.008 0.0094 0.0122 0.02203 0.0122 0.03774v0.7543c0 0.0085-0.001 0.01639-0.005 0.02358-0.004 0.0072-0.01 0.01287-0.0157 0.01687l0.004-0.002zm0.7793-0.09301c-0.0123 0.01218-0.0255 0.02515-0.0398 0.0391-0.0145 0.01393-0.0308 0.02698-0.0481 0.0391-0.0174 0.01218-0.0363 0.02203-0.0564 0.0299-0.0201 0.0078-0.0419 0.01191-0.0651 0.01191-0.0609 0-0.1168-0.01149-0.168-0.03438-0.0513-0.02293-0.0953-0.05439-0.1322-0.09415-0.0369-0.03979-0.0657-0.0865-0.0866-0.1404-0.0208-0.05394-0.0315-0.1119-0.0315-0.1739 0-0.06246 0.0109-0.1207 0.0315-0.1744 0.0208-0.05369 0.0496-0.1004 0.0866-0.1402 0.0371-0.03977 0.081-0.07101 0.1322-0.09369 0.0513-0.02269 0.1071-0.03393 0.168-0.03393 0.0244 0 0.0472 0.0035 0.0675 0.01081 0.0202 0.0072 0.039 0.01642 0.0558 0.02765 0.0167 0.01122 0.0322 0.0238 0.0464 0.03797 0.0139 0.01416 0.0274 0.0281 0.0398 0.04157v-0.3081c0-0.01438 0.004-0.02651 0.0135-0.03641 0.008-0.0098 0.0216-0.01483 0.0391-0.01483h0.151c0.005 0 0.0122 0.0011 0.0184 0.0035 0.007 0.0025 0.0123 0.006 0.0176 0.01054 0.005 0.0045 0.01 0.0098 0.0135 0.0162 0.004 0.0063 0.005 0.01327 0.005 0.02091v1.008c0 0.03461-0.018 0.0519-0.0544 0.0519h-0.1315c-0.01 0-0.0159-0.0011-0.0208-0.0034-0.005-0.0022-0.01-0.0056-0.0122-0.0098-0.003-0.0042-0.007-0.0097-0.01-0.01616-0.003-0.0065-0.005-0.01393-0.01-0.02248l-0.0194-0.05258zm-0.386-0.3229c0 0.02966 0.005 0.05731 0.0138 0.08314 0.01 0.02585 0.0221 0.04833 0.0391 0.0672s0.0376 0.03371 0.0614 0.04472c0.024 0.01095 0.0503 0.01662 0.0795 0.01662 0.0287 0 0.0558-0.0052 0.081-0.01549 0.0254-0.0104 0.0472-0.02471 0.0659-0.04291 0.0187-0.01822 0.0341-0.03956 0.0454-0.06426 0.0109-0.02471 0.0176-0.05125 0.0189-0.07955v-0.0094c0-0.02875-0.005-0.05617-0.016-0.08224-0.0109-0.02608-0.0255-0.04899-0.0446-0.06876-0.0189-0.01976-0.0415-0.03551-0.0671-0.04696-0.0259-0.0115-0.0537-0.01707-0.0837-0.01707-0.0291 0-0.0555 0.0056-0.0795 0.01707-0.0241 0.0115-0.0446 0.0272-0.0614 0.04696-0.0169 0.01976-0.0301 0.04268-0.0391 0.06876-0.01 0.02606-0.0138 0.05349-0.0138 0.08224zm0.8216-0.3762c0-0.01439 0.004-0.02674 0.0122-0.03707 0.008-0.0104 0.0205-0.01551 0.0376-0.01551h0.1537c0.005 0 0.0109 0.0011 0.0173 0.0035 0.007 0.0025 0.0123 0.006 0.0173 0.01081 0.005 0.0046 0.01 0.0104 0.0138 0.01662 0.004 0.0063 0.005 0.01355 0.005 0.02158v0.7516c0 0.01707-0.004 0.02988-0.0139 0.03864-0.01 0.0087-0.0228 0.01327-0.0403 0.01327h-0.1537c-0.0332 0-0.0496-0.0173-0.0496-0.0519v-0.7516zm0-0.3411c0-0.01887 0.004-0.03236 0.0122-0.04022 0.008-0.0079 0.0205-0.01163 0.0376-0.01163h0.1557c0.0156 0 0.0285 0.0038 0.038 0.01163 0.01 0.0078 0.0142 0.02136 0.0142 0.04022v0.1315c0 0.0053-0.001 0.01122-0.004 0.01752s-0.005 0.01232-0.0109 0.01819c-0.004 0.0059-0.01 0.01054-0.0163 0.01438-0.007 0.0038-0.0138 0.0059-0.0219 0.0059h-0.1557c-0.0332 0-0.0496-0.01864-0.0496-0.05593v-0.1315zm1.15 1.042c-0.0394 0.03639-0.0836 0.06471-0.1329 0.08517-0.0492 0.02045-0.1014 0.03079-0.1564 0.03079-0.0613 0-0.1192-0.01123-0.1738-0.03371-0.0547-0.02248-0.1025-0.0537-0.1436-0.09347-0.0412-0.03979-0.0739-0.0865-0.098-0.1404-0.0241-0.05394-0.0364-0.1126-0.0364-0.1759 0-0.03955 0.005-0.07798 0.0145-0.115 0.01-0.03708 0.0233-0.07167 0.0409-0.104 0.0176-0.03236 0.0391-0.06226 0.0644-0.08944 0.0254-0.02719 0.0534-0.05033 0.0847-0.06964 0.0315-0.01933 0.0652-0.03439 0.1021-0.04517 0.0367-0.01081 0.0754-0.0162 0.1161-0.0162 0.0371 0 0.0732 0.0049 0.1081 0.01484 0.035 0.0098 0.0677 0.02381 0.0984 0.04178 0.0308 0.01797 0.0585 0.03955 0.0841 0.06471 0.0255 0.02517 0.0474 0.05258 0.0657 0.08246s0.0328 0.06179 0.0428 0.09572 0.0149 0.06898 0.0149 0.1049c0 0.02336-0.00022 0.04248-0.00089 0.05731-0.00068 0.01484-0.004 0.02653-0.0109 0.03529-0.007 0.0087-0.0165 0.01483-0.0311 0.01819-0.0145 0.0034-0.036 0.0052-0.0641 0.0052h-0.4833c0.004 0.02875 0.0135 0.05281 0.0273 0.07213 0.0135 0.01931 0.0294 0.03461 0.0472 0.04607 0.0178 0.01149 0.037 0.01976 0.0571 0.0247 0.0201 0.0049 0.0391 0.0074 0.0571 0.0074 0.016 0 0.0328-0.0018 0.0498-0.0052 0.0169-0.0034 0.0336-0.0078 0.0495-0.01355 0.0158-0.0056 0.0304-0.01218 0.0436-0.01954 0.0135-0.0074 0.0236-0.01504 0.0319-0.02314 0.007-0.0059 0.0135-0.0104 0.0185-0.01327 0.005-0.0029 0.0109-0.0042 0.0163-0.0042 0.005 0 0.0122 0.002 0.0178 0.006 0.005 0.0041 0.0122 0.0098 0.0202 0.01754l0.0712 0.08088c0.005 0.0059 0.008 0.01095 0.01 0.01574 0.001 0.0046 0.003 0.0097 0.003 0.01459 0 0.009-0.003 0.01663-0.007 0.02314-0.005 0.0065-0.0109 0.01232-0.0173 0.01732zm-0.3229-0.5615c-0.0173 0-0.0343 0.0034-0.0506 0.0104s-0.0319 0.01642-0.0461 0.02807c-0.0142 0.01163-0.0272 0.02495-0.0384 0.03979-0.0109 0.01482-0.0208 0.02988-0.028 0.04517h0.343c-0.01-0.01754-0.0194-0.03371-0.0304-0.04856-0.0108-0.01484-0.0236-0.02785-0.0376-0.0391-0.0141-0.01122-0.0304-0.02-0.0484-0.0263s-0.0394-0.0094-0.0634-0.0094zm0.0109-0.5501c0.003-0.0022 0.005-0.0038 0.007-0.0046 0.00099-0.0009 0.004-0.0013 0.007-0.0013 0.004 0 0.008 0.002 0.0135 0.006l0.1725 0.1726c0.004 0.0027 0.005 0.0079 0.005 0.01551 0 0.0041-0.001 0.0083-0.005 0.01287l-0.059 0.06066c-0.005 0.0049-0.0108 0.0074-0.018 0.0074-0.005 0-0.0109-0.002-0.0146-0.006l-0.0933-0.09572-0.0953 0.09639c-0.005 0.0049-0.01 0.0067-0.0156 0.0053-0.005-0.0013-0.01-0.0038-0.0138-0.0074l-0.0603-0.05865c-0.003-0.0022-0.004-0.0046-0.004-0.0071-0.00066-0.0025-0.001-0.0049-0.001-0.0076 0-0.0035 0.00068-0.0065 0.001-0.0087 0.00099-0.0022 0.003-0.0042 0.004-0.006l0.1705-0.1732zm0.5685 0.3694c0.005-0.0049 0.0123-0.008 0.0185-0.0094 0.007-0.0013 0.0122-0.002 0.0183-0.002h0.1014c0.008 0 0.0149 0.0013 0.0207 0.0042 0.005 0.0029 0.0108 0.007 0.0146 0.01191 0.004 0.0049 0.007 0.01054 0.01 0.01687 0.003 0.0063 0.004 0.01287 0.007 0.01955l0.0208 0.08629c0.007-0.01393 0.0164-0.02988 0.0294-0.04764 0.0122-0.01774 0.029-0.03437 0.0485-0.04988 0.0195-0.01549 0.0432-0.02852 0.0702-0.03909 0.0271-0.01054 0.0584-0.01575 0.0942-0.01575 0.051 0 0.0973 0.0098 0.139 0.02965 0.04157 0.01978 0.07715 0.04674 0.1065 0.08091 0.0293 0.03415 0.05192 0.07393 0.06801 0.1196 0.01609 0.04562 0.02412 0.09437 0.02412 0.146v0.4415c0 0.01707-0.0041 0.02987-0.0109 0.03864-0.0068 0.0087-0.01921 0.01327-0.0353 0.01327h-0.1551c-0.0191 0-0.0325-0.0034-0.0395-0.0098-0.007-0.0065-0.0109-0.01909-0.0109-0.03798v-0.4388c0-0.01931-0.004-0.03774-0.0122-0.05504-0.008-0.01732-0.0202-0.03258-0.0346-0.04584-0.0142-0.01327-0.0305-0.0236-0.0485-0.03124-0.018-0.0076-0.0367-0.01149-0.0555-0.01149-0.016 0-0.0325 0.0035-0.0492 0.01081-0.0167 0.0071-0.0323 0.01707-0.0464 0.02988-0.0139 0.01287-0.0259 0.02786-0.0357 0.04517-0.01 0.01729-0.0152 0.03617-0.0165 0.0564v0.4382c0 0.0076-0.00099 0.01526-0.004 0.02293-0.003 0.0076-0.007 0.01341-0.0135 0.01752-0.005 0.0035-0.0109 0.006-0.0163 0.0074-0.005 0.0013-0.0109 0.002-0.0178 0.002h-0.1517c-0.0191 0-0.0331-0.0048-0.0416-0.01416-0.008-0.0094-0.0122-0.02203-0.0122-0.03774v-0.7543c0-0.0085 0.00099-0.0164 0.005-0.02358 0.004-0.0072 0.01-0.01286 0.0156-0.01687l-0.004 0.002zm1.485 0.5811c0.0068-0.0045 0.01227-0.0074 0.01785-0.0085 0.0055-0.0011 0.0095-0.0015 0.01227-0.0015 0.0082 0 0.01459 0.0015 0.02086 0.0046 0.0068 0.0031 0.01227 0.0098 0.01949 0.02022l0.07509 0.1139c0.0027 0.0035 0.0041 0.0076 0.0068 0.01218 0.0027 0.0045 0.0027 0.008 0.0027 0.01081 0 0.0104-0.0027 0.01867-0.0095 0.02517s-0.01362 0.01232-0.02127 0.0173c-0.03665 0.02563-0.07674 0.04607-0.1203 0.06158-0.04362 0.01549-0.08995 0.02338-0.1387 0.02338-0.04035 0-0.07891-0.0052-0.1164-0.01551-0.03735-0.0104-0.07224-0.02517-0.1045-0.04427-0.03217-0.01909-0.06173-0.04202-0.08859-0.06875-0.02685-0.02675-0.04962-0.0564-0.06842-0.08922-0.0188-0.03281-0.03339-0.06831-0.04389-0.1063-0.0109-0.03798-0.01595-0.07753-0.01595-0.1189 0-0.04133 0.0055-0.08111 0.01595-0.1193 0.0109-0.03819 0.02507-0.07369 0.04389-0.1063 0.01881-0.03258 0.04156-0.06224 0.06842-0.08898s0.05642-0.04943 0.08859-0.0683c0.03216-0.01888 0.06706-0.03348 0.1045-0.04382 0.03735-0.0104 0.07606-0.01551 0.1164-0.01551 0.0488 0 0.09392 0.0065 0.1353 0.01955 0.04143 0.013 0.08015 0.03236 0.1164 0.05798l-0.0027-0.002c0.0095 0.0059 0.01771 0.01259 0.02344 0.02045 0.0055 0.0079 0.0082 0.01777 0.0082 0.02945 0 0.008-0.0027 0.0164-0.0082 0.02492l-0.05969 0.1018c-0.01227 0.02203-0.0278 0.03303-0.04565 0.03303-0.0041 0-0.0095-0.0011-0.01472-0.0031-0.0055-0.002-0.01227-0.0053-0.0195-0.0104-0.01963-0.013-0.04075-0.02381-0.06338-0.03213-0.02262-0.0083-0.04674-0.01232-0.07224-0.01232-0.02821 0-0.05412 0.0056-0.07783 0.01707-0.02371 0.01149-0.04389 0.0272-0.06065 0.04696-0.01677 0.01976-0.02998 0.04268-0.03939 0.06876-0.0095 0.02607-0.01417 0.05348-0.01417 0.08224 0 0.02965 0.0055 0.0573 0.01417 0.08314 0.0095 0.02585 0.02262 0.04833 0.03939 0.0672s0.03693 0.03371 0.06065 0.04472c0.02371 0.01095 0.04975 0.01662 0.07783 0.01662 0.02549 0 0.04948-0.0045 0.07183-0.01355 0.02235-0.009 0.04362-0.02045 0.06379-0.03436zm0.2826-0.54c0-0.01439 0.0041-0.02674 0.01227-0.03707 0.0082-0.0104 0.02058-0.01551 0.03762-0.01551h0.1537c0.0055 0 0.0109 0.0011 0.01745 0.0035 0.0068 0.0025 0.01227 0.006 0.01744 0.01081 0.0055 0.0046 0.0095 0.0104 0.0139 0.01662 0.0041 0.0063 0.0055 0.01355 0.0055 0.02158v0.7516c0 0.01707-0.0041 0.02988-0.01404 0.03864-0.0095 0.0087-0.02289 0.01327-0.04034 0.01327h-0.1537c-0.03312 0-0.04962-0.0173-0.04962-0.0519v-0.7516zm0-0.3411c0-0.01887 0.0041-0.03236 0.01227-0.04022 0.0082-0.0079 0.02058-0.01163 0.03762-0.01163h0.1557c0.01568 0 0.02848 0.0038 0.03803 0.01163 0.0095 0.0078 0.01431 0.02136 0.01431 0.04022v0.1315c0 0.0053-0.0011 0.01122-0.0041 0.01752-0.0027 0.0063-0.0055 0.01232-0.0109 0.01819-0.0041 0.0059-0.0095 0.01054-0.01636 0.01438-0.0068 0.0038-0.0139 0.0059-0.02195 0.0059h-0.1557c-0.03312 0-0.04962-0.01864-0.04962-0.05593v-0.1315zm1.296 1.095c0 0.0076-0.0013 0.01483-0.0041 0.0218-0.0027 0.007-0.0072 0.01259-0.01335 0.01662-0.0049 0.0049-0.01076 0.008-0.01745 0.0094-0.0067 0.0013-0.01254 0.002-0.01745 0.002h-0.1322c-0.0094 0-0.017-0.0013-0.0228-0.0038-0.0059-0.0025-0.0105-0.0059-0.01411-0.0104-0.0035-0.0045-0.0065-0.01013-0.009-0.01662-0.0025-0.0065-0.0052-0.01355-0.0079-0.02113l-0.01946-0.05055c-0.01213 0.01218-0.02527 0.02492-0.0396 0.03864-0.01433 0.01371-0.02998 0.02651-0.04721 0.03819-0.01723 0.01164-0.03601 0.02135-0.05614 0.02922-0.02013 0.0078-0.0416 0.01191-0.06444 0.01191-0.04073 0-0.07966-0.0052-0.117-0.01551-0.03737-0.0104-0.07227-0.02516-0.1047-0.04427-0.03244-0.01909-0.06201-0.04201-0.08845-0.06874-0.02645-0.02675-0.04907-0.0564-0.06801-0.08922-0.01894-0.03281-0.03379-0.06832-0.04403-0.1063-0.0109-0.03798-0.0154-0.07753-0.0154-0.1189 0-0.06246 0.0109-0.1207 0.03421-0.1744 0.02276-0.05369 0.05398-0.1004 0.09322-0.1402 0.03939-0.03977 0.08573-0.07101 0.139-0.09369 0.05325-0.0227 0.1103-0.03393 0.1712-0.03393 0.02773 0 0.05325 0.0041 0.07653 0.01232 0.02325 0.0083 0.04452 0.01931 0.06354 0.03281 0.01901 0.01355 0.03623 0.02875 0.05168 0.04584 0.01542 0.01707 0.02907 0.03439 0.04115 0.0519l0.02618-0.08155c0.0045-0.01122 0.0083-0.02046 0.01117-0.02743 0.0029-0.007 0.006-0.01218 0.0094-0.01549 0.0034-0.0034 0.0074-0.0056 0.01227-0.0067 0.0049-0.0011 0.01186-0.0016 0.02082-0.0016h0.1c0.0049 0 0.01076 0.000675 0.01744 0.002 0.0067 0.0013 0.01254 0.0045 0.01745 0.0094 0.0063 0.0049 0.01076 0.01054 0.01335 0.01687 0.0027 0.0063 0.0041 0.01341 0.0041 0.02158v0.7597zm-0.6612-0.3775c0 0.02966 0.0055 0.05731 0.0139 0.08314 0.0095 0.02585 0.02209 0.04833 0.03912 0.0672 0.01702 0.01887 0.03761 0.03371 0.06153 0.04472 0.02394 0.01095 0.05036 0.01662 0.07943 0.01662 0.02997 0 0.05795-0.0056 0.08367-0.01662 0.02574-0.01095 0.04812-0.02585 0.06712-0.04472 0.01901-0.01887 0.03378-0.04133 0.04453-0.0672 0.01076-0.02584 0.01609-0.05348 0.01609-0.08314 0-0.02875-0.0053-0.05617-0.01609-0.08224-0.01076-0.02608-0.02551-0.04899-0.04453-0.06876-0.01901-0.01976-0.04138-0.03551-0.06712-0.04696-0.02573-0.01149-0.0537-0.01707-0.08367-0.01707-0.02908 0-0.05548 0.0056-0.07943 0.01707-0.02393 0.01149-0.04452 0.0272-0.06153 0.04696-0.01704 0.01976-0.02998 0.04269-0.03912 0.06876-0.0095 0.02606-0.0139 0.05349-0.0139 0.08224zm0.9498 0.1611c0.01213 0.01218 0.02528 0.02224 0.03939 0.03055 0.01407 0.0083 0.02752 0.01506 0.0405 0.02022 0.01294 0.0052 0.02439 0.009 0.03423 0.01122 0.0098 0.0022 0.01655 0.0034 0.02013 0.0034 0.0085 0 0.01946-0.000451 0.03267-0.0011 0.01322-0.000677 0.02573-0.0027 0.03781-0.006 0.01213-0.0034 0.02259-0.0087 0.03133-0.0164 0.0087-0.0076 0.01295-0.01842 0.01295-0.03236 0-0.01259-0.0025-0.02269-0.0074-0.03011-0.0049-0.0074-0.01213-0.01371-0.02149-0.01887-0.0094-0.0052-0.02082-0.0097-0.03445-0.01371-0.01366-0.0041-0.02908-0.0087-0.04609-0.01416-0.0537-0.01438-0.09797-0.03169-0.1329-0.0519-0.0349-0.02022-0.06242-0.04291-0.08278-0.06787-0.02036-0.02492-0.03469-0.05167-0.04274-0.08043-0.008-0.02875-0.01213-0.05911-0.01213-0.09101 0-0.03729 0.0074-0.07122 0.02215-0.1018 0.01477-0.03055 0.03579-0.05685 0.06309-0.07865 0.02728-0.02179 0.05995-0.03865 0.098-0.05055 0.03803-0.01191 0.08031-0.01774 0.1269-0.01774 0.02818 0 0.05461 0.0022 0.07918 0.007 0.0246 0.0048 0.04811 0.01218 0.07049 0.02224 0.02238 0.01013 0.04429 0.02314 0.06554 0.0391s0.04228 0.03506 0.06334 0.05707c0.0076 0.009 0.01158 0.0173 0.01186 0.02517 0.000224 0.0078-0.0049 0.0164-0.01522 0.02538-0.01745 0.01439-0.03401 0.02855-0.04989 0.04246-0.01589 0.01394-0.03244 0.02942-0.04947 0.04652-0.0053 0.0045-0.01076 0.0071-0.0161 0.0083-0.0055 0.0011-0.01049 0.0011-0.01544-0.000225-0.0049-0.0013-0.0097-0.0035-0.01411-0.0067-0.0045-0.0031-0.0085-0.007-0.012-0.01149-0.01567-0.01754-0.03357-0.02942-0.05371-0.0355-0.02016-0.006-0.03894-0.009-0.05638-0.009-0.02194 0-0.03938 0.0038-0.05236 0.0115-0.01294 0.0076-0.01901 0.01932-0.01811 0.03505 0.000877 0.01164 0.0053 0.02067 0.01321 0.02719 0.0079 0.0065 0.01746 0.01191 0.02888 0.01596 0.01145 0.004 0.02348 0.0071 0.03623 0.0097 0.01282 0.0025 0.02439 0.0053 0.03514 0.0085 0.04028 0.013 0.0772 0.02719 0.1107 0.04246 0.03356 0.01529 0.06267 0.03393 0.08727 0.05617s0.04386 0.04898 0.0575 0.07997c0.01365 0.03101 0.02036 0.06876 0.02036 0.1133 0 0.04448-0.0087 0.08426-0.02642 0.1193-0.01766 0.03505-0.04205 0.06448-0.07293 0.08831-0.03087 0.02381-0.06733 0.04201-0.1096 0.0546-0.04229 0.01259-0.08793 0.01887-0.1367 0.01887-0.02773 0-0.05592-0.0025-0.08457-0.0074-0.02863-0.0049-0.05637-0.013-0.08322-0.02404-0.02683-0.01095-0.05234-0.02515-0.07653-0.04245-0.02415-0.01729-0.04563-0.03819-0.06443-0.06291-0.0049-0.0063-0.0085-0.013-0.0109-0.02-0.0025-0.007-0.0035-0.01371-0.0034-0.02045 0.000224-0.0067 0.0016-0.013 0.004-0.01864 0.0025-0.0056 0.0063-0.0104 0.01158-0.01439l0.08659-0.08695c0.01076-0.009 0.02036-0.01218 0.02863-0.0094 0.0083 0.0027 0.0188 0.0104 0.03177 0.02293z" class="fil0" fill="#fff"/><path d="m-95.69-37.04c0-0.0095 0.0025-0.0174 0.0076-0.02312 0.0051-0.0057 0.01261-0.0084 0.02267-0.0084h0.4392c0.0316 0 0.0614 0.0044 0.08936 0.01306 0.02795 0.0086 0.05361 0.02061 0.07698 0.03595 0.02336 0.01536 0.04444 0.03367 0.06325 0.05497 0.01877 0.02131 0.03482 0.04445 0.04788 0.06919 0.01306 0.02475 0.0229 0.05063 0.02976 0.07788 0.0069 0.02729 0.01031 0.05497 0.01031 0.08294 0 0.04123-0.0073 0.08156-0.0222 0.121-0.0149 0.0394-0.03619 0.07445-0.06371 0.1052-0.02749 0.03069-0.0605 0.05542-0.09898 0.07445-0.03848 0.01901-0.08111 0.02886-0.1278 0.02931h-0.2083v0.3271c0 0.0197-0.01054 0.02954-0.0316 0.02954h-0.2042c-0.0091 0-0.01649-0.0025-0.02199-0.0073s-0.0081-0.01215-0.0081-0.02221v-0.9594zm0.5176 0.301c0-0.01374-0.0023-0.02749-0.0071-0.04123-0.0048-0.01375-0.01192-0.02611-0.02109-0.03687-0.0091-0.01076-0.02016-0.01947-0.03321-0.02635-0.01305-0.0069-0.02796-0.01031-0.04444-0.01031h-0.1457v0.2295h0.1457c0.01649 0 0.03139-0.0034 0.04467-0.01007 0.01328-0.0066 0.02451-0.01513 0.03343-0.02565 0.0088-0.01053 0.01581-0.02267 0.02062-0.03643 0.0048-0.01374 0.0071-0.02796 0.0071-0.04261zm1.201 0.6763c-0.006 0.0051-0.01215 0.0082-0.01878 0.0095-0.0066 0.0014-0.01305 0.0021-0.01902 0.0021h-0.1038c-0.0082 0-0.01536-0.0016-0.02131-0.0045-0.006-0.003-0.01099-0.0069-0.01513-0.01192-0.0041-0.0051-0.0076-0.01075-0.01031-0.01718-0.0027-0.0064-0.0051-0.01305-0.0069-0.01992l-0.02131-0.08798c-0.0069 0.01419-0.01673 0.03024-0.02978 0.04834-0.01306 0.01811-0.02976 0.03505-0.04994 0.05085-0.02016 0.01581-0.04422 0.0291-0.07219 0.03986-0.02796 0.01075-0.06005 0.01626-0.09623 0.01626-0.05223 0-0.09968-0.01007-0.1423-0.03022-0.04261-0.02016-0.07883-0.04765-0.1088-0.08248-0.03001-0.03482-0.05338-0.0756-0.06989-0.1221-0.01649-0.0465-0.02475-0.096-0.02475-0.1487v-0.4502c0-0.01738 0.0039-0.03069 0.01145-0.03963 0.0076-0.0088 0.01947-0.01328 0.03597-0.01328h0.1588c0.0197 0 0.03321 0.0032 0.04056 0.0097 0.0073 0.0066 0.01098 0.0197 0.01098 0.03894v0.4474c0 0.0197 0.0045 0.03825 0.01352 0.05589 0.0088 0.01764 0.02061 0.03321 0.03527 0.04673s0.03138 0.0243 0.04993 0.03207c0.01856 0.0078 0.03734 0.01169 0.05661 0.01169 0.01649 0 0.03366-0.0039 0.05133-0.01169 0.01765-0.0078 0.03391-0.01833 0.04879-0.03139 0.0149-0.01305 0.02702-0.02842 0.03664-0.04606 0.0095-0.01763 0.01444-0.03618 0.01444-0.05588v-0.4467c0-0.0078 0.0016-0.01557 0.0045-0.02336 0.003-0.0078 0.0073-0.01375 0.01329-0.01787 0.0059-0.0037 0.01169-0.0062 0.01695-0.0076 0.0052-0.0014 0.01123-0.0021 0.0181-0.0021h0.1553c0.0197 0 0.03391 0.0048 0.0426 0.01446 0.0086 0.0095 0.01305 0.02244 0.01305 0.03848v0.7691c0 0.0086-0.0018 0.01671-0.0058 0.02404-0.0039 0.0073-0.0093 0.01305-0.01626 0.01716l0.0041-0.0021zm-0.4557-1.136c0.0023-0.01053 0.0071-0.0181 0.01419-0.02244 0.0071-0.0044 0.01445-0.0064 0.02222-0.0064h0.1773c0.0069 0 0.01214 0.0014 0.01557 0.0041 0.0034 0.0027 0.0058 0.0062 0.0069 0.01031 0.0011 0.0041 0.0011 0.0086 0.000224 0.01396-0.000944 0.0052-0.0025 0.01053-0.0048 0.01557l-0.06737 0.1478c-0.0055 0.01008-0.01075 0.0174-0.01603 0.02199-0.0052 0.0045-0.01238 0.0069-0.02109 0.0069h-0.1505c-0.0069 0-0.01147-0.0018-0.01396-0.0055-0.0025-0.0037-0.0039-0.008-0.0039-0.01305 0-0.0051 0.000681-0.01052 0.0021-0.01649 0.0014-0.0059 0.0025-0.011 0.0034-0.01512l0.03573-0.1416zm0.8544 1.095c-0.0041 0.0086-0.0076 0.01626-0.01031 0.0229-0.0027 0.0066-0.0058 0.01215-0.0091 0.01649-0.0034 0.0044-0.0078 0.0078-0.01283 0.01008-0.0051 0.0023-0.01191 0.0034-0.02061 0.0034h-0.1361c-0.03664 0-0.05497-0.01763-0.05497-0.05289v-1.027c0-0.0078 0.0016-0.0149 0.0045-0.02131 0.003-0.0064 0.0069-0.01192 0.01169-0.01649 0.0048-0.0045 0.01032-0.0081 0.01649-0.01076 0.0062-0.0025 0.01215-0.0037 0.01811-0.0037h0.156c0.01741 0 0.03116 0.0051 0.04125 0.01512 0.01008 0.01008 0.01512 0.02244 0.01512 0.03712v0.3134c0.01283-0.01373 0.02657-0.02772 0.04123-0.04192 0.01468-0.01419 0.03071-0.02726 0.04789-0.03893 0.01717-0.01169 0.03597-0.02108 0.0566-0.02842 0.02061-0.0073 0.04352-0.011 0.06875-0.011 0.06231 0 0.1198 0.01147 0.1723 0.0346 0.05246 0.02314 0.09763 0.05497 0.1354 0.09553 0.0378 0.04056 0.06735 0.08821 0.08867 0.143 0.02131 0.05475 0.03184 0.1141 0.03184 0.1778 0 0.06324-0.01054 0.1223-0.03184 0.1773-0.02131 0.05496-0.05085 0.1026-0.08867 0.1432-0.0378 0.04055-0.08295 0.07262-0.1354 0.09598-0.05246 0.02337-0.11 0.03505-0.1723 0.03505-0.02337 0-0.04535-0.0041-0.066-0.01215-0.02062-0.008-0.03986-0.01811-0.05773-0.03045-0.01787-0.01238-0.03437-0.02566-0.0495-0.03986-0.01512-0.0142-0.02885-0.0275-0.04123-0.03985l-0.01924 0.05362zm0.4145-0.3828c0-0.02932-0.0045-0.05729-0.01396-0.08386-0.0093-0.02657-0.0229-0.04995-0.04032-0.07011-0.01742-0.02015-0.03826-0.03619-0.06257-0.04788-0.0243-0.01169-0.05154-0.0174-0.0818-0.0174-0.03023 0-0.05843 0.0057-0.08479 0.0174-0.02633 0.01169-0.04926 0.02773-0.06849 0.04788-0.01924 0.02016-0.03438 0.04352-0.04559 0.07011-0.01123 0.02657-0.01695 0.05454-0.01695 0.08386v0.0095c0.0014 0.02886 0.008 0.05591 0.0197 0.08108 0.01169 0.02521 0.02702 0.04697 0.04627 0.06554 0.01923 0.01856 0.04169 0.03321 0.06736 0.04375 0.02565 0.01054 0.05316 0.01581 0.08249 0.01581 0.03024 0 0.05751-0.0057 0.0818-0.01695 0.02428-0.01122 0.04513-0.02633 0.06257-0.04557 0.0174-0.01924 0.03093-0.04214 0.0403-0.0685 0.0093-0.02633 0.01396-0.05452 0.01396-0.08477zm0.3863-0.644c0-0.01468 0.0037-0.02704 0.01098-0.03712 0.0073-0.01008 0.01994-0.01512 0.03781-0.01512h0.1684c0.0045 0 0.0093 0.0011 0.01444 0.0037 0.0051 0.0025 0.0097 0.0062 0.0142 0.01076 0.0044 0.0045 0.008 0.01007 0.01097 0.01649 0.003 0.0064 0.0044 0.01352 0.0044 0.02131v1.027c0 0.0174-0.0048 0.03045-0.01468 0.0394-0.0097 0.0088-0.02267 0.01352-0.03826 0.01352h-0.1595c-0.01788 0-0.03047-0.0045-0.03781-0.01352-0.0073-0.0088-0.01097-0.02199-0.01097-0.0394v-1.027zm0.4255 0.2605c0-0.01469 0.0041-0.02728 0.01238-0.03781 0.0082-0.01051 0.02108-0.01579 0.03848-0.01579h0.1574c0.0055 0 0.01147 0.0011 0.01788 0.0037 0.0064 0.0025 0.01236 0.0062 0.01787 0.01098 0.0055 0.0048 0.01031 0.01054 0.0142 0.01695 0.0039 0.0064 0.0058 0.01375 0.0058 0.022v0.7663c0 0.0174-0.0048 0.03045-0.01444 0.0394-0.0095 0.0088-0.02336 0.01352-0.04123 0.01352h-0.1574c-0.03391 0-0.05085-0.01763-0.05085-0.05289v-0.7663zm0-0.3478c0-0.01924 0.0041-0.03298 0.01238-0.04101 0.0082-0.008 0.02108-0.01191 0.03848-0.01191h0.1595c0.01603 0 0.02909 0.0039 0.03894 0.01191 0.0097 0.0081 0.01467 0.02177 0.01467 0.04101v0.134c0 0.0055-0.0011 0.01146-0.0037 0.01787-0.0025 0.0064-0.0062 0.01261-0.01075 0.01857-0.0045 0.0059-0.01008 0.01075-0.01671 0.01465-0.0066 0.0039-0.0142 0.0059-0.02245 0.0059h-0.1595c-0.03391 0-0.05085-0.01901-0.05085-0.05705v-0.134zm0.9877 0.8983c0.0064-0.0045 0.0126-0.0076 0.01833-0.0086 0.0058-0.0011 0.01008-0.0016 0.01329-0.0016 0.0078 0 0.01489 0.0016 0.02131 0.0048 0.0064 0.0032 0.01305 0.01008 0.01992 0.0206l0.07698 0.1162c0.0023 0.0037 0.0045 0.0078 0.0066 0.01236 0.0021 0.0045 0.003 0.0082 0.003 0.01098 0 0.01053-0.0032 0.01901-0.0097 0.02565-0.0066 0.0066-0.01396 0.0126-0.02177 0.01765-0.03758 0.02611-0.07862 0.04697-0.1233 0.06277-0.04468 0.01581-0.09211 0.02382-0.1421 0.02382-0.04123 0-0.08087-0.0052-0.1191-0.01581-0.03827-0.01054-0.07401-0.02565-0.107-0.04512-0.03298-0.01947-0.06323-0.04284-0.09071-0.07011-0.0275-0.02728-0.05089-0.05752-0.07012-0.09094-0.01924-0.03346-0.03414-0.06965-0.0449-0.1084-0.01075-0.03871-0.01626-0.07903-0.01626-0.1212 0-0.04214 0.0055-0.08271 0.01626-0.1217 0.01075-0.03893 0.02565-0.07513 0.0449-0.1084 0.01923-0.03322 0.0426-0.06346 0.07012-0.09072 0.02748-0.02726 0.05773-0.0504 0.09071-0.06965 0.03299-0.01923 0.06872-0.03413 0.107-0.04467 0.03825-0.01054 0.07789-0.01581 0.1191-0.01581 0.04994 0 0.09623 0.0066 0.1386 0.01993 0.04236 0.01329 0.08203 0.03299 0.1191 0.0591l-0.0021-0.0021c0.01008 0.0059 0.0181 0.01283 0.02405 0.02086 0.0059 0.008 0.0088 0.0181 0.0088 0.03001 0 0.0081-0.0027 0.01671-0.0082 0.02541l-0.06118 0.1038c-0.01282 0.02244-0.0284 0.03367-0.04673 0.03367-0.0041 0-0.0091-0.0011-0.01513-0.0032-0.0059-0.0021-0.0126-0.0055-0.01992-0.01053-0.02015-0.01328-0.04169-0.02429-0.06484-0.03275-0.02314-0.0084-0.04789-0.0126-0.074-0.0126-0.02886 0-0.05546 0.0058-0.07974 0.01742-0.02426 0.01169-0.0449 0.02773-0.0621 0.04789-0.01717 0.02016-0.0307 0.04352-0.04032 0.07011-0.0095 0.02657-0.0144 0.05453-0.0144 0.08385 0 0.03023 0.0048 0.05841 0.0144 0.08478 0.0095 0.02635 0.02314 0.04925 0.04032 0.0685 0.01716 0.01924 0.0378 0.03437 0.0621 0.04557 0.02429 0.01123 0.05085 0.01695 0.07974 0.01695 0.02611 0 0.05063-0.0045 0.07355-0.01373 0.02292-0.0091 0.04468-0.02086 0.0653-0.03505zm1.16 0.2179c0 0.0078-0.0014 0.01512-0.0041 0.02222s-0.0073 0.01282-0.01374 0.01694c-0.0051 0.0051-0.01098 0.0082-0.01788 0.0095-0.0069 0.0014-0.01283 0.0021-0.01788 0.0021h-0.1354c-0.0095 0-0.01742-0.0014-0.02337-0.0039-0.0059-0.0025-0.01075-0.0059-0.01445-0.01053-0.0037-0.0045-0.0066-0.01031-0.0091-0.01695-0.0025-0.0066-0.0052-0.01374-0.008-0.02154l-0.01992-0.05154c-0.01238 0.01238-0.02589 0.02543-0.04056 0.03939s-0.03071 0.02703-0.04834 0.03894c-0.01766 0.01192-0.03689 0.02177-0.05752 0.02978-0.02061 0.008-0.0426 0.01215-0.066 0.01215-0.04169 0-0.08157-0.0052-0.1198-0.01581-0.03826-0.01053-0.07401-0.02565-0.1072-0.04512-0.03322-0.01947-0.06347-0.04284-0.09049-0.07011-0.02701-0.02728-0.05018-0.05752-0.06966-0.09095-0.01947-0.03344-0.0346-0.06965-0.04514-0.1084-0.01054-0.03871-0.01579-0.07903-0.01579-0.1212 0-0.0637 0.01169-0.123 0.03504-0.1778 0.02336-0.05475 0.05522-0.1024 0.09555-0.143 0.04031-0.04054 0.08775-0.07239 0.1423-0.09552 0.05452-0.02314 0.1129-0.0346 0.1753-0.0346 0.02842 0 0.05452 0.0041 0.07836 0.0126 0.02382 0.0084 0.0456 0.0197 0.06508 0.03343 0.01946 0.01373 0.03712 0.02931 0.05293 0.04673 0.01581 0.01741 0.02978 0.03505 0.04216 0.05291l0.0268-0.08316c0.0045-0.01148 0.0084-0.02086 0.01147-0.02795 0.003-0.0071 0.0062-0.01238 0.0095-0.01581 0.0034-0.0034 0.0076-0.0057 0.0126-0.0069 0.0051-0.0011 0.01215-0.0016 0.02131-0.0016h0.1024c0.0051 0 0.01098 0.000682 0.01788 0.0021 0.0069 0.0014 0.01282 0.0045 0.01788 0.0095 0.0064 0.0051 0.01098 0.01075 0.01373 0.01716 0.0027 0.0064 0.0041 0.01375 0.0041 0.022v0.7746zm-0.677-0.3849c0 0.03022 0.0048 0.05842 0.01419 0.08477 0.0093 0.02635 0.02268 0.04926 0.04009 0.0685 0.01739 0.01924 0.03848 0.03437 0.06302 0.04557 0.02452 0.0112 0.05155 0.01694 0.08132 0.01694 0.0307 0 0.0593-0.0058 0.08569-0.01694 0.02635-0.01124 0.04925-0.02633 0.06874-0.04557 0.01947-0.01924 0.0346-0.04214 0.04559-0.0685 0.01101-0.02633 0.01649-0.05452 0.01649-0.08477 0-0.02932-0.0055-0.05728-0.01649-0.08385s-0.02611-0.04995-0.04559-0.07011c-0.01947-0.02014-0.04237-0.03619-0.06874-0.04789-0.02633-0.01169-0.05497-0.01741-0.08569-0.01741-0.02976 0-0.05683 0.0058-0.08132 0.01741-0.02452 0.01169-0.04557 0.02773-0.06302 0.04789-0.0174 0.02016-0.03071 0.04353-0.04009 0.07011-0.0093 0.02657-0.01419 0.05452-0.01419 0.08385zm0.9726 0.1643c0.01236 0.01236 0.02588 0.02267 0.04032 0.03116 0.01445 0.0084 0.02818 0.01535 0.04147 0.02062 0.01328 0.0052 0.02497 0.0091 0.03504 0.01145 0.01008 0.0023 0.01695 0.0034 0.02061 0.0034 0.0086 0 0.01992-0.00046 0.03343-0.0011 0.01352-0.000681 0.02635-0.0027 0.03871-0.0062 0.01238-0.0034 0.02314-0.0088 0.03207-0.01671 0.0088-0.0078 0.01328-0.01879 0.01328-0.03299 0-0.01282-0.0025-0.02312-0.0076-0.03069-0.0051-0.0076-0.01236-0.01396-0.02199-0.01924-0.0095-0.0052-0.02131-0.0097-0.03528-0.01396-0.01396-0.0041-0.02978-0.0088-0.04722-0.01443-0.05496-0.01467-0.1003-0.03229-0.1361-0.05291-0.03573-0.02062-0.06393-0.04377-0.08478-0.06919-0.02085-0.02543-0.03551-0.05269-0.04377-0.08203-0.0082-0.02931-0.01238-0.06025-0.01238-0.09278 0-0.03802 0.0076-0.07262 0.02268-0.1038 0.01513-0.03117 0.03666-0.05796 0.06461-0.08019 0.02796-0.02222 0.06139-0.0394 0.1004-0.05154 0.03893-0.01215 0.08225-0.0181 0.1299-0.0181 0.02886 0 0.05589 0.0023 0.08111 0.0071 0.0252 0.0048 0.04925 0.01238 0.07219 0.02268 0.02292 0.01032 0.04536 0.02359 0.06714 0.03986 0.02177 0.01626 0.04328 0.03573 0.06484 0.05818 0.0078 0.0091 0.01192 0.01767 0.01214 0.02565 0.000236 0.008-0.0051 0.01673-0.01557 0.02589-0.01788 0.01466-0.03482 0.02909-0.0511 0.04329-0.01626 0.01419-0.0332 0.03001-0.05063 0.04742-0.0055 0.0045-0.01097 0.0073-0.01649 0.0084-0.0055 0.0011-0.01076 0.0011-0.01581-0.000235-0.0051-0.0014-0.0098-0.0037-0.01444-0.0069-0.0045-0.0032-0.0086-0.0071-0.01238-0.01169-0.01603-0.01788-0.03437-0.03001-0.05497-0.03619-0.02062-0.0062-0.03987-0.0091-0.05774-0.0091-0.02244 0-0.04032 0.0039-0.05362 0.01169-0.01328 0.0078-0.01946 0.0197-0.01856 0.03573 0.000944 0.01192 0.0055 0.02109 0.01352 0.02773 0.008 0.0066 0.01788 0.01214 0.02954 0.01626 0.01169 0.0041 0.02405 0.0073 0.03711 0.0098 0.01305 0.0025 0.02497 0.0055 0.03595 0.0086 0.04125 0.01328 0.07906 0.02772 0.1134 0.0433 0.03437 0.01557 0.06414 0.0346 0.08936 0.05728 0.02519 0.02268 0.04488 0.04994 0.05886 0.08156 0.01396 0.03162 0.02084 0.07011 0.02084 0.1155 0 0.04535-0.0088 0.08592-0.02701 0.1217-0.01811 0.03573-0.04306 0.06576-0.0747 0.09003-0.03161 0.02428-0.06899 0.04284-0.1123 0.05566-0.0433 0.01283-0.09004 0.01924-0.14 0.01924-0.0284 0-0.05728-0.0025-0.08661-0.0076-0.02931-0.0051-0.05773-0.01328-0.08524-0.02451-0.0275-0.01124-0.05362-0.02565-0.07836-0.04329-0.02475-0.01763-0.04674-0.03893-0.06599-0.06416-0.0051-0.0064-0.0086-0.01328-0.01122-0.02038-0.0025-0.0071-0.0037-0.01396-0.0034-0.02086 0.000237-0.0069 0.0016-0.01328 0.0041-0.01901 0.0025-0.0058 0.0064-0.01053 0.01191-0.01468l0.08869-0.08866c0.01099-0.0091 0.02086-0.01238 0.02931-0.0095 0.0084 0.0027 0.01924 0.01054 0.03254 0.02337z" class="fil1" fill="#f8c300"/></g></svg>
