<?xml version="1.0" encoding="UTF-8" standalone="no"?>
<svg xmlns:rdf="http://www.w3.org/1999/02/22-rdf-syntax-ns#" xmlns="http://www.w3.org/2000/svg" xml:space="preserve" height="512" width="512" version="1.1" xmlns:cc="http://creativecommons.org/ns#" xmlns:dc="http://purl.org/dc/elements/1.1/" viewBox="0 0 512 511.90111"><g fill-rule="evenodd" fill="#fff"><path d="m171.5 334.1c-0.009-0.008-0.0122-0.0213-0.0215-0.0293l-0.0156 0.0605c0.013-0.01 0.0241-0.0216 0.0371-0.0312z"/><path d="m112 203.9c0.2276-0.1333 0.471-0.247 0.6582-0.4277 0.299-0.2886 0.5418-0.6321 0.709-1.014 0.1672-0.3816 0.2598-0.8017 0.2598-1.242 0-0.4398-0.0925-0.859-0.2598-1.24-0.1672-0.3812-0.4099-0.7233-0.709-1.012-0.1873-0.1806-0.4306-0.2945-0.6582-0.4277v5.363z"/><path d="m144.5 496.2 18.6-123.8h2.531c1.21 0 2.366-0.2385 3.418-0.6699s2.003-1.056 2.801-1.826c0.7978-0.7699 1.444-1.686 1.891-2.701 0.4471-1.015 0.6953-2.131 0.6953-3.299v-23.6c0-1.249-0.2839-2.437-0.791-3.508-0.5019-1.06-1.229-2.001-2.113-2.775-0.013 0.01-0.0241 0.0216-0.0371 0.0312l0.0156-0.0605c0.009 0.008 0.0123 0.0212 0.0215 0.0293 2.656-1.969 5.207-4.064 7.639-6.281 2.443-2.228 4.769-4.577 6.965-7.035 2.196-2.459 4.263-5.027 6.191-7.697s3.718-5.441 5.357-8.303c1.64-2.862 3.13-5.817 4.461-8.852s2.502-6.151 3.504-9.34 1.833-6.449 2.484-9.771c0.6516-3.323 1.123-6.709 1.404-10.15h8.629c0.8069 0 1.576-0.1595 2.277-0.4473 0.7014-0.2878 1.333-0.7033 1.865-1.217 0.5318-0.5135 0.9637-1.124 1.262-1.801 0.298-0.6771 0.4629-1.421 0.4629-2.199 0-0.7786-0.1649-1.522-0.4629-2.199-0.298-0.6769-0.7299-1.288-1.262-1.801-0.5318-0.5132-1.164-0.9293-1.865-1.217-0.7014-0.2875-1.47-0.4453-2.277-0.4453h-8.4c-0.1277-3.148-0.4156-6.257-0.8555-9.318s-1.033-6.075-1.77-9.035c-0.7369-2.96-1.618-5.866-2.637-8.711-1.019-2.844-2.174-5.628-3.459-8.342s-2.7-5.359-4.236-7.928-3.194-5.062-4.967-7.471c-1.772-2.409-3.659-4.733-5.652-6.967s-4.092-4.379-6.291-6.424-4.496-3.991-6.885-5.832-4.87-3.575-7.434-5.197-5.212-3.131-7.936-4.52c-2.724-1.388-5.524-2.657-8.393-3.797-2.868-1.14-5.805-2.152-8.803-3.029-2.998-0.8772-6.056-1.619-9.168-2.219-3.112-0.5995-6.276-1.056-9.486-1.363-3.211-0.3071-6.468-0.4648-9.762-0.4648v10.49c2.92 0.00019 5.806 0.1388 8.652 0.4102 2.849 0.2716 5.659 0.6769 8.42 1.207 2.761 0.5302 5.474 1.185 8.135 1.961 2.661 0.7758 5.268 1.671 7.814 2.68 2.546 1.008 5.032 2.131 7.451 3.359s4.771 2.563 7.049 3.998 4.48 2.969 6.604 4.598c2.123 1.629 4.166 3.352 6.121 5.162s3.824 3.706 5.598 5.684 3.454 4.037 5.033 6.17 3.057 4.339 4.428 6.613c1.371 2.275 2.636 4.618 3.785 7.021 1.149 2.404 2.184 4.869 3.098 7.389s1.708 5.094 2.373 7.717c0.6655 2.623 1.202 5.295 1.605 8.008 0.4034 2.713 0.6728 5.467 0.8008 8.258h-86.97v11.33h86.71c-0.3233 3.488-0.8665 6.914-1.617 10.27-0.7507 3.352-1.708 6.629-2.859 9.818-1.151 3.19-2.495 6.292-4.02 9.293-1.524 3.001-3.229 5.903-5.1 8.689-1.871 2.787-3.908 5.46-6.098 8.006s-4.532 4.967-7.014 7.246c-2.482 2.28-5.104 4.418-7.852 6.404-2.747 1.987-5.618 3.821-8.604 5.488h-43.55v7.537h42.59c0.9226 0 1.802 0.149 2.604 0.4199 0.8019 0.271 1.527 0.6629 2.135 1.146 0.6079 0.4835 1.099 1.059 1.439 1.697 0.3406 0.6378 0.5293 1.339 0.5293 2.072v14.82c0 0.7331-0.1885 1.433-0.5293 2.07-0.3408 0.6374-0.8333 1.212-1.441 1.695-0.6081 0.4834-1.331 0.8756-2.133 1.146-0.8018 0.2709-1.682 0.4219-2.604 0.4219h-42.59v7.453h33.75l-13.25 123c-0.042 0.5998-0.1916 1.173-0.4297 1.695-0.238 0.5224-0.5647 0.994-0.9648 1.391-0.4002 0.3966-0.8739 0.717-1.402 0.9394-0.5284 0.2225-1.112 0.3457-1.734 0.3457h-15.9c0.3716 16.42 5.903 13.15 18.99 4.857 4.601-2.893 8.839-5.603 13.41-8.482z"/><path d="m117.1-0.04924c-0.2063-0.00183-0.4067 0.009062-0.5996 0.03318-3.1 0.386-4.5 4.158-4.5 13.41v151.5c-52.71 0-95.68 40.23-97.73 90.57h-8.4c-3.23 0-5.87 2.5-5.87 5.6 0 3.113 2.64 5.661 5.867 5.661h8.629c2.302 27.79 17.07 52.2 38.92 67.99-1.408 1.506-2.268 3.497-2.268 5.673v23.58c0 4.669 3.961 8.491 8.803 8.491h0.5762l19.96 132.8c0.3647 3.617 3.082 6.606 6.848 6.606h48.91c3.75 0 6.31-3.01 6.854-6.602l1.369-9.104c121.1-76.3 233.4-148 355-224.6 9-5.6 12.5-10.3 12.5-15.9 0-6-3.5-10.2-12.5-15.9-126.3-79.5-242-153.5-368.4-233l0.1172-0.01171c-6.4-4.02-11-6.91-14.1-6.937zm-5.1 175.4c46.76 0 84.92 35.57 86.97 80.19h-150.2c0.3455-2.192 0.8171-4.365 1.41-6.5 1.409-5.071 3.491-9.945 6.209-14.48 0.9052-1.521 0.3618-3.459-1.213-4.332-1.578-0.873-3.587-0.3522-4.492 1.169-3.026 5.058-5.334 10.44-6.879 16-0.7435 2.676-1.314 5.398-1.707 8.144h-0.0078-17.09c2.043-44.62 40.22-80.19 86.97-80.19zm-1.672 22.84c-9.101 0-18.04 1.75-26.33 5.06-8.296 3.315-15.91 8.176-22.35 14.38-1.29 1.245-1.29 3.263 0 4.507 1.291 1.245 3.384 1.245 4.674 0h-0.0078c5.845-5.637 12.72-10.03 20.18-13.01 7.471-2.983 15.56-4.566 23.83-4.566 1.826 0 3.305-1.427 3.305-3.188 0-1.758-1.479-3.184-3.305-3.184zm-85.02 68.67h173.4c-2.586 27.89-19.28 51.84-43.16 65.17h-87.08c-23.83-13.4-40.54-37.3-43.12-65.2zm44.28 72.71h85.01c3.69 0 6.707 2.4 6.707 5.333v14.81c0 2.931-3.019 5.331-6.707 5.331h-85.01c-3.688 0-6.707-2.4-6.707-5.331v-14.81c0-2.933 3.019-5.333 6.707-5.333zm8.262 32.92h67.91l-13.25 123c-0.1681 2.398-2.04 4.369-4.531 4.369h-32.35c-2.49 0-4.274-1.979-4.531-4.369z"/></g></svg>
