<?xml version="1.0" encoding="UTF-8"?>
<svg width="336px" height="48px" viewBox="0 0 336 48" version="1.1" xmlns="http://www.w3.org/2000/svg" xmlns:xlink="http://www.w3.org/1999/xlink">
    <!-- Generator: Sketch 46.2 (44496) - http://www.bohemiancoding.com/sketch -->
    <title>Artboard</title>
    <desc>Created with Sketch.</desc>
    <defs></defs>
    <g id="Page-1" stroke="none" stroke-width="1" fill="none" fill-rule="evenodd">
        <g id="Artboard">
            <g id="Logo" transform="translate(9.000000, 4.000000)">
                <path d="M38.02629,18.52373 C38.70369,18.95003 38.96259,19.26443 38.96259,19.71683 C38.96259,20.13533 38.70369,20.48303 38.02629,20.90933 C28.56819,26.86643 19.89069,32.41943 10.42119,38.38043 C9.40539,39.02423 8.99289,39.28013 8.99289,37.89263 L8.99289,1.53563 C8.99289,0.14813 9.40599,0.40403 10.42989,1.04843 C19.89639,7.00973 28.56819,12.56303 38.02629,18.52373 Z" id="Fill-2" fill="#FBC707"></path>
                <path d="M15.51408,19.97066 C15.51408,22.80356 13.57668,25.20056 10.91238,25.99166 L7.07238,25.99166 C4.40808,25.20056 2.47038,22.80356 2.47038,19.97816 C2.47038,16.49996 5.39058,13.68026 8.99238,13.68026 C12.59418,13.67276 15.51408,16.49246 15.51408,19.97066 Z" id="Fill-4" fill="#3D9BCA"></path>
                <path d="M2.46846,19.97255 C2.46846,16.65905 5.12106,13.94045 8.48646,13.69355 C10.83306,14.87345 12.43536,17.24285 12.43536,19.97255 C12.43536,20.15825 12.42786,20.34185 12.41316,20.52425 L5.07186,20.42075 L5.20026,20.47385 L11.35956,21.73505 C11.71656,21.80795 12.16026,21.94805 12.00186,22.37255 C11.43816,23.88455 10.35306,25.15865 8.95806,25.99295 L7.07106,25.99295 C4.40616,25.20215 2.46846,22.80545 2.46846,19.97255 Z" id="Fill-6" fill="#47C7FF"></path>
                <path d="M5.81466,25.99355 C5.53836,25.99355 5.31246,26.17385 5.31246,26.39375 L5.31246,27.50465 C5.31246,27.72485 5.53836,27.90455 5.81466,27.90455 L12.18366,27.90455 C12.45966,27.90455 12.68616,27.72455 12.68616,27.50465 L12.68616,26.39375 C12.68616,26.17385 12.45996,25.99355 12.18366,25.99355 L7.07226,25.99355 L5.81466,25.99355 Z" id="Fill-8" fill="#FFFFFF"></path>
                <path d="M6.43095,28.47089 L7.42305,37.69709 C7.43565,37.87709 7.57575,38.02469 7.76235,38.02469 L10.18635,38.02469 C10.37265,38.02469 10.51275,37.87709 10.52565,37.69709 L11.51805,28.47089 L6.43095,28.47089 Z" id="Fill-10" fill="#FFFFFF"></path>
                <path d="M12.01875,27.50495 C12.01875,27.72515 11.79255,27.90485 11.51625,27.90485 L12.18315,27.90485 C12.45945,27.90485 12.68595,27.72515 12.68595,27.50495 L12.68595,26.39405 C12.68595,26.17445 12.45975,25.99415 12.18315,25.99415 L11.51625,25.99415 C11.79285,25.99415 12.01875,26.17415 12.01875,26.39405 L12.01875,27.50495 Z" id="Fill-12" fill="#DEDEDD"></path>
                <path d="M9.30234,28.47089 L9.25584,37.69529 C9.25584,37.87619 9.10284,38.02379 8.91684,38.02379 L10.18854,38.02379 C10.37484,38.02379 10.51494,37.87589 10.52784,37.69589 L11.52024,28.46969 L9.30354,28.46969" id="Fill-14" fill="#DEDEDD"></path>
                <path d="M11.51997,28.46915 L6.43197,28.46915 L7.42437,37.69325 C7.44357,37.87265 7.57707,38.02115 7.76367,38.02115 L10.18767,38.02115 C10.37427,38.02115 10.51437,37.87325 10.52697,37.69325 L11.51967,28.46915 L11.51997,28.46915 Z M13.44687,25.58945 C13.58127,25.70645 13.66617,25.87535 13.66617,26.06285 L13.66617,27.83195 C13.66617,28.18235 13.36917,28.46885 13.00647,28.46885 L12.81687,28.46885 L11.32107,38.43215 C11.28027,38.70155 11.08857,38.92745 10.80747,38.92745 L7.14357,38.92745 C6.86157,38.92745 6.65787,38.70335 6.63057,38.43215 L5.13477,28.46885 L5.09157,28.46885 C4.72887,28.46885 4.43217,28.18205 4.43217,27.83195 L4.43217,26.06255 C4.43217,25.89935 4.49637,25.75025 4.60197,25.63715 C2.96487,24.45215 1.85847,22.62095 1.68597,20.53655 L1.03947,20.53655 C0.79767,20.53655 0.59997,20.34545 0.59997,20.11175 C0.59997,19.87835 0.79767,19.68725 1.03947,19.68725 L1.66887,19.68725 C1.82307,15.91145 5.04237,12.89345 8.99097,12.89345 C12.93957,12.89345 16.15977,15.91145 16.31307,19.68725 L16.94247,19.68725 C17.18397,19.68725 17.38197,19.87835 17.38197,20.11175 C17.38197,20.34545 17.18397,20.53655 16.94247,20.53655 L16.29597,20.53655 C16.12737,22.59845 15.04617,24.40775 13.44567,25.59395 L13.44687,25.58945 Z M5.81307,25.99955 L12.18177,25.99955 C12.45807,25.99955 12.68427,26.17925 12.68427,26.39945 L12.68427,27.51035 C12.68427,27.73025 12.45807,27.91025 12.18177,27.91025 L5.81307,27.91025 C5.53677,27.91025 5.31057,27.73025 5.31057,27.51035 L5.31057,26.39945 C5.31057,26.17925 5.53677,25.99955 5.81307,25.99955 L5.81307,25.99955 Z M3.75537,19.69565 C3.78477,19.48955 3.82737,19.28555 3.88317,19.08485 C3.99897,18.66785 4.17177,18.26375 4.39857,17.88425 C4.46637,17.77025 4.61697,17.73125 4.73517,17.79665 C4.85307,17.86205 4.89387,18.00755 4.82607,18.12155 C4.62237,18.46205 4.46637,18.82775 4.36077,19.20815 C4.31637,19.36835 4.28097,19.53125 4.25517,19.69565 L15.50667,19.69565 C15.35307,16.34855 12.49377,13.68035 8.99037,13.68035 C5.48757,13.68035 2.62737,16.34855 2.47467,19.69565 L3.75477,19.69565 L3.75537,19.69565 Z M5.72967,25.43435 L12.25347,25.43435 C14.04267,24.43415 15.29337,22.63715 15.48717,20.54525 L2.49597,20.54525 C2.68887,22.63715 3.94077,24.43325 5.72967,25.43435 L5.72967,25.43435 Z M5.56857,17.19035 C5.47197,17.28365 5.31507,17.28365 5.21847,17.19035 C5.12187,17.09705 5.12187,16.94555 5.21847,16.85225 C5.70087,16.38665 6.27117,16.02185 6.89277,15.77315 C7.51347,15.52505 8.18337,15.39365 8.86527,15.39365 C9.00207,15.39365 9.11277,15.50045 9.11277,15.63245 C9.11277,15.76475 9.00207,15.87155 8.86527,15.87155 C8.24577,15.87155 7.63977,15.99035 7.07997,16.21415 C6.52107,16.43765 6.00597,16.76765 5.56797,17.19035 L5.56857,17.19035 Z" id="Fill-16" fill="#293554"></path>
                <path d="M173.55204,24.87764 C173.74014,25.06664 173.94444,25.22264 174.16314,25.35164 C174.38154,25.48034 174.59004,25.58504 174.79134,25.66544 C174.99204,25.74614 175.16964,25.80494 175.32204,25.83944 C175.47444,25.87334 175.57914,25.89224 175.63434,25.89224 C175.76634,25.89224 175.93644,25.88504 176.14134,25.87514 C176.34624,25.86464 176.54034,25.83344 176.72784,25.78214 C176.91594,25.72934 177.07824,25.64684 177.21384,25.52744 C177.34854,25.40954 177.41454,25.24184 177.41454,25.02554 C177.41454,24.83024 177.37584,24.67334 177.29964,24.55844 C177.22374,24.44384 177.11154,24.34574 176.96634,24.26564 C176.82084,24.18494 176.64354,24.11504 176.43204,24.05294 C176.22024,23.98934 175.98114,23.91794 175.71714,23.83334 C174.88404,23.61014 174.19734,23.34164 173.65554,23.02814 C173.11434,22.71434 172.68714,22.36244 172.37124,21.97514 C172.05564,21.58844 171.83334,21.17354 171.70854,20.72744 C171.58434,20.28134 171.52044,19.81034 171.52044,19.31534 C171.52044,18.73694 171.63504,18.21074 171.86394,17.73614 C172.09314,17.26244 172.41924,16.85414 172.84254,16.51604 C173.26584,16.17794 173.77254,15.91634 174.36264,15.73184 C174.95274,15.54704 175.60824,15.45674 176.33124,15.45674 C176.76834,15.45674 177.17844,15.49094 177.55944,15.56534 C177.94104,15.63974 178.30584,15.75434 178.65294,15.91034 C179.00004,16.06754 179.33994,16.26944 179.66964,16.51694 C179.99904,16.76474 180.32544,17.06084 180.65184,17.40254 C180.77004,17.54204 180.83184,17.67074 180.83604,17.79284 C180.83934,17.91374 180.75984,18.04724 180.59994,18.18644 C180.32934,18.40964 180.07224,18.62924 179.82594,18.84524 C179.57964,19.06154 179.32284,19.30184 179.05854,19.56704 C178.97634,19.63664 178.89174,19.67714 178.80894,19.69574 C178.72344,19.71284 178.64604,19.71284 178.56954,19.69214 C178.49364,19.67204 178.41924,19.63784 178.35054,19.58834 C178.28094,19.54004 178.21884,19.47974 178.16454,19.41014 C177.92124,19.13804 177.64374,18.95354 177.33144,18.85934 C177.01854,18.76634 176.72724,18.71984 176.45664,18.71984 C176.11644,18.71984 175.84584,18.77864 175.64454,18.89804 C175.44384,19.01594 175.34934,19.19774 175.36344,19.44194 C175.37724,19.62254 175.44564,19.76264 175.56834,19.86374 C175.69074,19.96454 175.83924,20.04854 176.01624,20.11124 C176.19414,20.17334 176.38074,20.22134 176.57844,20.26184 C176.77704,20.30054 176.95674,20.34404 177.12324,20.39384 C177.74814,20.59544 178.32084,20.81564 178.84074,21.05234 C179.36124,21.28964 179.81274,21.57884 180.19464,21.92384 C180.57594,22.26884 180.87474,22.68374 181.08624,23.16434 C181.29804,23.64584 181.40244,24.23144 181.40244,24.92204 C181.40244,25.61204 181.26744,26.22944 180.99264,26.77304 C180.71874,27.31664 180.34014,27.77324 179.86104,28.14314 C179.38254,28.51244 178.81674,28.79474 178.16094,28.99004 C177.50514,29.18534 176.79714,29.28284 176.04054,29.28284 C175.61034,29.28284 175.17294,29.24414 174.72864,29.16794 C174.28434,29.09204 173.85414,28.96634 173.43774,28.79504 C173.02134,28.62524 172.62594,28.40504 172.25064,28.13654 C171.87594,27.86834 171.54294,27.54404 171.25104,27.16034 C171.17514,27.06284 171.11934,26.95874 171.08214,26.85014 C171.04314,26.74184 171.02784,26.63744 171.02934,26.53304 C171.03264,26.42924 171.05424,26.33144 171.09114,26.24384 C171.13014,26.15714 171.18894,26.08274 171.27084,26.02064 L172.61424,24.67154 C172.78104,24.53234 172.93014,24.48284 173.05824,24.52604 C173.18694,24.56804 173.34984,24.68714 173.55114,24.88184 L173.55204,24.87764 Z M158.81874,22.37864 C158.81874,22.83854 158.90394,23.26754 159.03414,23.66834 C159.18174,24.06944 159.37674,24.41804 159.64134,24.71084 C159.90534,25.00364 160.22454,25.23374 160.59564,25.40474 C160.96704,25.57424 161.37684,25.66244 161.82774,25.66244 C162.29274,25.66244 162.72684,25.57544 163.12554,25.40474 C163.52484,25.23464 163.87194,25.00364 164.16684,24.71084 C164.46174,24.41804 164.69094,24.06974 164.85774,23.66834 C165.02454,23.26754 165.10734,22.83854 165.10734,22.37864 C165.10734,21.93254 165.02514,21.50714 164.85774,21.10274 C164.69094,20.69774 164.46204,20.34254 164.16684,20.03594 C163.87194,19.72934 163.52484,19.48484 163.12554,19.30754 C162.72654,19.12904 162.29274,19.04264 161.82774,19.04264 C161.37654,19.04264 160.96734,19.12934 160.59564,19.30754 C160.22424,19.48574 159.90504,19.72934 159.64134,20.03594 C159.37674,20.34254 159.17604,20.69804 159.03414,21.10274 C158.88684,21.50684 158.81874,21.93254 158.81874,22.37864 L158.81874,22.37864 Z M169.07514,28.23464 C169.07514,28.35284 169.05534,28.46504 169.01154,28.57304 C168.96984,28.68164 168.89994,28.76834 168.80454,28.83104 C168.72864,28.90694 168.63774,28.95494 168.53394,28.97684 C168.43014,28.99694 168.33954,29.00774 168.26334,29.00774 L166.21254,29.00774 C166.06674,29.00774 165.94884,28.98764 165.85884,28.94864 C165.76764,28.90994 165.69594,28.85744 165.64014,28.78754 C165.58584,28.71764 165.53934,28.63034 165.50034,28.52984 C165.46164,28.42874 165.41994,28.31954 165.37794,28.20194 L165.07614,27.41774 C164.88774,27.60674 164.68404,27.80444 164.46174,28.01714 C164.23944,28.22984 163.99674,28.42844 163.72944,28.60934 C163.46214,28.79024 163.17084,28.94084 162.85854,29.06294 C162.54624,29.18384 162.21324,29.24744 161.85894,29.24744 C161.22714,29.24744 160.62324,29.16704 160.04424,29.00714 C159.46464,28.84574 158.92314,28.61654 158.42034,28.32044 C157.91694,28.02404 157.45824,27.66854 157.04814,27.25394 C156.63774,26.83874 156.28704,26.37884 155.99334,25.86974 C155.69934,25.36064 155.46894,24.80954 155.31024,24.22064 C155.14104,23.63144 155.07114,23.01794 155.07114,22.37594 C155.07114,21.40694 155.24034,20.50364 155.60214,19.67054 C155.95494,18.83744 156.43944,18.11294 157.04814,17.49554 C157.65894,16.87844 158.37774,16.39364 159.20424,16.04174 C160.03044,15.68984 160.91514,15.51554 161.85984,15.51554 C162.29004,15.51554 162.68604,15.57914 163.04694,15.70664 C163.40784,15.83534 163.73754,16.00634 164.03274,16.21544 C164.32764,16.42574 164.59494,16.66154 164.83434,16.92674 C165.07344,17.19164 165.28524,17.46014 165.47274,17.73194 L165.87894,16.46684 C165.94854,16.29284 166.00764,16.14944 166.05204,16.04114 C166.09704,15.93284 166.14534,15.85244 166.19784,15.80084 C166.25064,15.74804 166.31274,15.71414 166.38804,15.69704 C166.46424,15.67994 166.57224,15.67214 166.71114,15.67214 L168.26244,15.67214 C168.33834,15.67214 168.42924,15.68264 168.53304,15.70304 C168.63684,15.72344 168.72744,15.77294 168.80364,15.84914 C168.90144,15.92504 168.97044,16.01264 169.01064,16.11074 C169.05264,16.20854 169.07424,16.31864 169.07424,16.44554 L169.07424,28.23134 L169.07514,28.23464 Z M148.97154,11.24744 C148.97154,10.95464 149.03514,10.74554 149.16204,10.62344 C149.28924,10.50104 149.48124,10.44284 149.74554,10.44284 L152.16084,10.44284 C152.40384,10.44284 152.60244,10.50194 152.75064,10.62344 C152.89794,10.74434 152.97264,10.95464 152.97264,11.24744 L152.97264,13.28744 C152.97264,13.36964 152.95554,13.46144 152.90904,13.55924 C152.86734,13.65704 152.82384,13.75034 152.73984,13.84124 C152.67654,13.93304 152.59284,14.00504 152.48634,14.06444 C152.38074,14.12354 152.27064,14.15594 152.14584,14.15594 L149.73054,14.15594 C149.21694,14.15594 148.96074,13.86674 148.96074,13.28834 L148.96074,11.24834 L148.97154,11.24744 Z M148.97154,16.53914 C148.97154,16.31564 149.03514,16.12424 149.16204,15.96404 C149.28924,15.80264 149.48124,15.72344 149.74554,15.72344 L152.12964,15.72344 C152.21484,15.72344 152.29884,15.74024 152.40054,15.77774 C152.50584,15.81644 152.59074,15.87074 152.67084,15.94544 C152.75634,16.01684 152.81814,16.10684 152.88654,16.20314 C152.95014,16.30094 152.97174,16.41344 152.97174,16.53794 L152.97174,28.19804 C152.97174,28.46294 152.90814,28.66154 152.75424,28.79744 C152.60694,28.93274 152.39904,29.00354 152.12844,29.00354 L149.74434,29.00354 C149.23044,29.00354 148.97454,28.73474 148.97454,28.19804 L148.97454,16.53824 L148.97154,16.53914 Z M144.58794,24.91664 C144.69324,24.84644 144.77814,24.80174 144.86484,24.78434 C144.95004,24.76754 145.01214,24.76124 145.05504,24.76124 C145.18224,24.76124 145.28154,24.78434 145.37874,24.83294 C145.48404,24.88094 145.56894,24.98474 145.68114,25.14644 L146.84574,26.91344 C146.88774,26.96774 146.90934,27.03134 146.95134,27.10244 C146.99304,27.17204 146.99304,27.22634 146.99304,27.27014 C146.99304,27.43154 146.95134,27.55964 146.84574,27.66044 C146.74044,27.76124 146.63454,27.85184 146.51574,27.92894 C145.94724,28.32644 145.32564,28.64384 144.64974,28.88414 C143.97324,29.12444 143.25444,29.24684 142.49814,29.24684 C141.87234,29.24684 141.27414,29.16644 140.69244,29.00654 C140.11314,28.84514 139.57194,28.61594 139.07154,28.31984 C138.57234,28.02344 138.11394,27.66794 137.69724,27.25304 C137.28084,26.83814 136.92744,26.37824 136.63584,25.86914 C136.34424,25.35974 136.11804,24.80924 135.95514,24.22004 C135.78594,23.63084 135.70764,23.01704 135.70764,22.37534 C135.70764,21.73394 135.79284,21.11684 135.95514,20.52434 C136.12434,19.93214 136.34394,19.38134 136.63584,18.87554 C136.92774,18.37004 137.28054,17.90984 137.69724,17.49494 C138.11394,17.08004 138.57234,16.72814 139.07154,16.43534 C139.57044,16.14254 140.11194,15.91604 140.69244,15.75554 C141.27204,15.59414 141.87234,15.51494 142.49814,15.51494 C143.25504,15.51494 143.95494,15.61574 144.59694,15.81824 C145.23954,16.01984 145.84014,16.32044 146.40264,16.71764 L146.36064,16.68674 C146.50824,16.77824 146.63544,16.88204 146.72424,17.00384 C146.80944,17.12654 146.85144,17.27954 146.85144,17.46074 C146.85144,17.58494 146.80944,17.71514 146.72424,17.84744 L145.79844,19.42694 C145.60824,19.76864 145.36704,19.93934 145.09014,19.93934 C145.02684,19.93934 144.94284,19.92224 144.86184,19.89104 C144.77664,19.86014 144.67164,19.80884 144.55944,19.72964 C144.25494,19.52804 143.92734,19.36034 143.57634,19.23134 C143.22534,19.10264 142.85154,19.04024 142.45584,19.04024 C142.01814,19.04024 141.61614,19.12694 141.24834,19.30484 C140.88054,19.48334 140.56764,19.72694 140.30754,20.03354 C140.04744,20.34014 139.84254,20.69564 139.69644,21.10004 C139.54914,21.50474 139.47684,21.92984 139.47684,22.37594 C139.47684,22.83584 139.56204,23.26484 139.69644,23.66594 C139.84404,24.06704 140.04744,24.41564 140.30754,24.70844 C140.56764,25.00124 140.88024,25.23134 141.24834,25.40204 C141.61614,25.57184 142.02024,25.65974 142.45584,25.65974 C142.85124,25.65974 143.22324,25.59014 143.57004,25.44974 C143.91654,25.30994 144.24654,25.13264 144.55944,24.91694 L144.58794,24.91664 Z M121.55214,15.90164 C121.62984,15.82544 121.74324,15.77744 121.83954,15.75554 C121.94784,15.73544 122.02854,15.72464 122.12334,15.72464 L123.69624,15.72464 C123.82044,15.72464 123.92724,15.74474 124.01724,15.78974 C124.09494,15.83474 124.18494,15.89834 124.24374,15.97454 C124.30584,16.05074 124.35234,16.13804 124.39884,16.23614 C124.44564,16.33394 124.46094,16.43594 124.50774,16.53974 L124.83024,17.87804 C124.93884,17.66204 125.08464,17.41484 125.28624,17.13914 C125.47554,16.86404 125.73624,16.60574 126.03864,16.36514 C126.34104,16.12484 126.70884,15.92264 127.12764,15.75884 C127.54794,15.59534 128.03334,15.51464 128.58894,15.51464 C129.38004,15.51464 130.09824,15.66644 130.74504,15.97454 C131.38974,16.28144 131.94174,16.69964 132.39714,17.22974 C132.85164,17.75954 133.20234,18.37664 133.45194,19.08494 C133.70154,19.79294 133.82604,20.54894 133.82604,21.34994 L133.82604,28.19924 C133.82604,28.46414 133.76244,28.66274 133.65714,28.79864 C133.55154,28.93394 133.35894,29.00474 133.10934,29.00474 L130.70334,29.00474 C130.40724,29.00474 130.19934,28.95194 130.09074,28.85264 C129.98214,28.75184 129.92154,28.55654 129.92154,28.26344 L129.92154,21.45614 C129.92154,21.15674 129.85974,20.87084 129.73254,20.60234 C129.60834,20.33384 129.41904,20.09684 129.19584,19.89104 C128.97564,19.68524 128.72244,19.52504 128.44344,19.40654 C128.16414,19.28864 127.87404,19.22804 127.58244,19.22804 C127.33434,19.22804 127.07844,19.28264 126.81924,19.39604 C126.56034,19.50614 126.31824,19.66064 126.09954,19.85954 C125.88384,20.05904 125.69754,20.29154 125.54574,20.56004 C125.39064,20.82854 125.30994,21.12134 125.28984,21.43514 L125.28984,28.23344 C125.28984,28.35104 125.27454,28.47014 125.22774,28.58894 C125.18124,28.70714 125.11914,28.79684 125.01834,28.86074 C124.94094,28.91534 124.84914,28.95404 124.76544,28.97564 C124.68804,28.99604 124.59654,29.00684 124.48944,29.00684 L122.13624,29.00684 C121.83984,29.00684 121.62294,28.93244 121.49094,28.78694 C121.36674,28.64114 121.30164,28.44524 121.30164,28.20164 L121.30164,16.49954 C121.30164,16.36784 121.31694,16.24514 121.37904,16.13384 C121.44114,16.02194 121.53444,15.93434 121.62114,15.87194 L121.55904,15.90314 L121.55214,15.90164 Z M112.73364,10.17074 C112.78014,10.13654 112.81134,10.11164 112.84224,10.09934 C112.85784,10.08524 112.90434,10.07924 112.95114,10.07924 C113.01294,10.07924 113.07534,10.11014 113.16024,10.17224 L115.83624,12.85004 C115.89834,12.89174 115.91394,12.97244 115.91394,13.09034 C115.91394,13.15424 115.89834,13.21934 115.83624,13.29014 L114.92094,14.23124 C114.84354,14.30744 114.75354,14.34614 114.64194,14.34614 C114.56454,14.34614 114.47274,14.31524 114.41514,14.25284 L112.96794,12.76814 L111.48984,14.26334 C111.41214,14.33954 111.33444,14.36744 111.24774,14.34554 C111.17034,14.32544 111.09264,14.28674 111.03354,14.23094 L110.09814,13.32104 C110.05194,13.28684 110.03634,13.24964 110.03634,13.21064 C110.02584,13.17194 110.02074,13.13474 110.02074,13.09274 C110.02074,13.03874 110.03124,12.99194 110.03634,12.95804 C110.05164,12.92384 110.08284,12.89264 110.09814,12.86474 L112.74324,10.17794 L112.73364,10.17074 Z M112.56444,18.70484 C112.29624,18.70484 112.03254,18.75764 111.77964,18.86594 C111.52704,18.97454 111.28494,19.12094 111.06474,19.30154 C110.84454,19.48214 110.64264,19.68854 110.46894,19.91894 C110.30004,20.14874 110.14644,20.38244 110.03454,20.61974 L115.35534,20.61974 C115.20024,20.34734 115.05444,20.09654 114.88374,19.86614 C114.71604,19.63604 114.51774,19.43414 114.30054,19.25954 C114.08184,19.08554 113.82894,18.94934 113.54964,18.85184 C113.27064,18.75374 112.93854,18.70574 112.56624,18.70574 L112.56444,18.70484 Z M117.57354,27.41564 C116.96244,27.98024 116.27664,28.41974 115.51194,28.73684 C114.74874,29.05424 113.93904,29.21474 113.08584,29.21474 C112.13484,29.21474 111.23664,29.04044 110.38974,28.69184 C109.54134,28.34294 108.79974,27.85874 108.16224,27.24164 C107.52324,26.62424 107.01594,25.89974 106.64214,25.06334 C106.26834,24.22664 106.07754,23.31674 106.07754,22.33454 C106.07754,21.72104 106.15494,21.12494 106.30254,20.55044 C106.45764,19.97534 106.66404,19.43864 106.93704,18.93704 C107.21004,18.43514 107.54334,17.97134 107.93574,17.54954 C108.32994,17.12774 108.76434,16.76864 109.24974,16.46924 C109.73844,16.16924 110.26134,15.93554 110.83344,15.76844 C111.40284,15.60074 112.00314,15.51704 112.63434,15.51704 C113.21004,15.51704 113.76984,15.59324 114.31134,15.74714 C114.85434,15.89924 115.36164,16.11674 115.83774,16.39544 C116.31534,16.67414 116.74524,17.00894 117.14214,17.39924 C117.53784,17.78984 117.87744,18.21524 118.16124,18.67844 C118.44534,19.14194 118.67004,19.63724 118.82514,20.16344 C118.98054,20.68994 119.05644,21.23384 119.05644,21.79094 C119.05644,22.15334 119.05284,22.44974 119.04264,22.68014 C119.03214,22.90994 118.98054,23.09144 118.87344,23.22734 C118.76454,23.36234 118.61754,23.45774 118.39104,23.50934 C118.16604,23.56214 117.83244,23.59034 117.39654,23.59034 L109.89954,23.59034 C109.96164,24.03614 110.10894,24.40934 110.32314,24.70904 C110.53254,25.00874 110.77914,25.24634 111.05544,25.42394 C111.33144,25.60214 111.62934,25.73054 111.94104,25.80734 C112.25274,25.88324 112.54764,25.92194 112.82694,25.92194 C113.07504,25.92194 113.33544,25.89404 113.59914,25.84124 C113.86134,25.78844 114.12054,25.72034 114.36714,25.63124 C114.61224,25.54424 114.83874,25.44224 115.04334,25.32794 C115.25274,25.21304 115.40934,25.09484 115.53834,24.96914 C115.64694,24.87734 115.74744,24.80774 115.82514,24.76304 C115.90254,24.71804 115.99434,24.69794 116.07804,24.69794 C116.15544,24.69794 116.26734,24.72884 116.35404,24.79094 C116.43174,24.85454 116.54334,24.94304 116.66754,25.06304 L117.77184,26.31794 C117.84954,26.40914 117.89604,26.48774 117.92694,26.56184 C117.94254,26.63354 117.97374,26.71244 117.97374,26.78834 C117.97374,26.92814 117.92694,27.04634 117.86484,27.14714 C117.78744,27.24824 117.69594,27.33854 117.59634,27.41594 L117.57354,27.41564 Z M99.73434,11.25044 C99.73434,10.95764 99.79644,10.74854 99.92364,10.62644 C100.04784,10.50404 100.24164,10.44614 100.50684,10.44614 L102.92214,10.44614 C103.16424,10.44614 103.36434,10.50494 103.51164,10.62644 C103.66674,10.74734 103.73184,10.95794 103.73184,11.25044 L103.73184,13.29044 C103.73184,13.37264 103.71654,13.46474 103.67004,13.56224 C103.62354,13.66004 103.59234,13.75334 103.50084,13.84454 C103.43874,13.93604 103.34574,14.00804 103.24794,14.06744 C103.13934,14.12654 103.03374,14.15894 102.90834,14.15894 L100.49304,14.15894 C99.97794,14.15894 99.72384,13.87004 99.72384,13.29134 L99.72384,11.25134 L99.73434,11.25044 Z M99.73434,16.54214 C99.73434,16.31894 99.79644,16.12724 99.92364,15.96704 C100.04784,15.80564 100.24164,15.72644 100.50684,15.72644 L102.89124,15.72644 C102.96864,15.72644 103.06014,15.74354 103.15944,15.78074 C103.26834,15.81944 103.35054,15.87374 103.42794,15.94844 C103.50564,16.01984 103.58334,16.10984 103.64214,16.20644 C103.70424,16.30394 103.71954,16.41644 103.71954,16.54094 L103.71954,28.20104 C103.71954,28.46594 103.65774,28.66454 103.50384,28.80044 C103.34874,28.93544 103.15044,29.00654 102.87894,29.00654 L100.49454,29.00654 C99.97944,29.00654 99.72534,28.73804 99.72534,28.20134 L99.72534,16.54124 L99.73434,16.54214 Z M86.98974,22.37834 C86.98974,22.83854 87.06714,23.26754 87.20364,23.66834 C87.35874,24.06944 87.54654,24.41804 87.81024,24.71054 C88.07394,25.00364 88.39344,25.23374 88.76274,25.40444 C89.13504,25.57424 89.54304,25.66244 89.99604,25.66244 C90.44124,25.66244 90.86154,25.58174 91.25244,25.42184 C91.64634,25.26074 91.98474,25.03874 92.27484,24.75644 C92.56464,24.47354 92.80374,24.14264 92.97894,23.75924 C93.14814,23.37614 93.25194,22.96424 93.27204,22.52534 L93.27204,22.37954 C93.27204,21.93344 93.19464,21.50804 93.02394,21.10364 C92.85504,20.69894 92.62854,20.34374 92.33214,20.03684 C92.03904,19.73024 91.68864,19.48604 91.29114,19.30844 C90.88944,19.12994 90.45834,19.04354 89.99304,19.04354 C89.54154,19.04354 89.13204,19.13054 88.75974,19.30844 C88.38594,19.48694 88.06794,19.73024 87.80724,20.03684 C87.54504,20.34344 87.34044,20.69894 87.20064,21.10364 C87.04554,21.50804 86.98674,21.93344 86.98674,22.37954 L86.98974,22.37834 Z M92.97744,27.38774 C92.78664,27.57674 92.58204,27.77804 92.36004,27.99434 C92.13504,28.21034 91.88214,28.41284 91.61394,28.60094 C91.34394,28.78994 91.05084,28.94264 90.73914,29.06474 C90.42714,29.18564 90.08904,29.24954 89.72904,29.24954 C88.78434,29.24954 87.91734,29.07134 87.12294,28.71614 C86.32734,28.36034 85.64484,27.87224 85.07244,27.25574 C84.50004,26.63834 84.05304,25.91354 83.72904,25.07744 C83.40624,24.24074 83.24034,23.34134 83.24034,22.37954 C83.24034,21.41054 83.40924,20.50724 83.72904,19.67414 C84.05154,18.84104 84.49824,18.11654 85.07244,17.49884 C85.64784,16.88204 86.32884,16.39724 87.12294,16.04564 C87.91884,15.69344 88.78434,15.51914 89.72904,15.51914 C90.10764,15.51914 90.46134,15.57344 90.77604,15.68684 C91.08954,15.79844 91.38114,15.94154 91.64184,16.11554 C91.90074,16.28984 92.14134,16.48484 92.36154,16.70474 C92.57694,16.92464 92.78664,17.14064 92.97894,17.34974 L92.97894,12.56984 C92.97894,12.34664 93.04104,12.15884 93.18834,12.00494 C93.31254,11.85284 93.52344,11.77484 93.79494,11.77484 L96.13734,11.77484 C96.21474,11.77484 96.32634,11.79194 96.42264,11.82914 C96.53124,11.86814 96.61344,11.92244 96.69564,11.99264 C96.77304,12.06254 96.85074,12.14474 96.90504,12.24404 C96.96714,12.34184 96.98274,12.45014 96.98274,12.56864 L96.98274,28.20644 C96.98274,28.74344 96.70344,29.01134 96.13884,29.01134 L94.09884,29.01134 C93.94374,29.01134 93.85224,28.99454 93.77634,28.95884 C93.69864,28.92434 93.62094,28.87154 93.58704,28.80674 C93.54054,28.74164 93.47844,28.65614 93.43194,28.55594 C93.38544,28.45514 93.35424,28.33994 93.27684,28.20734 L92.97564,27.39164 L92.97744,27.38774 Z M80.88894,28.83074 C80.81124,28.90694 80.69964,28.95494 80.60484,28.97654 C80.49624,28.99664 80.41554,29.00774 80.31954,29.00774 L78.74634,29.00774 C78.62244,29.00774 78.51534,28.98284 78.42384,28.93754 C78.34644,28.89284 78.25464,28.83404 78.19734,28.75724 C78.13524,28.68134 78.08874,28.59374 78.04224,28.49564 C77.99574,28.39754 77.96454,28.29614 77.93364,28.19264 L77.61084,26.85374 C77.50224,27.07004 77.35824,27.31364 77.15964,27.58934 C76.97034,27.86444 76.70814,28.12244 76.40244,28.36304 C76.10004,28.60334 75.73254,28.80554 75.30894,28.96964 C74.88534,29.13314 74.40144,29.21744 73.85214,29.21744 C73.06104,29.21744 72.34314,29.06534 71.69754,28.75724 C71.05224,28.45004 70.50324,28.03214 70.04874,27.50204 C69.59274,26.97194 69.23904,26.35184 68.99064,25.64354 C68.74254,24.93614 68.61684,24.18284 68.61684,23.38154 L68.61684,16.53224 C68.61684,16.26734 68.67894,16.06514 68.78454,15.92894 C68.89314,15.79424 69.07914,15.72734 69.33204,15.72734 L71.73804,15.72734 C72.03414,15.72734 72.24234,15.77564 72.35064,15.87794 C72.45924,15.97874 72.51834,16.17764 72.51834,16.47074 L72.51834,23.27804 C72.51834,23.57774 72.58044,23.86004 72.72774,24.12854 C72.85194,24.39704 73.03944,24.63404 73.26294,24.83954 C73.48314,25.04564 73.74054,25.20884 74.01984,25.32764 C74.29884,25.44554 74.58744,25.50614 74.87904,25.50614 C75.12714,25.50614 75.38784,25.44704 75.65784,25.32764 C75.92304,25.20974 76.17294,25.04864 76.39764,24.85004 C76.62264,24.65054 76.80864,24.41804 76.95294,24.14924 C77.10834,23.88104 77.16864,23.59874 77.16864,23.29844 L77.16864,16.50044 C77.16864,16.38284 77.18424,16.26374 77.23074,16.14494 C77.27724,16.02704 77.33934,15.93674 77.44014,15.87284 C77.51754,15.81854 77.60904,15.77984 77.69454,15.75824 C77.77194,15.73814 77.86374,15.72734 77.96754,15.72734 L80.32074,15.72734 C80.61684,15.72734 80.83584,15.80174 80.96604,15.94664 C81.09024,16.09274 81.15534,16.28864 81.15534,16.53224 L81.15534,28.23404 C81.15534,28.36604 81.13974,28.48844 81.07764,28.60004 C81.01584,28.71164 80.92254,28.79954 80.83434,28.86164 L80.89614,28.83074 L80.88894,28.83074 Z M59.42004,18.36194 C59.29584,18.71774 59.15784,19.10114 59.01984,19.51214 C58.89564,19.92374 58.75134,20.33834 58.61784,20.75684 C58.49394,21.17474 58.35594,21.58634 58.21764,21.99434 C58.09344,22.40204 57.94764,22.78514 57.81744,23.14094 L61.01454,23.14094 L59.42304,18.36104 L59.42004,18.36194 Z M57.52614,13.88624 C57.53304,13.84454 57.54144,13.79954 57.58794,13.75124 C57.63444,13.70324 57.66534,13.65824 57.74304,13.61624 C57.80514,13.57454 57.85194,13.54034 57.91224,13.51544 C57.97434,13.49054 58.03644,13.48124 58.08144,13.48124 L60.74634,13.48124 C60.87054,13.48124 60.96204,13.51544 61.04724,13.59014 C61.12494,13.66124 61.20234,13.72964 61.23654,13.78514 L61.49574,14.38124 L66.96204,28.54064 C67.02414,28.68044 67.00854,28.79144 66.91554,28.87904 C66.83814,28.96574 66.70614,29.01074 66.52014,29.01074 L63.53244,29.01074 C63.37734,29.01074 63.25314,28.97984 63.16494,28.91924 C63.08754,28.86014 63.00984,28.76204 62.95554,28.62284 C62.80044,28.26704 62.68254,27.91184 62.54904,27.55964 C62.42514,27.20804 62.28714,26.85584 62.15364,26.49974 L56.62524,26.49974 C56.50104,26.85584 56.36304,27.20774 56.22474,27.55964 C56.10084,27.91184 55.95474,28.26704 55.82304,28.62284 C55.74564,28.88114 55.55784,29.00954 55.29084,29.00954 L52.21974,29.00954 C52.09554,29.00954 51.98244,28.97564 51.89394,28.90604 C51.81624,28.83584 51.78504,28.73204 51.84714,28.59224 L57.50154,13.88834 L57.52614,13.88624 Z" id="Fill-18" fill="#FFFFFF"></path>
                <path d="M187.98369,13.71464 C187.98369,13.58684 188.02299,13.47644 188.10129,13.38404 C188.17929,13.29164 188.29659,13.24544 188.45289,13.24544 L191.58909,13.24544 C191.69559,13.24544 191.80929,13.28804 191.93019,13.37324 C192.05139,13.45874 192.11169,13.57244 192.11169,13.71464 L192.11169,28.61564 C192.11169,28.92854 191.93769,29.08484 191.58909,29.08484 L188.45289,29.08484 C188.13999,29.08484 187.98369,28.92854 187.98369,28.61564 L187.98369,13.71464 Z" id="Fill-20" fill="#F8C300"></path>
                <path d="M195.40575,15.72002 C195.49845,15.64172 195.59445,15.59192 195.69375,15.57062 C195.80055,15.54932 195.89985,15.53852 195.99255,15.53852 L197.60295,15.53852 C197.73105,15.53852 197.84145,15.56342 197.93385,15.61322 C198.02625,15.65582 198.10455,15.71612 198.16845,15.79442 C198.23235,15.87272 198.28215,15.96152 198.31785,16.06112 C198.36045,16.16072 198.39945,16.26362 198.43515,16.37042 L198.76575,17.73572 C198.87255,17.51522 199.02525,17.26652 199.22445,16.98902 C199.43055,16.70462 199.69005,16.44152 200.00295,16.19972 C200.31585,15.95102 200.68575,15.74462 201.11235,15.58112 C201.54615,15.41042 202.04745,15.32522 202.61625,15.32522 C203.42685,15.32522 204.16275,15.48152 204.82455,15.79442 C205.48575,16.10732 206.04735,16.53392 206.50965,17.07452 C206.97885,17.61482 207.34155,18.24782 207.59775,18.97292 C207.85365,19.69112 207.98175,20.45912 207.98175,21.27692 L207.98175,28.26362 C207.98175,28.53362 207.92115,28.73972 207.80025,28.88222 C207.68655,29.01722 207.50145,29.08472 207.24555,29.08472 L204.78165,29.08472 C204.47565,29.08472 204.26595,29.03522 204.15225,28.93562 C204.03855,28.82882 203.98155,28.62632 203.98185,28.32722 L203.98185,21.38372 C203.98155,21.07772 203.91075,20.78972 203.76825,20.51972 C203.63325,20.24222 203.45175,20.00072 203.22435,19.79432 C202.99695,19.58102 202.73715,19.41392 202.44585,19.29302 C202.16145,19.17212 201.86985,19.11182 201.57105,19.11182 C201.31485,19.11182 201.05175,19.16852 200.78175,19.28252 C200.51865,19.39622 200.27355,19.55612 200.04585,19.76222 C199.82535,19.96142 199.63695,20.19962 199.48035,20.47682 C199.33125,20.74712 199.24575,21.04232 199.22445,21.36242 L199.22445,28.29542 C199.22445,28.41632 199.19955,28.53752 199.14975,28.65812 C199.10715,28.77902 199.03965,28.87142 198.94725,28.93562 C198.85455,28.99232 198.76575,29.03132 198.68055,29.05262 C198.60225,29.07422 198.50985,29.08502 198.40305,29.08502 L195.99255,29.08502 C195.68685,29.08502 195.46635,29.01032 195.33135,28.86122 C195.19635,28.71182 195.12855,28.51262 195.12855,28.26392 L195.12855,16.32782 C195.12855,16.19282 195.15705,16.06832 195.21375,15.95462 C195.27795,15.84092 195.36315,15.75182 195.46995,15.68792 L195.40605,15.72002 L195.40575,15.72002 Z" id="Fill-22" fill="#F8C300"></path>
                <path d="M211.36611,13.42667 C211.36611,13.20647 211.43721,13.04267 211.57971,12.93617 C211.72881,12.82217 211.93851,12.71567 212.20911,12.61607 L214.63011,11.77337 C214.66581,11.76647 214.69761,11.76287 214.72611,11.76287 L214.82211,11.76287 C215.08521,11.76287 215.25951,11.84117 215.34471,11.99747 C215.43711,12.14687 215.48361,12.34607 215.48361,12.59507 L215.47281,15.95477 L217.25421,15.95477 C217.48191,15.95477 217.66671,16.02227 217.80891,16.15757 C217.95081,16.29257 218.02221,16.49537 218.02221,16.76537 L218.02221,18.82397 C218.02221,19.12277 217.95081,19.34327 217.80891,19.48547 C217.66671,19.62047 217.48191,19.68797 217.25421,19.68797 L215.47281,19.68797 L215.48361,28.26377 C215.48361,28.53407 215.40531,28.74047 215.24871,28.88267 C215.09241,29.01767 214.87521,29.08517 214.59801,29.08517 L212.18751,29.08517 C211.64001,29.08517 211.36611,28.81127 211.36611,28.26377 L211.35561,19.68797 L210.57681,19.68797 C210.02931,19.68797 209.75571,19.39997 209.75571,18.82397 L209.75571,16.76537 C209.75571,16.22507 210.02931,15.95477 210.57681,15.95477 L211.35561,15.95477 L211.36611,13.42667 Z" id="Fill-24" fill="#F8C300"></path>
                <path d="M225.59649,18.57866 C225.31929,18.57866 225.04899,18.63536 224.78589,18.74936 C224.52969,18.85586 224.28819,19.00166 224.06079,19.18646 C223.83309,19.37156 223.62699,19.58126 223.44189,19.81586 C223.26429,20.05046 223.11849,20.28896 223.00449,20.53046 L228.45519,20.53046 C228.30579,20.25326 228.14229,19.99736 227.96469,19.76246 C227.79369,19.52786 227.59479,19.32176 227.36709,19.14386 C227.14689,18.96626 226.89069,18.82766 226.59939,18.72806 C226.31499,18.62846 225.98049,18.57866 225.59649,18.57866 L225.59649,18.57866 Z M230.72739,27.46376 C230.10159,28.03976 229.39749,28.49126 228.61539,28.81826 C227.83299,29.13836 227.00439,29.29826 226.12989,29.29826 C225.15549,29.29826 224.23479,29.12066 223.36719,28.76516 C222.49989,28.40966 221.73909,27.91886 221.08479,27.29306 C220.43049,26.66036 219.91149,25.91696 219.52749,25.06376 C219.14319,24.21056 218.95149,23.28236 218.95149,22.27976 C218.95149,21.65396 219.02619,21.04976 219.17559,20.46656 C219.33189,19.87646 219.54879,19.32536 219.82599,18.81326 C220.11039,18.30116 220.45179,17.83196 220.85019,17.40536 C221.25519,16.97156 221.70669,16.60166 222.20439,16.29596 C222.70239,15.99026 223.24269,15.75206 223.82619,15.58136 C224.40909,15.41066 225.02409,15.32546 225.67119,15.32546 C226.26159,15.32546 226.83399,15.40376 227.38869,15.56006 C227.94309,15.71636 228.46239,15.93686 228.94569,16.22126 C229.43649,16.50566 229.88439,16.84706 230.28999,17.24546 C230.69499,17.64356 231.04359,18.08096 231.33519,18.55736 C231.62679,19.02656 231.85089,19.53146 232.00719,20.07206 C232.17069,20.60516 232.25259,21.15626 232.25259,21.72536 C232.25259,22.09496 232.24539,22.39706 232.23129,22.63166 C232.22439,22.86626 232.17099,23.05496 232.07139,23.19716 C231.97179,23.33216 231.80439,23.42846 231.57009,23.48516 C231.34239,23.53496 231.00459,23.55986 230.55669,23.55986 L222.87699,23.55986 C222.94809,24.01496 223.09029,24.39536 223.30329,24.70106 C223.52409,25.00676 223.77639,25.25246 224.06079,25.43726 C224.34519,25.61486 224.64759,25.74266 224.96739,25.82096 C225.28749,25.89926 225.58989,25.93856 225.87429,25.93856 C226.13019,25.93856 226.39329,25.91366 226.66359,25.86386 C226.93359,25.80686 227.19309,25.73576 227.44209,25.65056 C227.69799,25.55786 227.92899,25.45466 228.13539,25.34126 C228.34869,25.22036 228.51939,25.09586 228.64749,24.96776 C228.76119,24.87536 228.85719,24.80786 228.93549,24.76526 C229.02069,24.71546 229.10949,24.69056 229.20219,24.69056 C229.29429,24.69056 229.38699,24.72236 229.47909,24.78656 C229.57869,24.85046 229.68909,24.94286 229.80999,25.06376 L230.94039,26.34356 C231.01869,26.43626 231.06849,26.52146 231.09009,26.59976 C231.11139,26.67086 231.12219,26.74556 231.12219,26.82386 C231.12219,26.96606 231.08319,27.09056 231.00489,27.19706 C230.92689,27.29666 230.83419,27.38546 230.72769,27.46376 L230.72739,27.46376 Z" id="Fill-26" fill="#F8C300"></path>
                <path d="M234.50274,16.32794 C234.50274,16.20704 234.52764,16.09334 234.57744,15.98684 C234.63414,15.87284 234.70164,15.78404 234.78024,15.72014 C234.96504,15.59924 235.15704,15.53864 235.35624,15.53864 L236.96664,15.53864 C237.10164,15.53864 237.20844,15.56354 237.28644,15.61334 C237.36474,15.66314 237.42894,15.72704 237.47874,15.80534 C237.53544,15.88364 237.58194,15.97244 237.61734,16.07204 C237.65994,16.17164 237.70974,16.27124 237.76674,16.37084 C237.78084,16.39904 237.80904,16.47044 237.85194,16.58414 C237.89484,16.69064 237.94104,16.81154 237.99054,16.94684 C238.04034,17.07464 238.08654,17.19914 238.12944,17.32004 C238.17924,17.43374 238.21104,17.50844 238.22514,17.54414 C238.43874,17.30924 238.64124,17.06414 238.83354,16.80824 C239.03244,16.54484 239.24214,16.30304 239.46264,16.08284 C239.68314,15.86234 239.92854,15.68084 240.19854,15.53894 C240.46884,15.39674 240.78894,15.32534 241.15884,15.32534 C241.54254,15.32534 241.88394,15.35384 242.18274,15.41084 C242.48844,15.46754 242.77644,15.55304 243.04644,15.66674 C243.31674,15.77324 243.58344,15.91214 243.84654,16.08284 C244.11684,16.25324 244.40844,16.45244 244.72134,16.68014 C245.21184,16.94324 245.30424,17.33414 244.99854,17.85314 L244.02774,19.50674 C243.88554,19.72004 243.71124,19.85144 243.50514,19.90124 C243.29904,19.95104 243.07494,19.91924 242.83344,19.80524 C242.52744,19.50674 242.21454,19.28624 241.89474,19.14404 C241.58184,18.99464 241.22244,18.91994 240.81744,18.91994 C240.53994,18.91994 240.29484,18.95924 240.08124,19.03724 C239.87514,19.11554 239.68644,19.22594 239.51604,19.36814 C239.34534,19.51034 239.18514,19.68104 239.03604,19.87994 C238.88664,20.07914 238.73724,20.29964 238.58784,20.54144 L238.58784,28.26374 C238.58784,28.53404 238.52064,28.74014 238.38534,28.88264 C238.25754,29.01764 238.04034,29.08514 237.73464,29.08514 L235.33464,29.08514 C234.78024,29.08514 234.50274,28.81124 234.50274,28.26374 L234.50274,16.32794 Z" id="Fill-28" fill="#F8C300"></path>
                <path d="M249.20802,22.32266 C249.20802,22.79156 249.27882,23.23256 249.42132,23.64506 C249.57072,24.05066 249.78042,24.40256 250.05072,24.70136 C250.32072,24.99986 250.64442,25.23806 251.02122,25.41596 C251.40522,25.58636 251.82822,25.67186 252.29052,25.67186 C252.76692,25.67186 253.20792,25.58636 253.61322,25.41596 C254.02572,25.23806 254.38092,24.99986 254.67972,24.70136 C254.98572,24.40256 255.22392,24.05066 255.39432,23.64506 C255.56502,23.23256 255.65052,22.79156 255.65052,22.32266 C255.65052,21.86726 255.56502,21.43376 255.39432,21.02126 C255.22392,20.60876 254.98572,20.24606 254.67972,19.93316 C254.38092,19.62026 254.02572,19.37516 253.61322,19.19726 C253.20792,19.01246 252.76692,18.92006 252.29052,18.92006 C251.82822,18.92006 251.40522,19.01246 251.02122,19.19726 C250.64442,19.37516 250.32072,19.62026 250.05072,19.93316 C249.78042,20.24606 249.57072,20.60876 249.42132,21.02126 C249.27882,21.43376 249.20802,21.86726 249.20802,22.32266 L249.20802,22.32266 Z M259.71432,28.29566 C259.71432,28.41656 259.69302,28.53386 259.65042,28.64786 C259.60782,28.75436 259.53672,28.83986 259.43712,28.90376 C259.35882,28.98176 259.26612,29.03156 259.15962,29.05316 C259.05282,29.07446 258.96072,29.08526 258.88242,29.08526 L256.78122,29.08526 C256.63182,29.08526 256.51092,29.06726 256.41852,29.03186 C256.32612,28.98956 256.25142,28.93226 256.19442,28.86146 C256.13772,28.79036 256.08792,28.70486 256.04502,28.60526 C256.00962,28.49876 255.97032,28.38476 255.92772,28.26416 L255.61842,27.46406 C255.42672,27.65576 255.21672,27.86216 254.98932,28.08266 C254.76162,28.29596 254.50932,28.49486 254.23182,28.67996 C253.96182,28.86506 253.66632,29.01776 253.34652,29.13866 C253.02672,29.26646 252.68532,29.33066 252.32262,29.33066 C251.67552,29.33066 251.05332,29.24876 250.45602,29.08526 C249.86562,28.92176 249.31122,28.69076 248.79192,28.39196 C248.27982,28.08626 247.81422,27.72356 247.39482,27.30386 C246.97512,26.87756 246.61272,26.40446 246.30672,25.88546 C246.00792,25.36646 245.77692,24.80786 245.61342,24.21086 C245.44992,23.60606 245.36802,22.97696 245.36802,22.32266 C245.36802,21.33446 245.54952,20.41676 245.91222,19.57076 C246.27492,18.71756 246.76872,17.97806 247.39452,17.35226 C248.02032,16.71926 248.75652,16.22516 249.60252,15.86966 C250.44882,15.50696 251.35542,15.32546 252.32262,15.32546 C252.76362,15.32546 253.16862,15.39326 253.53882,15.52826 C253.90842,15.65636 254.24232,15.82706 254.54112,16.04036 C254.84712,16.25366 255.12072,16.49546 255.36252,16.76576 C255.61152,17.03576 255.83172,17.30966 256.02402,17.58686 L256.43982,16.29626 C256.51092,16.11836 256.56762,15.97616 256.61052,15.86966 C256.66032,15.75566 256.71012,15.67406 256.75992,15.62426 C256.81662,15.56726 256.88442,15.53186 256.96272,15.51746 C257.04072,15.49616 257.15112,15.48536 257.29302,15.48536 L258.88242,15.48536 C258.96072,15.48536 259.05312,15.49616 259.15992,15.51746 C259.26642,15.53906 259.35882,15.58886 259.43712,15.66686 C259.53672,15.74516 259.60782,15.83426 259.65042,15.93356 C259.69302,16.03316 259.71432,16.14716 259.71432,16.27496 L259.71432,28.29596 L259.71432,28.29566 Z" id="Fill-30" fill="#F8C300"></path>
                <path d="M263.11524,13.42667 C263.11524,13.20647 263.18604,13.04267 263.32854,12.93617 C263.47764,12.82217 263.68764,12.71567 263.95794,12.61607 L266.37924,11.77337 C266.41464,11.76647 266.44644,11.76287 266.47494,11.76287 L266.57124,11.76287 C266.83404,11.76287 267.00864,11.84117 267.09384,11.99747 C267.18594,12.14687 267.23244,12.34607 267.23244,12.59507 L267.22164,15.95477 L269.00304,15.95477 C269.23074,15.95477 269.41554,16.02227 269.55804,16.15757 C269.69994,16.29257 269.77134,16.49537 269.77134,16.76537 L269.77134,18.82397 C269.77134,19.12277 269.69994,19.34327 269.55804,19.48547 C269.41554,19.62047 269.23074,19.68797 269.00304,19.68797 L267.22164,19.68797 L267.23244,28.26377 C267.23244,28.53407 267.15414,28.74047 266.99754,28.88267 C266.84124,29.01767 266.62434,29.08517 266.34684,29.08517 L263.93634,29.08517 C263.38884,29.08517 263.11524,28.81127 263.11524,28.26377 L263.10474,19.68797 L262.32594,19.68797 C261.77844,19.68797 261.50454,19.39997 261.50454,18.82397 L261.50454,16.76537 C261.50454,16.22507 261.77844,15.95477 262.32594,15.95477 L263.10474,15.95477 L263.11524,13.42667 Z" id="Fill-32" fill="#F8C300"></path>
                <path d="M271.4496,10.97348 C271.4496,10.67468 271.5135,10.46498 271.6416,10.34408 C271.7694,10.21628 271.9686,10.15208 272.2389,10.15208 L274.7136,10.15208 C274.9623,10.15208 275.1615,10.21628 275.3109,10.34408 C275.4675,10.46498 275.5455,10.67468 275.5455,10.97348 L275.5455,13.05338 C275.5455,13.13858 275.5242,13.23128 275.4813,13.33058 C275.4459,13.43018 275.3928,13.52618 275.3214,13.61858 C275.2506,13.71098 275.1615,13.78928 275.055,13.85348 C274.9554,13.91018 274.8417,13.93868 274.7136,13.93868 L272.2389,13.93868 C271.7127,13.93868 271.4496,13.64348 271.4496,13.05338 L271.4496,10.97348 Z M271.4496,16.37078 C271.4496,16.14308 271.5135,15.94748 271.6416,15.78398 C271.7694,15.62048 271.9686,15.53858 272.2389,15.53858 L274.6815,15.53858 C274.767,15.53858 274.8591,15.56018 274.9587,15.60278 C275.0583,15.63818 275.151,15.69518 275.2362,15.77348 C275.3214,15.84428 275.3928,15.92978 275.4495,16.02938 C275.5134,16.12898 275.5455,16.24268 275.5455,16.37078 L275.5455,28.26368 C275.5455,28.53398 275.4708,28.74008 275.3214,28.88258 C275.172,29.01758 274.9587,29.08508 274.6815,29.08508 L272.2389,29.08508 C271.7127,29.08508 271.4496,28.81118 271.4496,28.26368 L271.4496,16.37078 Z" id="Fill-34" fill="#F8C300"></path>
                <path d="M277.17831,16.59467 C277.03611,16.30307 277.00791,16.05407 277.09311,15.84797 C277.18551,15.64187 277.39881,15.53867 277.73331,15.53867 L280.46361,15.53867 C280.64841,15.53867 280.80861,15.58847 280.94361,15.68807 C281.08581,15.78767 281.18541,15.92987 281.24241,16.11467 C281.36301,16.49147 281.49471,16.91477 281.63691,17.38397 C281.78631,17.85317 281.93931,18.33677 282.09591,18.83477 C282.25941,19.32527 282.41931,19.81607 282.57561,20.30687 C282.73221,20.79017 282.87411,21.23807 283.00221,21.65057 C283.13721,22.05617 283.25481,22.41137 283.35441,22.71737 C283.46091,23.01587 283.53921,23.22917 283.58901,23.35727 L285.85011,16.11467 C285.94281,15.88727 286.04601,15.73427 286.15941,15.65597 C286.28061,15.57797 286.44741,15.53867 286.66071,15.53867 L289.46601,15.53867 C289.67211,15.53867 289.82871,15.56357 289.93521,15.61337 C290.04201,15.66317 290.11311,15.73067 290.14881,15.81617 C290.18451,15.90137 290.19141,16.00097 290.17011,16.11467 C290.14821,16.22147 290.11281,16.33517 290.06331,16.45607 L284.98581,28.62647 C284.90781,28.75457 284.81541,28.86467 284.70891,28.95707 C284.60211,29.04257 284.44221,29.08517 284.22891,29.08517 L282.95961,29.08517 C282.67491,29.08517 282.47211,29.04587 282.35151,28.96787 C282.23751,28.88237 282.15231,28.76897 282.09561,28.62647 L277.17831,16.59467 Z" id="Fill-36" fill="#F8C300"></path>
                <path d="M294.39435,22.32266 C294.39435,22.79156 294.46545,23.23256 294.60795,23.64506 C294.75705,24.05066 294.96675,24.40256 295.23735,24.70136 C295.50735,24.99986 295.83075,25.23806 296.20785,25.41596 C296.59155,25.58636 297.01485,25.67186 297.47685,25.67186 C297.95355,25.67186 298.39425,25.58636 298.79985,25.41596 C299.21235,25.23806 299.56755,24.99986 299.86635,24.70136 C300.17205,24.40256 300.41055,24.05066 300.58095,23.64506 C300.75165,23.23256 300.83715,22.79156 300.83715,22.32266 C300.83715,21.86726 300.75165,21.43376 300.58095,21.02126 C300.41055,20.60876 300.17205,20.24606 299.86635,19.93316 C299.56755,19.62026 299.21235,19.37516 298.79985,19.19726 C298.39425,19.01246 297.95355,18.92006 297.47685,18.92006 C297.01485,18.92006 296.59155,19.01246 296.20785,19.19726 C295.83075,19.37516 295.50735,19.62026 295.23735,19.93316 C294.96675,20.24606 294.75705,20.60876 294.60795,21.02126 C294.46545,21.43376 294.39435,21.86726 294.39435,22.32266 L294.39435,22.32266 Z M304.90065,28.29566 C304.90065,28.41656 304.87965,28.53386 304.83705,28.64786 C304.79415,28.75436 304.72335,28.83986 304.62375,28.90376 C304.54545,28.98176 304.45275,29.03156 304.34625,29.05316 C304.23945,29.07446 304.14735,29.08526 304.06905,29.08526 L301.96755,29.08526 C301.81845,29.08526 301.69755,29.06726 301.60485,29.03186 C301.51275,28.98956 301.43805,28.93226 301.38105,28.86146 C301.32435,28.79036 301.27455,28.70486 301.23165,28.60526 C301.19625,28.49876 301.15695,28.38476 301.11435,28.26416 L300.80505,27.46406 C300.61305,27.65576 300.40335,27.86216 300.17565,28.08266 C299.94825,28.29596 299.69565,28.49486 299.41845,28.67996 C299.14815,28.86506 298.85295,29.01776 298.53315,29.13866 C298.21305,29.26646 297.87195,29.33066 297.50925,29.33066 C296.86215,29.33066 296.23965,29.24876 295.64235,29.08526 C295.05225,28.92176 294.49785,28.69076 293.97855,28.39196 C293.46645,28.08626 293.00055,27.72356 292.58115,27.30386 C292.16175,26.87756 291.79905,26.40446 291.49335,25.88546 C291.19455,25.36646 290.96325,24.80786 290.80005,24.21086 C290.63655,23.60606 290.55465,22.97696 290.55465,22.32266 C290.55465,21.33446 290.73615,20.41676 291.09855,19.57076 C291.46125,18.71756 291.95535,17.97806 292.58115,17.35226 C293.20695,16.71926 293.94285,16.22516 294.78915,15.86966 C295.63545,15.50696 296.54205,15.32546 297.50925,15.32546 C297.95025,15.32546 298.35525,15.39326 298.72515,15.52826 C299.09475,15.65636 299.42895,15.82706 299.72775,16.04036 C300.03345,16.25366 300.30735,16.49546 300.54915,16.76576 C300.79815,17.03576 301.01835,17.30966 301.21035,17.58686 L301.62615,16.29626 C301.69755,16.11836 301.75425,15.97616 301.79715,15.86966 C301.84695,15.75566 301.89675,15.67406 301.94655,15.62426 C302.00325,15.56726 302.07075,15.53186 302.14905,15.51746 C302.22705,15.49616 302.33775,15.48536 302.47965,15.48536 L304.06905,15.48536 C304.14735,15.48536 304.23945,15.49616 304.34625,15.51746 C304.45305,15.53906 304.54545,15.58886 304.62375,15.66686 C304.72335,15.74516 304.79445,15.83426 304.83705,15.93356 C304.87965,16.03316 304.90095,16.14716 304.90095,16.27496 L304.90095,28.29596 L304.90065,28.29566 Z" id="Fill-38" fill="#F8C300"></path>
                <path d="M309.48603,24.87179 C309.67833,25.06379 309.88413,25.22759 310.10493,25.36259 C310.33233,25.49069 310.54923,25.59719 310.75533,25.68239 C310.96173,25.76069 311.14293,25.81739 311.29953,25.85309 C311.45553,25.88879 311.56263,25.90649 311.61933,25.90649 C311.75463,25.90649 311.92503,25.90319 312.13113,25.89599 C312.34443,25.88189 312.54723,25.84979 312.73923,25.79999 C312.93123,25.74299 313.09473,25.65389 313.22973,25.53329 C313.37223,25.41239 313.44303,25.24139 313.44303,25.02119 C313.44303,24.82199 313.40433,24.66569 313.32603,24.55199 C313.24773,24.43079 313.13403,24.33149 312.98463,24.25319 C312.83523,24.16799 312.65043,24.09329 312.42993,24.02909 C312.21693,23.96549 311.97483,23.89049 311.70483,23.80529 C310.85133,23.57789 310.14723,23.30369 309.59253,22.98389 C309.03813,22.66409 308.59713,22.30829 308.27013,21.91709 C307.95003,21.51899 307.72623,21.09239 307.59813,20.63729 C307.47003,20.18219 307.40613,19.70219 307.40613,19.19729 C307.40613,18.60719 307.52343,18.07019 307.75803,17.58659 C307.99263,17.10299 308.32713,16.69079 308.76063,16.34939 C309.19443,16.00109 309.71373,15.73439 310.31793,15.54929 C310.92243,15.35759 311.59443,15.26129 312.33393,15.26129 C312.78183,15.26129 313.20153,15.30059 313.59243,15.37889 C313.98363,15.44999 314.35713,15.56729 314.71263,15.73079 C315.06813,15.88739 315.41313,16.09349 315.74733,16.34939 C316.08873,16.59839 316.42653,16.89689 316.76073,17.24549 C316.88133,17.38769 316.94193,17.52269 316.94193,17.65079 C316.94913,17.77169 316.87053,17.90309 316.70703,18.04559 C316.42983,18.27299 316.16343,18.49679 315.90723,18.71729 C315.65823,18.93779 315.39873,19.18319 315.12873,19.45349 C315.04323,19.52459 314.95773,19.57079 314.87253,19.59209 C314.78733,19.60619 314.70543,19.60289 314.62743,19.58159 C314.54913,19.55999 314.47443,19.52459 314.40333,19.47509 C314.33223,19.42529 314.26803,19.36469 314.21133,19.29359 C313.96263,19.01609 313.67823,18.83129 313.35783,18.73889 C313.03803,18.63929 312.73953,18.58949 312.46203,18.58949 C312.11373,18.58949 311.83623,18.65009 311.62983,18.77099 C311.42373,18.89189 311.32803,19.07669 311.34213,19.32569 C311.35593,19.51049 311.42373,19.65629 311.54463,19.76279 C311.67273,19.86239 311.82573,19.94429 312.00363,20.00819 C312.18843,20.07209 312.38013,20.12549 312.57963,20.16809 C312.78573,20.20379 312.97413,20.24639 313.14453,20.29619 C313.78473,20.50259 314.37123,20.72639 314.90463,20.96819 C315.43803,21.20999 315.90033,21.50879 316.29153,21.86429 C316.68243,22.21259 316.98453,22.63199 317.19783,23.12279 C317.41833,23.61359 317.52873,24.21089 317.52873,24.91499 C317.52873,25.61879 317.38653,26.24819 317.10213,26.80289 C316.82463,27.35729 316.44063,27.82319 315.94983,28.19999 C315.45933,28.57709 314.87613,28.86509 314.20083,29.06429 C313.53213,29.26319 312.81033,29.36279 312.03543,29.36279 C311.59443,29.36279 311.14653,29.32349 310.69143,29.24519 C310.23633,29.16689 309.79533,29.04269 309.36873,28.87199 C308.94213,28.69409 308.53683,28.47029 308.15283,28.19999 C307.76853,27.92279 307.42773,27.58859 307.12893,27.19739 C307.05063,27.09779 306.99033,26.99459 306.94743,26.88809 C306.91203,26.77439 306.89403,26.66429 306.89403,26.55749 C306.90123,26.45069 306.92253,26.35469 306.95793,26.26949 C307.00083,26.17709 307.06473,26.09879 307.15023,26.03489 L308.52603,24.65879 C308.69673,24.51629 308.84613,24.46679 308.97423,24.50939 C309.10923,24.55229 309.27993,24.67289 309.48603,24.87209 L309.48603,24.87179 Z" id="Fill-40" fill="#F8C300"></path>
            </g>
        </g>
    </g>
</svg>