<?xml version="1.0" encoding="UTF-8" standalone="no"?>
<!-- Creator: CorelDRAW -->

<svg
   xmlns:dc="http://purl.org/dc/elements/1.1/"
   xmlns:cc="http://creativecommons.org/ns#"
   xmlns:rdf="http://www.w3.org/1999/02/22-rdf-syntax-ns#"
   xmlns:svg="http://www.w3.org/2000/svg"
   xmlns="http://www.w3.org/2000/svg"
   xmlns:sodipodi="http://sodipodi.sourceforge.net/DTD/sodipodi-0.dtd"
   xmlns:inkscape="http://www.inkscape.org/namespaces/inkscape"
   xml:space="preserve"
   width="195.63133mm"
   height="61.778282mm"
   style="clip-rule:evenodd;fill-rule:evenodd;image-rendering:optimizeQuality;shape-rendering:geometricPrecision;text-rendering:geometricPrecision"
   viewBox="0 0 29.609015 9.3501637"
   id="svg2"
   version="1.1"
   inkscape:version="0.91 r13725"
   sodipodi:docname="logo-audiencias-full.svg"><metadata
     id="metadata31"><rdf:RDF><cc:Work
         rdf:about=""><dc:format>image/svg+xml</dc:format><dc:type
           rdf:resource="http://purl.org/dc/dcmitype/StillImage" /><dc:title></dc:title></cc:Work></rdf:RDF></metadata><sodipodi:namedview
     pagecolor="#ffffff"
     bordercolor="#666666"
     borderopacity="1"
     objecttolerance="10"
     gridtolerance="10"
     guidetolerance="10"
     inkscape:pageopacity="0"
     inkscape:pageshadow="2"
     inkscape:window-width="1861"
     inkscape:window-height="1053"
     id="namedview29"
     showgrid="false"
     fit-margin-top="0"
     fit-margin-left="0"
     fit-margin-right="0"
     fit-margin-bottom="0"
     inkscape:zoom="0.99220506"
     inkscape:cx="551.96955"
     inkscape:cy="-36.21557"
     inkscape:window-x="1139"
     inkscape:window-y="451"
     inkscape:window-maximized="1"
     inkscape:current-layer="svg2"
     inkscape:snap-bbox="true"
     inkscape:snap-page="true"
     inkscape:bbox-nodes="true"
     inkscape:snap-intersection-paths="true"
     inkscape:bbox-paths="true"
     inkscape:snap-bbox-edge-midpoints="true"
     inkscape:snap-bbox-midpoints="true" /><defs
     id="defs4"><style
       type="text/css"
       id="style6"><![CDATA[
    .fil4 {fill:#DEDEDD}
    .fil0 {fill:#F8C300}
    .fil3 {fill:white}
    .fil5 {fill:#293554}
    .fil1 {fill:#3D9BCA}
    .fil2 {fill:#47C7FF}
    .fil7 {fill:#F8C300;fill-rule:nonzero}
    .fil6 {fill:white;fill-rule:nonzero}
   ]]></style></defs><g
     id="g4356"><g
       id="g4306"><path
         style="fill:#f8c300"
         inkscape:connector-curvature="0"
         id="path10"
         d="M 2.1413636,0.11000153 C 4.1526843,1.3694861 5.9941966,2.5426279 8.0055174,3.8021124 8.1493953,3.8921919 8.2253021,3.9716966 8.2043546,4.0541771 8.2253021,4.1366576 8.1493953,4.2161455 8.0055174,4.306225 5.9941966,5.5657096 4.1526843,6.7388514 2.1413636,7.9983359 1.9239826,8.1344638 1.8362903,8.188531 1.8362903,7.8953445 l 0,-3.8411697 0,-3.84118068 c 0,-0.29318658 0.087692,-0.23911933 0.3050733,-0.10299114 z"
         class="fil0" /><path
         id="_118245840"
         class="fil1"
         d="m 1.7891278,2.7081108 c 0.7679106,0 1.3906704,0.6227553 1.3906704,1.3906705 0,0.6254445 -0.4131245,1.1545691 -0.9813238,1.3293874 l -0.8186999,0 C 0.81157514,5.253356 0.39845066,4.7242281 0.39845066,4.0987813 c 0,-0.7679107 0.62275534,-1.3906705 1.39068154,-1.3906705 z"
         inkscape:connector-curvature="0"
         style="fill:#3d9bca" /><path
         id="_118250904"
         class="fil2"
         d="M 1.3798855,5.4281687 C 0.81163513,5.2533893 0.39844399,4.7242781 0.39844399,4.0987813 c 0,-0.7317818 0.56552673,-1.3317423 1.28328911,-1.3865827 0.5001603,0.2605712 0.8418002,0.7837307 0.8418002,1.3865827 0,0.040954 -0.00163,0.081539 -0.00472,0.1217029 l -1.56517766,-0.022831 0.0273533,0.011718 1.31339175,0.2784929 c 0.076074,0.016123 0.1707439,0.047057 0.1369521,0.1408021 C 2.3108731,4.9627398 2.0797404,5.243973 1.7822328,5.4281665 l -0.4023475,0 z"
         inkscape:connector-curvature="0"
         style="fill:#47c7ff" /><path
         style="fill:#ffffff"
         inkscape:connector-curvature="0"
         id="path15"
         d="m 1.3797745,5.4281687 -0.2681202,0 c -0.058927,0 -0.1071437,0.039743 -0.1071437,0.088298 l 0,0.2452888 c 0,0.048553 0.048217,0.088298 0.1071437,0.088298 l 1.3579017,0 c 0.058909,0 0.1071603,-0.039744 0.1071603,-0.088298 l 0,-0.2452888 c 0,-0.048536 -0.048217,-0.088298 -0.1071603,-0.088298 l -0.2710783,0 -0.4162347,0 -0.4024652,0 z"
         class="fil3" /><path
         style="fill:#ffffff"
         inkscape:connector-curvature="0"
         id="path17"
         d="m 2.3281563,5.9750506 -1.084904,0 0.2115803,3.102763 c 0.00269,0.039693 0.032582,0.072377 0.072377,0.072377 l 0.2584695,0 0.2585207,0 c 0.039761,0 0.069653,-0.032683 0.07236,-0.072377 l 0.211597,-3.102763 z"
         class="fil3" /><path
         style="fill:#dededd"
         inkscape:connector-curvature="0"
         id="path19"
         d="m 2.4344602,5.5164664 0,0.2452888 c 0,0.048553 -0.048235,0.088298 -0.1071604,0.088298 l 0.1422473,0 c 0.058909,0 0.1071603,-0.039744 0.1071603,-0.088298 l 0,-0.2452888 c 0,-0.048536 -0.048218,-0.088298 -0.1071603,-0.088298 l -0.1422473,0 c 0.058944,0 0.1071604,0.039761 0.1071604,0.088298 z"
         class="fil4" /><path
         style="fill:#dededd"
         inkscape:connector-curvature="0"
         id="path21"
         d="m 1.8554427,5.9750506 -0.00999,3.102763 c -1.176e-4,0.03976 -0.032599,0.072377 -0.072377,0.072377 l 0.012609,0 0.2585206,0 c 0.039761,0 0.069653,-0.032683 0.07236,-0.072377 l 0.211597,-3.102763 -0.4727236,0 z"
         class="fil4" /><path
         style="fill:#293554"
         inkscape:connector-curvature="0"
         id="path23"
         d="m 1.0592999,3.482974 c -0.020612,0.020612 -0.054051,0.020612 -0.0746627,0 -0.0205949,-0.020612 -0.0205949,-0.054051 0,-0.074663 C 1.087477,3.3054721 1.2090962,3.2249755 1.3416261,3.170084 c 0.1323456,-0.054825 0.2751638,-0.083842 0.4206391,-0.083842 0.029152,0 0.05279,0.023621 0.05279,0.05279 0,0.029152 -0.023638,0.052773 -0.05279,0.052773 -0.1320934,0 -0.261311,0.026176 -0.3806268,0.075605 C 1.2624569,3.31677 1.1526574,3.3895999 1.0592999,3.482974 Z m 0.034314,1.820196 1.3910148,0 C 2.8661126,5.0823422 3.133022,4.6855088 3.1741773,4.2237978 c -0.9244151,0 -1.8568635,0 -2.77012175,0 0.0411561,0.461711 0.3080658,0.8585444 0.68954905,1.0793722 z M 0.67284001,4.0362875 c 0.00627,-0.045494 0.0153831,-0.090534 0.0272524,-0.1348838 0.0246802,-0.09208 0.0615324,-0.1812853 0.10988413,-0.2650599 0.0144752,-0.025168 0.0466032,-0.033843 0.071771,-0.019385 0.0251678,0.014458 0.0338428,0.046603 0.0193844,0.071771 -0.0434089,0.075218 -0.0766801,0.155949 -0.0991748,0.2398924 -0.009465,0.035389 -0.0169971,0.071334 -0.0225282,0.1076647 l 2.39890236,0 C 3.1456316,3.2973776 2.5360915,2.7081108 1.7891272,2.7081108 c -0.7469798,0 -1.35652433,0.5892646 -1.38921528,1.3281767 l 0.27292775,0 z m 0.43881289,1.3918812 1.3579018,0 c 0.058944,0 0.1071436,0.03976 0.1071436,0.088314 l 0,0.2452721 c 0,0.048553 -0.048217,0.088298 -0.1071436,0.088298 l -1.3579018,0 c -0.05891,0 -0.1071436,-0.039727 -0.1071436,-0.088298 l 0,-0.2452721 c 0,-0.04857 0.048217,-0.088314 0.1071436,-0.088314 z m 1.6273272,-0.088852 c 0.028664,0.02579 0.046755,0.063129 0.046755,0.1044711 l 0,0.3906463 c 0,0.077353 -0.06328,0.1406332 -0.1406333,0.1406332 l -0.04045,0 -0.3189261,3.2657401 C 2.2798716,9.3006918 2.2364825,9.350187 2.1763459,9.350187 l -0.3906463,0 -0.3906463,0 c -0.060137,0 -0.1035291,-0.049495 -0.1093797,-0.1093797 l -0.3189261,-3.2657401 -0.009196,0 c -0.0773526,0 -0.14063327,-0.06328 -0.14063327,-0.1406332 l 0,-0.3906463 c 0,-0.036028 0.0137355,-0.068996 0.0362133,-0.093946 C 0.50407785,5.0882617 0.26801878,4.6840981 0.23155332,4.2237978 l -0.1378085,0 C 0.04218165,4.2237973 0,4.1815989 0,4.1300361 l 0,0 C 0,4.0784737 0.04218165,4.036292 0.09374448,4.036292 l 0.13417729,0 C 0.2607559,3.202444 0.9472459,2.5362296 1.7891339,2.5362296 c 0.8418668,0 1.5283545,0.6662144 1.5611899,1.5000624 l 0.1341772,0 c 0.051562,0 0.093744,0.042182 0.093744,0.093744 l 0,0 c 0,0.051562 -0.042182,0.093761 -0.093744,0.093761 l -0.1378085,0 C 3.3107314,4.6779765 3.0804218,5.0775003 2.7389842,5.3393101 Z m -0.4108207,0.6357506 -1.0849207,0 0.211597,3.1027297 c 0.00269,0.03971 0.032599,0.072377 0.072377,0.072377 l 0.2584862,0 0.2584862,0 c 0.039794,0 0.069686,-0.032665 0.072377,-0.072377 l 0.211597,-3.1027297 z"
         class="fil5" /></g><g
       id="g4341"><path
         class="fil6"
         d="m 10.055654,2.789667 c 0.0011,-0.0066 0.0048,-0.01353 0.01088,-0.02148 0.006,-0.0077 0.01297,-0.01469 0.02202,-0.02149 0.0088,-0.0066 0.01795,-0.01186 0.02796,-0.01604 0.0097,-0.0039 0.01904,-0.0055 0.02796,-0.0055 l 0.420719,0 c 0.01849,0 0.03448,0.0055 0.04766,0.01686 0.01297,0.01143 0.02312,0.02202 0.0296,0.03069 l 0.04108,0.09366 0.862789,2.225182 c 0.0088,0.02202 0.0071,0.03941 -0.0048,0.05315 -0.01185,0.01353 -0.03288,0.02094 -0.06242,0.02094 l -0.471661,0 c -0.02531,0 -0.04439,-0.0048 -0.05808,-0.01414 -0.01353,-0.0093 -0.02476,-0.02476 -0.03234,-0.04659 -0.02176,-0.05587 -0.04325,-0.111717 -0.06406,-0.167039 -0.02094,-0.05532 -0.04167,-0.110656 -0.06248,-0.16655 l -0.872668,0 c -0.02067,0.05587 -0.04161,0.111214 -0.06298,0.16655 -0.02123,0.05532 -0.04276,0.111158 -0.06358,0.167039 -0.01415,0.04056 -0.04215,0.06081 -0.08384,0.06081 l -0.484783,0 c -0.02067,0 -0.03782,-0.0055 -0.05148,-0.01632 -0.01352,-0.01088 -0.01632,-0.02742 -0.0077,-0.04929 l 0.892388,-2.310661 z m 0.29912,0.703376 c -0.02094,0.05587 -0.04167,0.116152 -0.06302,0.180776 -0.02148,0.06465 -0.04271,0.129819 -0.06357,0.1956 -0.02067,0.06573 -0.04161,0.130364 -0.06298,0.194458 -0.02148,0.06411 -0.04271,0.124325 -0.06358,0.180232 l 0.504543,0 -0.251416,-0.751024 z m 3.388696,1.645053 c -0.01416,0.01185 -0.02904,0.01959 -0.04491,0.02285 -0.01577,0.0033 -0.03123,0.0048 -0.04545,0.0048 l -0.248179,0 c -0.0196,0 -0.03667,-0.0039 -0.05095,-0.01088 -0.01414,-0.0071 -0.02639,-0.01632 -0.03618,-0.02842 -0.0098,-0.01186 -0.01795,-0.02584 -0.02476,-0.0411 -0.0066,-0.01523 -0.01186,-0.03122 -0.01632,-0.04766 l -0.05095,-0.210369 c -0.01632,0.03397 -0.03996,0.07229 -0.07121,0.115607 -0.03123,0.04325 -0.07124,0.08378 -0.119443,0.121592 -0.0482,0.03778 -0.105733,0.06955 -0.172534,0.09531 -0.06686,0.02584 -0.143538,0.03893 -0.230065,0.03893 -0.124869,0 -0.238305,-0.0242 -0.340186,-0.07229 C 12.190437,5.078206 12.10386,5.012491 12.032104,4.929233 11.960344,4.845943 11.904475,4.748458 11.865009,4.637245 11.825599,4.526073 11.805839,4.407726 11.805839,4.28174 l 0,-1.076443 c 0,-0.04161 0.0092,-0.07339 0.02741,-0.09473 0.01795,-0.02149 0.04659,-0.03177 0.08601,-0.03177 l 0.37965,0 c 0.04711,0 0.0794,0.0077 0.09695,0.02365 0.01742,0.01578 0.02638,0.04711 0.02638,0.09315 l 0,1.069859 c 0,0.04711 0.01088,0.09145 0.03234,0.133628 0.02123,0.0422 0.04929,0.07943 0.08433,0.111773 0.03509,0.03232 0.07505,0.05808 0.119444,0.07668 0.04436,0.01849 0.08926,0.02796 0.135329,0.02796 0.03941,0 0.08049,-0.0093 0.122693,-0.02796 0.04215,-0.01849 0.08109,-0.04378 0.116667,-0.07505 0.03563,-0.03122 0.06465,-0.06792 0.08767,-0.110113 0.02286,-0.04217 0.03452,-0.08653 0.03452,-0.133669 l 0,-1.068213 c 0,-0.01849 0.0039,-0.03721 0.01088,-0.05587 0.0071,-0.01849 0.01742,-0.03282 0.03177,-0.04271 0.01414,-0.0088 0.02796,-0.01469 0.04056,-0.01795 0.01241,-0.0033 0.02692,-0.0048 0.04325,-0.0048 l 0.37142,0 c 0.04711,0 0.08109,0.01144 0.101898,0.03451 0.02067,0.02312 0.03123,0.0537 0.03123,0.09202 l 0,1.838992 c 0,0.02094 -0.0043,0.03997 -0.01353,0.05748 -0.0094,0.01769 -0.02258,0.03122 -0.03887,0.0411 l 0.0098,-0.0048 z m 1.908,-0.226773 c -0.02957,0.02958 -0.06191,0.06134 -0.09749,0.09531 -0.03563,0.03397 -0.07505,0.06575 -0.117807,0.09531 -0.04271,0.0296 -0.0887,0.0537 -0.138017,0.0729 -0.04934,0.01903 -0.102437,0.02903 -0.159423,0.02903 -0.149033,0 -0.28595,-0.02796 -0.411435,-0.08384 -0.12545,-0.05587 -0.233355,-0.132582 -0.323721,-0.229519 -0.09042,-0.097 -0.161055,-0.210914 -0.212002,-0.342384 -0.05095,-0.131465 -0.07668,-0.272826 -0.07668,-0.424011 0,-0.15227 0.02584,-0.294181 0.07668,-0.425109 0.05095,-0.13092 0.121587,-0.244832 0.212002,-0.34183 0.09036,-0.09695 0.198293,-0.173079 0.323721,-0.228431 0.125478,-0.05534 0.262405,-0.08272 0.411435,-0.08272 0.06022,0 0.115549,0.0088 0.165408,0.02639 0.04986,0.01768 0.09534,0.04002 0.136411,0.0674 0.0411,0.02743 0.07888,0.05802 0.113399,0.09256 0.03449,0.03451 0.06681,0.06848 0.09749,0.101357 l 0,-0.751028 c 0,-0.03509 0.01088,-0.06462 0.03234,-0.08876 0.02122,-0.0242 0.05315,-0.03612 0.09586,-0.03612 l 0.369775,0 c 0.01414,0 0.02959,0.0028 0.04545,0.0088 0.01578,0.006 0.03011,0.01469 0.0433,0.02584 0.01305,0.01088 0.02421,0.0242 0.03229,0.03946 0.0082,0.01523 0.01198,0.03234 0.01198,0.05095 l 0,2.456902 c 0,0.08438 -0.04436,0.126527 -0.133121,0.126527 l -0.322124,0 c -0.02203,0 -0.03887,-0.0028 -0.05095,-0.0082 -0.01198,-0.0055 -0.02176,-0.01352 -0.03011,-0.02421 -0.0082,-0.01032 -0.01578,-0.02339 -0.02231,-0.03941 -0.0065,-0.01578 -0.01469,-0.03397 -0.02475,-0.05478 l -0.04768,-0.12816 z M 14.706501,4.124124 c 0,0.07229 0.01142,0.139702 0.03397,0.202671 0.02258,0.06303 0.05424,0.117812 0.09586,0.163804 0.04167,0.04599 0.09205,0.08218 0.150692,0.109024 0.05859,0.02694 0.123246,0.04053 0.19443,0.04053 0.0701,0 0.136412,-0.01241 0.198294,-0.03779 0.06191,-0.0253 0.115602,-0.06028 0.161626,-0.104645 0.04605,-0.04439 0.08326,-0.09644 0.111224,-0.156676 0.02796,-0.06028 0.04325,-0.124925 0.04657,-0.193941 l 0,-0.02312 c 0,-0.07008 -0.01305,-0.13696 -0.03941,-0.200468 -0.02638,-0.06358 -0.06248,-0.119443 -0.10902,-0.167639 -0.04654,-0.04821 -0.101351,-0.08659 -0.164347,-0.114519 -0.06297,-0.02788 -0.131461,-0.04161 -0.204876,-0.04161 -0.07121,0 -0.135867,0.01352 -0.194457,0.04161 -0.05862,0.02794 -0.109021,0.0663 -0.150693,0.114519 -0.04162,0.04821 -0.07339,0.10406 -0.09586,0.167639 -0.02258,0.06351 -0.03397,0.130363 -0.03397,0.200468 z M 16.71808,3.207099 c 0,-0.0351 0.0098,-0.06517 0.02954,-0.09036 0.01986,-0.02528 0.0504,-0.03782 0.09205,-0.03782 l 0.376314,0 c 0.01305,0 0.02742,0.0028 0.04276,0.0088 0.01523,0.006 0.02957,0.01469 0.04271,0.02639 0.01305,0.01143 0.02475,0.0253 0.03397,0.04053 0.0093,0.01551 0.0136,0.03289 0.0136,0.05259 l 0,1.832407 c 0,0.04161 -0.01142,0.07286 -0.03449,0.0942 -0.02285,0.02149 -0.05587,0.03234 -0.09863,0.03234 l -0.376314,0 c -0.08109,0 -0.121587,-0.04215 -0.121587,-0.126529 l 0,-1.832406 z m 0,-0.831559 c 0,-0.046 0.0098,-0.07888 0.02954,-0.09805 0.01986,-0.01932 0.0504,-0.02848 0.09205,-0.02848 l 0.381251,0 c 0.03835,0 0.06961,0.0093 0.09316,0.02848 0.02339,0.01904 0.03503,0.05203 0.03503,0.09805 l 0,0.320475 c 0,0.01297 -0.0027,0.02742 -0.0087,0.04271 -0.006,0.01523 -0.01469,0.03011 -0.02584,0.04436 -0.01088,0.01416 -0.02421,0.02584 -0.04001,0.03509 -0.01578,0.0093 -0.03397,0.01415 -0.0537,0.01415 l -0.381251,0 c -0.08109,0 -0.121588,-0.04546 -0.121588,-0.136362 l 0,-0.320479 z m 2.815149,2.540723 c -0.0964,0.08869 -0.20487,0.157763 -0.325414,0.207622 -0.120498,0.04984 -0.248124,0.07505 -0.382899,0.07505 -0.150093,0 -0.291988,-0.02743 -0.425655,-0.08218 C 18.265596,5.061975 18.148389,4.985835 18.047594,4.888867 17.946815,4.791867 17.866818,4.677953 17.807656,4.546484 17.748467,4.415018 17.7189,4.272011 17.7189,4.117538 c 0,-0.09639 0.01198,-0.190107 0.03563,-0.280468 0.02366,-0.09042 0.05698,-0.174737 0.100236,-0.25362 0.0433,-0.07888 0.09588,-0.151779 0.157764,-0.21804 0.06191,-0.06626 0.130917,-0.122693 0.207623,-0.169787 0.07668,-0.04714 0.159967,-0.08384 0.249811,-0.110113 0.08982,-0.02638 0.184611,-0.03946 0.284305,-0.03946 0.09091,0 0.179116,0.01185 0.264581,0.03618 0.08544,0.02421 0.165952,0.05808 0.240999,0.101897 0.07504,0.04382 0.143549,0.09639 0.205969,0.157765 0.06247,0.06136 0.116155,0.128187 0.161061,0.20104 0.04496,0.07286 0.07998,0.150637 0.104629,0.233355 0.02464,0.08272 0.03672,0.168182 0.03672,0.255822 0,0.05698 -5.81e-4,0.103585 -0.0022,0.139704 -0.0016,0.03618 -0.01042,0.06465 -0.02573,0.08601 -0.01537,0.02149 -0.04056,0.03612 -0.07614,0.04436 -0.03562,0.0082 -0.08822,0.01241 -0.157217,0.01241 l -1.183269,0 c 0.01088,0.07008 0.03343,0.128746 0.06686,0.175827 0.03337,0.04711 0.07175,0.08438 0.115549,0.112316 0.04385,0.02797 0.09042,0.04821 0.139703,0.06023 0.04929,0.01185 0.09586,0.01823 0.139675,0.01823 0.03947,0 0.07997,-0.0043 0.121641,-0.01241 0.04162,-0.0082 0.08217,-0.01904 0.121043,-0.03288 0.03892,-0.01353 0.0745,-0.02958 0.106818,-0.04765 0.03234,-0.01795 0.05807,-0.03666 0.07779,-0.05645 0.01741,-0.01415 0.03289,-0.0253 0.04545,-0.03229 0.01251,-0.0071 0.02573,-0.01032 0.04001,-0.01032 0.01423,0 0.02904,0.0048 0.04381,0.01469 0.0148,0.0097 0.03123,0.02421 0.04984,0.04276 l 0.174235,0.197178 c 0.01202,0.01415 0.01969,0.02694 0.02298,0.03834 0.0033,0.01143 0.0049,0.02365 0.0049,0.03558 0,0.02202 -0.006,0.04056 -0.01809,0.05645 -0.01202,0.01603 -0.02628,0.03014 -0.04271,0.0422 z M 18.742741,3.547281 c -0.04271,0 -0.08383,0.0082 -0.123791,0.0253 -0.04001,0.01686 -0.0778,0.04002 -0.112856,0.06845 -0.03503,0.02848 -0.06626,0.06081 -0.0942,0.097 -0.02796,0.03612 -0.05095,0.07285 -0.06849,0.110112 l 0.839787,0 c -0.02285,-0.04276 -0.04766,-0.08217 -0.0745,-0.118355 -0.02693,-0.03618 -0.05753,-0.06793 -0.09202,-0.09531 -0.03452,-0.02743 -0.07399,-0.04874 -0.118351,-0.06411 -0.04436,-0.01523 -0.0964,-0.02312 -0.155588,-0.02312 z m 0.02796,-1.341038 c 0.0076,-0.0055 0.0136,-0.0093 0.01795,-0.01143 0.0043,-0.0022 0.01033,-0.0033 0.01822,-0.0033 0.0087,0 0.01958,0.0048 0.03283,0.01469 l 0.422364,0.420719 c 0.0087,0.0066 0.01305,0.01933 0.01305,0.03782 0,0.0097 -0.0049,0.02012 -0.01469,0.03122 l -0.144599,0.147891 c -0.01198,0.01185 -0.02693,0.01795 -0.04436,0.01795 -0.01414,0 -0.02639,-0.0048 -0.03618,-0.01469 L 18.806867,2.613759 18.573513,2.848773 c -0.01198,0.01186 -0.02475,0.01632 -0.03835,0.01298 -0.0136,-0.0033 -0.0253,-0.0093 -0.03397,-0.01795 L 18.353295,2.700809 c -0.0054,-0.0055 -0.0087,-0.01144 -0.01033,-0.01741 -0.0016,-0.006 -0.0033,-0.01186 -0.0043,-0.01849 0,-0.0088 0.0017,-0.01604 0.0043,-0.02149 0.0027,-0.0055 0.006,-0.01032 0.01033,-0.01469 L 18.77072,2.206364 Z m 1.391981,0.900612 c 0.01423,-0.01185 0.02958,-0.01959 0.04546,-0.02312 0.01586,-0.0033 0.03068,-0.0048 0.04491,-0.0048 l 0.248176,0 c 0.01969,0 0.03667,0.0033 0.05094,0.01032 0.01423,0.0071 0.02627,0.01685 0.03613,0.02899 0.0099,0.01185 0.01809,0.02584 0.02415,0.0411 0.006,0.01523 0.01148,0.03122 0.01697,0.04765 l 0.05094,0.210371 c 0.0164,-0.03397 0.04052,-0.07284 0.07175,-0.116151 0.03123,-0.04325 0.07065,-0.08378 0.118898,-0.121591 0.0482,-0.03778 0.105726,-0.06955 0.171993,-0.09531 0.06631,-0.02584 0.143,-0.03838 0.230616,-0.03838 0.124889,0 0.2383,0.0242 0.340187,0.07229 0.101886,0.04826 0.189001,0.113976 0.260751,0.197231 0.07175,0.08329 0.127082,0.180233 0.16655,0.29144 0.03942,0.111215 0.05917,0.230063 0.05917,0.356055 l 0,1.076445 c 0,0.04161 -0.0088,0.07284 -0.02682,0.0942 -0.01809,0.02149 -0.04715,0.03234 -0.08657,0.03234 l -0.379654,0 c -0.0471,0 -0.07943,-0.0082 -0.09695,-0.0242 -0.01752,-0.01577 -0.02627,-0.04657 -0.02627,-0.09261 l 0,-1.069858 c 0,-0.04711 -0.01039,-0.09202 -0.03178,-0.134184 -0.02135,-0.04221 -0.04985,-0.07943 -0.08488,-0.111773 -0.03508,-0.03234 -0.07454,-0.05753 -0.118897,-0.07614 -0.04436,-0.01849 -0.08981,-0.02796 -0.135862,-0.02796 -0.03942,0 -0.07943,0.0088 -0.120499,0.02639 -0.04106,0.01741 -0.07888,0.04161 -0.113411,0.07285 -0.03448,0.03122 -0.06352,0.06793 -0.08707,0.110113 -0.02353,0.04216 -0.03727,0.08821 -0.04056,0.137491 l 0,1.068213 c 0,0.01849 -0.0033,0.03721 -0.01039,0.05587 -0.0071,0.01849 -0.01809,0.03284 -0.03233,0.04271 -0.01425,0.0088 -0.0274,0.01469 -0.04002,0.01795 -0.01257,0.0033 -0.0274,0.0048 -0.04381,0.0048 l -0.37142,0 c -0.0471,0 -0.08108,-0.01143 -0.101887,-0.03451 -0.02081,-0.02284 -0.03123,-0.0537 -0.03123,-0.09202 l 0,-1.838993 c 0,-0.02094 0.0049,-0.03996 0.01425,-0.05748 0.0093,-0.01769 0.0219,-0.03122 0.03832,-0.0411 l -0.0098,0.0048 z m 3.635184,1.41663 c 0.01537,-0.01088 0.03013,-0.01822 0.04386,-0.02094 0.01368,-0.0028 0.0241,-0.0039 0.03174,-0.0039 0.01866,0 0.03562,0.0039 0.05094,0.01143 0.01537,0.0077 0.03123,0.02421 0.0477,0.04929 l 0.184018,0.277767 c 0.0055,0.0088 0.01096,0.01849 0.01591,0.02955 0.0049,0.01088 0.0071,0.01985 0.0071,0.02639 0,0.0253 -0.0077,0.04551 -0.02353,0.06136 -0.01591,0.01578 -0.03343,0.03011 -0.05204,0.04215 -0.08986,0.06248 -0.187905,0.112317 -0.294732,0.150121 -0.106828,0.03779 -0.220236,0.05698 -0.339637,0.05698 -0.09859,0 -0.193391,-0.01242 -0.284855,-0.03782 -0.0915,-0.0253 -0.17693,-0.06136 -0.255814,-0.107923 -0.07888,-0.04654 -0.151231,-0.102441 -0.216945,-0.167611 -0.06576,-0.06523 -0.121595,-0.13749 -0.167646,-0.217495 -0.04601,-0.07997 -0.08163,-0.166551 -0.107376,-0.259115 -0.02573,-0.0926 -0.03887,-0.188991 -0.03887,-0.289791 0,-0.100779 0.01311,-0.197749 0.03887,-0.29089 0.02573,-0.09311 0.06137,-0.179661 0.107376,-0.259114 0.04605,-0.07942 0.101886,-0.151726 0.167646,-0.216952 0.06571,-0.06517 0.138059,-0.120504 0.216945,-0.166497 0.07888,-0.04605 0.164305,-0.08163 0.255814,-0.10682 0.09146,-0.0253 0.18626,-0.03782 0.284855,-0.03782 0.119403,0 0.230069,0.01604 0.331406,0.04765 0.101337,0.03177 0.196136,0.07888 0.284855,0.141363 l -0.0049,-0.0048 c 0.0241,0.01414 0.04331,0.03069 0.05753,0.04986 0.01425,0.01931 0.02135,0.04331 0.02135,0.07182 0,0.01959 -0.0065,0.03997 -0.01969,0.06076 l -0.146244,0.248178 c -0.03069,0.0537 -0.06795,0.08055 -0.111766,0.08055 -0.0099,0 -0.0219,-0.0028 -0.03617,-0.0077 -0.01423,-0.0048 -0.03009,-0.01298 -0.04765,-0.0253 -0.0482,-0.03177 -0.09969,-0.05808 -0.155025,-0.07835 -0.05533,-0.02012 -0.114461,-0.03011 -0.176929,-0.03011 -0.06901,0 -0.132575,0.01353 -0.19065,0.04161 -0.05808,0.02794 -0.107372,0.0663 -0.148443,0.114519 -0.04106,0.04821 -0.0734,0.10406 -0.0964,0.167637 -0.02298,0.06351 -0.03453,0.130364 -0.03453,0.200471 0,0.07229 0.01151,0.139702 0.03453,0.202672 0.02299,0.06303 0.05533,0.117811 0.0964,0.163803 0.04106,0.046 0.09036,0.08218 0.148443,0.109024 0.05808,0.02694 0.121641,0.04053 0.19065,0.04053 0.06247,0 0.121048,-0.01088 0.17583,-0.03289 0.05479,-0.02202 0.106828,-0.04984 0.156122,-0.08378 z m 0.691897,-1.316389 c 0,-0.03509 0.0098,-0.06517 0.02955,-0.09036 0.01975,-0.02528 0.05039,-0.03782 0.09206,-0.03782 l 0.376314,0 c 0.01316,0 0.0274,0.0028 0.04276,0.0088 0.01531,0.006 0.02958,0.01469 0.04271,0.02638 0.01317,0.01143 0.02464,0.02531 0.03398,0.04053 0.0093,0.01551 0.01368,0.03288 0.01368,0.05259 l 0,1.83241 c 0,0.04161 -0.01148,0.07285 -0.03448,0.0942 -0.02298,0.02122 -0.05588,0.03234 -0.09864,0.03234 l -0.376314,0 c -0.08108,0 -0.121596,-0.04215 -0.121596,-0.126529 l 0,-1.832409 z m 0,-0.831559 c 0,-0.046 0.0098,-0.07888 0.02955,-0.09806 0.01975,-0.01932 0.05039,-0.02848 0.09206,-0.02848 l 0.381252,0 c 0.03837,0 0.0696,0.0093 0.09315,0.02848 0.02353,0.01903 0.03503,0.05203 0.03503,0.09806 l 0,0.320476 c 0,0.01296 -0.0027,0.0274 -0.0087,0.04271 -0.006,0.01523 -0.0148,0.03011 -0.02573,0.04436 -0.01096,0.01415 -0.0241,0.02584 -0.04001,0.03509 -0.01586,0.0093 -0.03398,0.01415 -0.05369,0.01415 l -0.381252,0 c -0.08108,0 -0.121595,-0.04546 -0.121595,-0.13636 l 0,-0.32048 z m 3.173414,2.668904 c 0,0.01849 -0.0033,0.03612 -0.0099,0.05315 -0.0065,0.01686 -0.01752,0.03066 -0.03283,0.04053 -0.01208,0.01186 -0.02628,0.01959 -0.04276,0.02285 -0.0164,0.0033 -0.03064,0.0048 -0.04271,0.0048 l -0.323771,0 c -0.02298,0 -0.04162,-0.0033 -0.05583,-0.0092 -0.01425,-0.006 -0.02573,-0.01415 -0.03453,-0.0253 -0.0088,-0.01088 -0.01591,-0.02476 -0.0219,-0.04053 -0.006,-0.01577 -0.01262,-0.03288 -0.0192,-0.05148 l -0.04765,-0.12325 c -0.02958,0.02954 -0.06187,0.06077 -0.09695,0.0942 -0.03507,0.03343 -0.0734,0.06461 -0.115609,0.09311 -0.04216,0.02851 -0.08817,0.05203 -0.137464,0.07124 -0.0493,0.01903 -0.101887,0.02902 -0.157769,0.02902 -0.09969,0 -0.195037,-0.01241 -0.286498,-0.03782 -0.09153,-0.0253 -0.176954,-0.06139 -0.256386,-0.107922 -0.07943,-0.04657 -0.151777,-0.102441 -0.216392,-0.167611 -0.06466,-0.06523 -0.119998,-0.13749 -0.16655,-0.217497 -0.04655,-0.07995 -0.08272,-0.16655 -0.107924,-0.259113 -0.02519,-0.0926 -0.03778,-0.188991 -0.03778,-0.289792 0,-0.152269 0.02795,-0.294183 0.08382,-0.425108 0.05584,-0.130921 0.132024,-0.244835 0.228423,-0.341834 0.0964,-0.09695 0.20981,-0.173078 0.340186,-0.228432 0.130376,-0.05532 0.270037,-0.08272 0.419071,-0.08272 0.06791,0 0.130374,0.0097 0.187355,0.03011 0.05693,0.02012 0.108975,0.04711 0.155575,0.07999 0.04655,0.03288 0.08872,0.07008 0.126538,0.111773 0.03778,0.04161 0.0712,0.08384 0.10079,0.126527 l 0.06407,-0.198837 c 0.01096,-0.02743 0.02029,-0.04988 0.0274,-0.06686 0.0071,-0.01686 0.0148,-0.0296 0.02307,-0.03778 0.0082,-0.0082 0.01806,-0.01353 0.03009,-0.01659 0.01208,-0.0028 0.02904,-0.0037 0.05094,-0.0037 l 0.244882,0 c 0.01208,0 0.02628,0.0017 0.04271,0.0048 0.01646,0.0033 0.03068,0.01087 0.04276,0.02312 0.01531,0.01185 0.02628,0.02584 0.03283,0.0411 0.0066,0.01523 0.0099,0.03282 0.0099,0.05259 l 0,1.852118 z M 26.044415,4.124122 c 0,0.07229 0.01151,0.139701 0.03398,0.202671 0.02244,0.06303 0.05424,0.117812 0.09585,0.163803 0.04166,0.046 0.09206,0.08218 0.150635,0.109025 0.05862,0.02694 0.123287,0.04053 0.194493,0.04053 0.0734,0 0.141901,-0.01353 0.204871,-0.04053 0.06302,-0.02694 0.1178,-0.06302 0.164354,-0.109025 0.04655,-0.04598 0.08272,-0.100778 0.109021,-0.163803 0.02628,-0.06298 0.03942,-0.130363 0.03942,-0.202671 0,-0.07008 -0.01311,-0.136961 -0.03942,-0.20047 -0.02628,-0.06358 -0.06247,-0.119443 -0.109021,-0.167638 -0.04655,-0.04821 -0.101336,-0.08659 -0.164354,-0.114519 -0.06297,-0.02788 -0.131473,-0.04161 -0.204871,-0.04161 -0.0712,0 -0.135861,0.01353 -0.194493,0.04161 -0.05858,0.02796 -0.108974,0.0663 -0.150635,0.114519 -0.04162,0.04821 -0.0734,0.104059 -0.09585,0.167638 -0.02244,0.06351 -0.03398,0.130363 -0.03398,0.20047 z m 2.325425,0.392774 c 0.02958,0.0296 0.06192,0.05424 0.09645,0.0745 0.03448,0.02012 0.06736,0.0367 0.09914,0.04929 0.03178,0.01241 0.05972,0.02204 0.08382,0.02743 0.0241,0.0055 0.04052,0.0082 0.0493,0.0082 0.02081,0 0.04765,-0.0011 0.07998,-0.0028 0.03233,-0.0017 0.06297,-0.0066 0.09256,-0.01469 0.02958,-0.0082 0.05533,-0.02149 0.07669,-0.03997 0.02135,-0.01849 0.03178,-0.04491 0.03178,-0.07888 0,-0.03069 -0.006,-0.05532 -0.01806,-0.07339 -0.01208,-0.01795 -0.02958,-0.03343 -0.05259,-0.04598 -0.02298,-0.01241 -0.05094,-0.02365 -0.08437,-0.03343 -0.03343,-0.0097 -0.0712,-0.02148 -0.112861,-0.0345 -0.131475,-0.03504 -0.239903,-0.07723 -0.32537,-0.126529 -0.08547,-0.04929 -0.15283,-0.104646 -0.202675,-0.165461 -0.04984,-0.06077 -0.08492,-0.125999 -0.104631,-0.196091 -0.01975,-0.07008 -0.02958,-0.144108 -0.02958,-0.221877 0,-0.0909 0.01806,-0.173648 0.05424,-0.248124 0.03613,-0.0745 0.08762,-0.138621 0.154476,-0.191736 0.06681,-0.05315 0.146794,-0.0942 0.239948,-0.123251 0.09311,-0.02902 0.19664,-0.04328 0.3106,-0.04328 0.06901,0 0.13367,0.0055 0.193895,0.01686 0.06027,0.01143 0.117801,0.02957 0.172586,0.05424 0.05479,0.02476 0.108425,0.05645 0.160468,0.09531 0.05204,0.03893 0.103533,0.08547 0.155071,0.139165 0.01861,0.02202 0.02843,0.04215 0.02901,0.06136 5.81e-4,0.01903 -0.01202,0.03997 -0.03722,0.06188 -0.04276,0.03507 -0.08328,0.0696 -0.122144,0.103529 -0.03892,0.03397 -0.07943,0.07175 -0.121095,0.11339 -0.01311,0.01088 -0.02628,0.01742 -0.03942,0.02012 -0.01317,0.0028 -0.02573,0.0028 -0.03782,-5.46e-4 -0.01202,-0.0033 -0.02353,-0.0088 -0.03453,-0.01632 -0.01093,-0.0077 -0.02081,-0.01715 -0.02955,-0.02796 -0.03837,-0.04276 -0.08218,-0.07175 -0.131474,-0.08659 -0.04935,-0.01469 -0.09535,-0.02202 -0.138061,-0.02202 -0.05369,0 -0.0964,0.0093 -0.128183,0.02796 -0.03178,0.01849 -0.04655,0.04712 -0.04436,0.08547 0.0021,0.02848 0.01311,0.05041 0.03228,0.06626 0.0192,0.01577 0.04276,0.02903 0.0707,0.03893 0.02789,0.0097 0.05748,0.01742 0.08872,0.02365 0.03123,0.006 0.05972,0.01298 0.08602,0.02094 0.09859,0.03177 0.189002,0.06626 0.271134,0.103528 0.08218,0.03727 0.153423,0.08272 0.213651,0.13696 0.06027,0.05423 0.107374,0.119417 0.140804,0.195004 0.03343,0.07558 0.04985,0.167637 0.04985,0.276118 0,0.108425 -0.02135,0.20542 -0.06466,0.290845 -0.04326,0.08545 -0.102981,0.15722 -0.178575,0.215294 -0.07559,0.05808 -0.164855,0.102441 -0.268389,0.133125 -0.103535,0.03069 -0.215297,0.046 -0.334745,0.046 -0.06791,0 -0.136915,-0.006 -0.207068,-0.01795 -0.0701,-0.01185 -0.138014,-0.03177 -0.203774,-0.05862 -0.06571,-0.02694 -0.128184,-0.06134 -0.187356,-0.10353 -0.05913,-0.04216 -0.111719,-0.09311 -0.15777,-0.153385 -0.01202,-0.01523 -0.02081,-0.03177 -0.02682,-0.04874 -0.006,-0.01685 -0.0087,-0.03343 -0.0082,-0.04984 5.81e-4,-0.01632 0.0038,-0.03177 0.0098,-0.04546 0.006,-0.01353 0.01537,-0.02529 0.02849,-0.03509 L 28.22197,4.484185 c 0.02628,-0.02202 0.04985,-0.02958 0.0701,-0.02312 0.02029,0.0066 0.04605,0.0253 0.07779,0.05587 z"
         id="path25"
         inkscape:connector-curvature="0"
         style="clip-rule:evenodd;fill:#ffffff;fill-rule:nonzero;image-rendering:optimizeQuality;shape-rendering:geometricPrecision;text-rendering:geometricPrecision" /><g
         transform="translate(-17.008692,28.063501)"
         style="font-style:normal;font-weight:normal;font-size:3.84093618px;line-height:125%;font-family:sans-serif;letter-spacing:0px;word-spacing:0px;clip-rule:evenodd;fill:#f8c300;fill-opacity:1;fill-rule:evenodd;stroke:none;stroke-width:1px;stroke-linecap:butt;stroke-linejoin:miter;stroke-opacity:1;image-rendering:optimizeQuality;shape-rendering:geometricPrecision;text-rendering:geometricPrecision"
         id="flowRoot3358"><path
           d="m 23.29344,-21.728431 q 0,-0.03457 0.02113,-0.05954 0.02112,-0.02497 0.06337,-0.02497 l 0.564618,0 q 0.02881,0 0.06146,0.02305 0.03265,0.02305 0.03265,0.06145 l 0,2.682894 q 0,0.0845 -0.0941,0.0845 l -0.564618,0 q -0.0845,0 -0.0845,-0.0845 l 0,-2.682894 z"
           style="font-style:normal;font-variant:normal;font-weight:normal;font-stretch:normal;font-family:COCOGOOSE;-inkscape-font-specification:COCOGOOSE;fill:#f8c300;fill-opacity:1"
           id="path4317" /><path
           d="m 24.629785,-21.367383 q 0.02497,-0.02113 0.05185,-0.02689 0.02881,-0.0058 0.05377,-0.0058 l 0.289991,0 q 0.03457,0 0.05953,0.01344 0.02497,0.01152 0.04225,0.03265 0.01728,0.02113 0.02689,0.04801 0.01152,0.02689 0.02113,0.05569 l 0.05953,0.245819 q 0.02881,-0.05953 0.08258,-0.134432 0.05569,-0.07682 0.140194,-0.142115 0.0845,-0.06722 0.199729,-0.111387 0.117148,-0.04609 0.270786,-0.04609 0.218933,0 0.397537,0.0845 0.178603,0.0845 0.303434,0.230456 0.126751,0.145956 0.195887,0.341844 0.06914,0.193967 0.06914,0.414821 l 0,1.257906 q 0,0.07298 -0.03265,0.111388 -0.03073,0.03649 -0.09986,0.03649 l -0.443628,0 q -0.08258,0 -0.113308,-0.02689 -0.03073,-0.02881 -0.03073,-0.109467 l 0,-1.250224 q 0,-0.08258 -0.03841,-0.155558 -0.03649,-0.0749 -0.09794,-0.130592 -0.06146,-0.05761 -0.140195,-0.09026 -0.07682,-0.03265 -0.157478,-0.03265 -0.06914,0 -0.142115,0.03073 -0.07106,0.03073 -0.132512,0.08642 -0.05953,0.05377 -0.101785,0.128672 -0.04033,0.07298 -0.04609,0.159399 l 0,1.248304 q 0,0.03265 -0.01344,0.0653 -0.01152,0.03265 -0.03649,0.04993 -0.02497,0.01536 -0.04801,0.02112 -0.02113,0.0058 -0.04993,0.0058 l -0.434026,0 q -0.08258,0 -0.119069,-0.04033 -0.03649,-0.04033 -0.03649,-0.107547 l 0,-2.149003 q 0,-0.03649 0.01536,-0.06722 0.01728,-0.03073 0.04609,-0.04801 l -0.01152,0.0058 z"
           style="font-style:normal;font-variant:normal;font-weight:normal;font-stretch:normal;font-family:COCOGOOSE;-inkscape-font-specification:COCOGOOSE;fill:#f8c300;fill-opacity:1"
           id="path4319" /><path
           d="m 27.503406,-21.780284 q 0,-0.05953 0.03841,-0.08834 0.04033,-0.03073 0.113308,-0.05761 l 0.435946,-0.151717 q 0.0096,-0.0019 0.01728,-0.0019 0.0096,0 0.01728,0 0.07106,0 0.0941,0.04225 0.02497,0.04033 0.02497,0.107546 l -0.0019,0.604947 0.320718,0 q 0.06146,0 0.09986,0.03649 0.03841,0.03649 0.03841,0.109467 l 0,0.37065 q 0,0.08066 -0.03841,0.119069 -0.03841,0.03649 -0.09986,0.03649 l -0.320718,0 0.0019,1.544056 q 0,0.07298 -0.04225,0.111388 -0.04225,0.03649 -0.117149,0.03649 l -0.434025,0 q -0.147876,0 -0.147876,-0.147876 l -0.0019,-1.544056 -0.140194,0 q -0.147876,0 -0.147876,-0.155558 l 0,-0.37065 q 0,-0.145956 0.147876,-0.145956 l 0.140194,0 0.0019,-0.455151 z"
           style="font-style:normal;font-variant:normal;font-weight:normal;font-stretch:normal;font-family:COCOGOOSE;-inkscape-font-specification:COCOGOOSE;fill:#f8c300;fill-opacity:1"
           id="path4321" /><path
           d="m 30.989295,-19.252948 q -0.169001,0.155558 -0.380252,0.2439 -0.211252,0.08642 -0.447469,0.08642 -0.263104,0 -0.497402,-0.09602 -0.234297,-0.09602 -0.41098,-0.265024 -0.176683,-0.170922 -0.280388,-0.401378 -0.103705,-0.230456 -0.103705,-0.501242 0,-0.169001 0.04033,-0.32648 0.04225,-0.159399 0.117148,-0.297672 0.07682,-0.138274 0.184365,-0.253502 0.109467,-0.117149 0.243899,-0.199729 0.134433,-0.08258 0.291912,-0.128671 0.157478,-0.04609 0.332241,-0.04609 0.159398,0 0.309195,0.04225 0.149796,0.04225 0.280388,0.119069 0.132513,0.07682 0.241979,0.184365 0.109467,0.107546 0.188206,0.236217 0.07874,0.126751 0.12099,0.272707 0.04417,0.144035 0.04417,0.297672 0,0.09986 -0.0038,0.16324 -0.0019,0.06338 -0.02881,0.101785 -0.02689,0.03649 -0.09026,0.05185 -0.06145,0.01344 -0.182444,0.01344 l -1.382737,0 q 0.0192,0.12291 0.07682,0.20549 0.05953,0.08258 0.136353,0.132512 0.07682,0.04801 0.16324,0.06914 0.08642,0.02113 0.163239,0.02113 0.06914,0 0.142115,-0.01344 0.07298,-0.01536 0.140194,-0.03841 0.06914,-0.02497 0.124831,-0.05569 0.05761,-0.03265 0.09218,-0.06722 0.03073,-0.02497 0.05185,-0.03649 0.02304,-0.01344 0.04801,-0.01344 0.02497,0 0.04993,0.01728 0.02689,0.01728 0.05953,0.04993 l 0.20357,0.230456 q 0.02112,0.02497 0.02689,0.04609 0.0058,0.0192 0.0058,0.04033 0,0.03841 -0.02112,0.06722 -0.02113,0.02689 -0.04993,0.04801 z m -0.923745,-1.59975 q -0.0749,0 -0.145955,0.03073 -0.06914,0.02881 -0.130592,0.07874 -0.06146,0.04993 -0.111387,0.113308 -0.04801,0.06338 -0.07874,0.128671 l 0.981359,0 q -0.04033,-0.0749 -0.08834,-0.138274 -0.04609,-0.06338 -0.107546,-0.111387 -0.05953,-0.04801 -0.138274,-0.0749 -0.07682,-0.02689 -0.180524,-0.02689 z"
           style="font-style:normal;font-variant:normal;font-weight:normal;font-stretch:normal;font-family:COCOGOOSE;-inkscape-font-specification:COCOGOOSE;fill:#f8c300;fill-opacity:1"
           id="path4323" /><path
           d="m 31.669082,-21.257916 q 0,-0.03265 0.01344,-0.06145 0.01536,-0.03073 0.03649,-0.04801 0.04993,-0.03265 0.103705,-0.03265 l 0.289991,0 q 0.03649,0 0.05761,0.01344 0.02112,0.01344 0.03457,0.03457 0.01536,0.02112 0.02497,0.04801 0.01152,0.02689 0.02689,0.05377 0.0038,0.0077 0.01536,0.03841 0.01152,0.02881 0.02497,0.0653 0.01344,0.03457 0.02497,0.06722 0.01344,0.03073 0.01728,0.04033 0.05761,-0.06337 0.109467,-0.132512 0.05377,-0.07106 0.113307,-0.130592 0.05953,-0.05954 0.132512,-0.09794 0.07298,-0.03841 0.172843,-0.03841 0.103705,0 0.184365,0.01536 0.08258,0.01536 0.155557,0.04609 0.07298,0.02881 0.144036,0.0749 0.07298,0.04609 0.157478,0.107546 0.132512,0.07106 0.04993,0.211252 l -0.174762,0.297672 q -0.03841,0.05761 -0.0941,0.07106 -0.05569,0.01344 -0.12099,-0.01728 -0.08258,-0.08066 -0.169001,-0.119069 -0.0845,-0.04033 -0.193967,-0.04033 -0.0749,0 -0.132513,0.02113 -0.05569,0.02112 -0.101784,0.05953 -0.04609,0.03841 -0.08642,0.09218 -0.04033,0.05377 -0.08066,0.119069 l 0,1.390418 q 0,0.07298 -0.03649,0.111388 -0.03457,0.03649 -0.117149,0.03649 l -0.432105,0 q -0.149796,0 -0.149796,-0.147876 l 0,-2.149003 z"
           style="font-style:normal;font-variant:normal;font-weight:normal;font-stretch:normal;font-family:COCOGOOSE;-inkscape-font-specification:COCOGOOSE;fill:#f8c300;fill-opacity:1"
           id="path4325" /><path
           d="m 36.208378,-19.103151 q 0,0.03265 -0.01152,0.06338 -0.01152,0.02881 -0.03841,0.04609 -0.02113,0.02112 -0.04993,0.02689 -0.02881,0.0058 -0.04993,0.0058 l -0.378332,0 q -0.04033,0 -0.0653,-0.0096 -0.02497,-0.01152 -0.04033,-0.03073 -0.01536,-0.0192 -0.02689,-0.04609 -0.0096,-0.02881 -0.02112,-0.06146 l -0.05569,-0.144035 q -0.05185,0.05185 -0.113308,0.111387 -0.06146,0.05761 -0.136353,0.107547 -0.07298,0.04993 -0.159399,0.08258 -0.08642,0.03457 -0.184365,0.03457 -0.174762,0 -0.336082,-0.04417 -0.159398,-0.04417 -0.299593,-0.12483 -0.138273,-0.08258 -0.251581,-0.195888 -0.113308,-0.115228 -0.195888,-0.255422 -0.08066,-0.140194 -0.12483,-0.301513 -0.04417,-0.16324 -0.04417,-0.339923 0,-0.266945 0.09794,-0.495481 0.09794,-0.230456 0.266945,-0.399457 0.169001,-0.170922 0.397537,-0.266945 0.228536,-0.09794 0.489719,-0.09794 0.119069,0 0.218934,0.03649 0.09986,0.03457 0.180524,0.09218 0.08258,0.05761 0.147876,0.130592 0.06722,0.07298 0.119069,0.147876 l 0.0749,-0.232377 q 0.0192,-0.04801 0.03073,-0.07682 0.01344,-0.03073 0.02689,-0.04417 0.01536,-0.01536 0.03649,-0.0192 0.02113,-0.0058 0.05953,-0.0058 l 0.28615,0 q 0.02113,0 0.04993,0.0058 0.02881,0.0058 0.04993,0.02689 0.02689,0.02113 0.03841,0.04801 0.01152,0.02689 0.01152,0.06145 l 0,2.164368 z m -1.891661,-1.075462 q 0,0.126751 0.03841,0.238138 0.04033,0.109466 0.113308,0.190126 0.07298,0.08066 0.174762,0.128671 0.103706,0.04609 0.228536,0.04609 0.128671,0 0.238138,-0.04609 0.111387,-0.04801 0.192047,-0.128671 0.08258,-0.08066 0.128671,-0.190126 0.04609,-0.111387 0.04609,-0.238138 0,-0.12291 -0.04609,-0.234297 -0.04609,-0.111388 -0.128671,-0.195888 -0.08066,-0.0845 -0.192047,-0.132512 -0.109467,-0.04993 -0.238138,-0.04993 -0.12483,0 -0.228536,0.04993 -0.101785,0.04801 -0.174762,0.132512 -0.07298,0.0845 -0.113308,0.195888 -0.03841,0.111387 -0.03841,0.234297 z"
           style="font-style:normal;font-variant:normal;font-weight:normal;font-stretch:normal;font-family:COCOGOOSE;-inkscape-font-specification:COCOGOOSE;fill:#f8c300;fill-opacity:1"
           id="path4327" /><path
           d="m 36.820677,-21.780284 q 0,-0.05953 0.03841,-0.08834 0.04033,-0.03073 0.113308,-0.05761 l 0.435946,-0.151717 q 0.0096,-0.0019 0.01728,-0.0019 0.0096,0 0.01729,0 0.07106,0 0.0941,0.04225 0.02497,0.04033 0.02497,0.107546 l -0.0019,0.604947 0.320718,0 q 0.06146,0 0.09987,0.03649 0.03841,0.03649 0.03841,0.109467 l 0,0.37065 q 0,0.08066 -0.03841,0.119069 -0.03841,0.03649 -0.09987,0.03649 l -0.320718,0 0.0019,1.544056 q 0,0.07298 -0.04225,0.111388 -0.04225,0.03649 -0.117148,0.03649 l -0.434026,0 q -0.147876,0 -0.147876,-0.147876 l -0.0019,-1.544056 -0.140194,0 q -0.147876,0 -0.147876,-0.155558 l 0,-0.37065 q 0,-0.145956 0.147876,-0.145956 l 0.140194,0 0.0019,-0.455151 z"
           style="font-style:normal;font-variant:normal;font-weight:normal;font-stretch:normal;font-family:COCOGOOSE;-inkscape-font-specification:COCOGOOSE;fill:#f8c300;fill-opacity:1"
           id="path4329" /><path
           d="m 38.321282,-21.250234 q 0,-0.06146 0.03457,-0.105626 0.03457,-0.04417 0.107546,-0.04417 l 0.439787,0 q 0.02305,0 0.04993,0.01152 0.02689,0.0096 0.04993,0.03073 0.02305,0.0192 0.03841,0.04609 0.01728,0.02689 0.01728,0.06146 l 0,2.141321 q 0,0.07298 -0.04033,0.111388 -0.04033,0.03649 -0.115228,0.03649 l -0.439787,0 q -0.142115,0 -0.142115,-0.147876 l 0,-2.141321 z m 0,-0.971757 q 0,-0.08066 0.03457,-0.113308 0.03457,-0.03457 0.107546,-0.03457 l 0.445549,0 q 0.06722,0 0.107546,0.03457 0.04225,0.03265 0.04225,0.113308 l 0,0.374491 q 0,0.02305 -0.01152,0.04993 -0.0096,0.02689 -0.02881,0.05185 -0.0192,0.02497 -0.04801,0.04225 -0.02689,0.01536 -0.06146,0.01536 l -0.445549,0 q -0.142115,0 -0.142115,-0.159399 l 0,-0.374491 z"
           style="font-style:normal;font-variant:normal;font-weight:normal;font-stretch:normal;font-family:COCOGOOSE;-inkscape-font-specification:COCOGOOSE;fill:#f8c300;fill-opacity:1"
           id="path4331" /><path
           d="m 39.352754,-21.209905 q -0.03841,-0.07874 -0.01536,-0.134432 0.02497,-0.05569 0.115228,-0.05569 l 0.49164,0 q 0.04993,0 0.08642,0.02689 0.03841,0.02689 0.05377,0.07682 0.03265,0.101785 0.07106,0.228536 0.04033,0.126751 0.08258,0.261184 0.04417,0.132512 0.08642,0.265024 0.04225,0.130592 0.07682,0.241979 0.03649,0.109467 0.06338,0.192047 0.02881,0.08066 0.04225,0.115228 l 0.40714,-1.303998 q 0.02497,-0.06145 0.05569,-0.08258 0.03265,-0.02112 0.09026,-0.02112 l 0.505083,0 q 0.05569,0 0.0845,0.01344 0.02881,0.01344 0.03841,0.03649 0.0096,0.02305 0.0038,0.05377 -0.0058,0.02881 -0.0192,0.06146 l -0.914143,2.191254 q -0.02112,0.03457 -0.04993,0.05954 -0.02881,0.02304 -0.08642,0.02304 l -0.228536,0 q -0.07682,0 -0.109467,-0.02112 -0.03073,-0.02304 -0.04609,-0.06146 l -0.885336,-2.166288 z"
           style="font-style:normal;font-variant:normal;font-weight:normal;font-stretch:normal;font-family:COCOGOOSE;-inkscape-font-specification:COCOGOOSE;fill:#f8c300;fill-opacity:1"
           id="path4333" /><path
           d="m 44.344111,-19.103151 q 0,0.03265 -0.01152,0.06338 -0.01152,0.02881 -0.03841,0.04609 -0.02112,0.02112 -0.04993,0.02689 -0.02881,0.0058 -0.04993,0.0058 l -0.378332,0 q -0.04033,0 -0.0653,-0.0096 -0.02497,-0.01152 -0.04033,-0.03073 -0.01536,-0.0192 -0.02689,-0.04609 -0.0096,-0.02881 -0.02112,-0.06146 l -0.05569,-0.144035 q -0.05185,0.05185 -0.113308,0.111387 -0.06146,0.05761 -0.136353,0.107547 -0.07298,0.04993 -0.159399,0.08258 -0.08642,0.03457 -0.184365,0.03457 -0.174763,0 -0.336082,-0.04417 -0.159399,-0.04417 -0.299593,-0.12483 -0.138274,-0.08258 -0.251581,-0.195888 -0.113308,-0.115228 -0.195888,-0.255422 -0.08066,-0.140194 -0.12483,-0.301513 -0.04417,-0.16324 -0.04417,-0.339923 0,-0.266945 0.09794,-0.495481 0.09794,-0.230456 0.266945,-0.399457 0.169001,-0.170922 0.397537,-0.266945 0.228535,-0.09794 0.489719,-0.09794 0.119069,0 0.218933,0.03649 0.09987,0.03457 0.180524,0.09218 0.08258,0.05761 0.147876,0.130592 0.06722,0.07298 0.119069,0.147876 l 0.0749,-0.232377 q 0.0192,-0.04801 0.03073,-0.07682 0.01344,-0.03073 0.02689,-0.04417 0.01536,-0.01536 0.03649,-0.0192 0.02113,-0.0058 0.05953,-0.0058 l 0.28615,0 q 0.02112,0 0.04993,0.0058 0.02881,0.0058 0.04993,0.02689 0.02689,0.02113 0.03841,0.04801 0.01152,0.02689 0.01152,0.06145 l 0,2.164368 z m -1.891661,-1.075462 q 0,0.126751 0.03841,0.238138 0.04033,0.109466 0.113307,0.190126 0.07298,0.08066 0.174763,0.128671 0.103705,0.04609 0.228536,0.04609 0.128671,0 0.238138,-0.04609 0.111387,-0.04801 0.192046,-0.128671 0.08258,-0.08066 0.128672,-0.190126 0.04609,-0.111387 0.04609,-0.238138 0,-0.12291 -0.04609,-0.234297 -0.04609,-0.111388 -0.128672,-0.195888 -0.08066,-0.0845 -0.192046,-0.132512 -0.109467,-0.04993 -0.238138,-0.04993 -0.124831,0 -0.228536,0.04993 -0.101785,0.04801 -0.174763,0.132512 -0.07298,0.0845 -0.113307,0.195888 -0.03841,0.111387 -0.03841,0.234297 z"
           style="font-style:normal;font-variant:normal;font-weight:normal;font-stretch:normal;font-family:COCOGOOSE;-inkscape-font-specification:COCOGOOSE;fill:#f8c300;fill-opacity:1"
           id="path4335" /><path
           d="m 45.169673,-19.719621 q 0.05185,0.05185 0.111387,0.08834 0.06146,0.03457 0.117148,0.05761 0.05569,0.02112 0.09794,0.03073 0.04225,0.0096 0.05761,0.0096 0.03649,0 0.09218,-0.0019 0.05761,-0.0038 0.109466,-0.01729 0.05185,-0.01536 0.08834,-0.04801 0.03841,-0.03265 0.03841,-0.09218 0,-0.05377 -0.02112,-0.0845 -0.02112,-0.03265 -0.06146,-0.05377 -0.04033,-0.02304 -0.09986,-0.04033 -0.05761,-0.01728 -0.130592,-0.04033 -0.230456,-0.06146 -0.380253,-0.147876 -0.149796,-0.08642 -0.238138,-0.192047 -0.08642,-0.107546 -0.120989,-0.230456 -0.03457,-0.12291 -0.03457,-0.259263 0,-0.159399 0.06338,-0.289991 0.06338,-0.130592 0.180524,-0.222774 0.117148,-0.0941 0.280388,-0.144036 0.16324,-0.05185 0.362969,-0.05185 0.120989,0 0.226615,0.02113 0.105626,0.0192 0.201649,0.06338 0.09602,0.04225 0.186285,0.111388 0.09218,0.06722 0.182445,0.161319 0.03265,0.03841 0.03265,0.07298 0.0019,0.03265 -0.04225,0.07106 -0.0749,0.06145 -0.144035,0.120989 -0.06722,0.05954 -0.140194,0.132513 -0.02305,0.0192 -0.04609,0.02497 -0.02305,0.0038 -0.04417,-0.0019 -0.02112,-0.0058 -0.04033,-0.0192 -0.0192,-0.01344 -0.03457,-0.03265 -0.06722,-0.0749 -0.153638,-0.09987 -0.08642,-0.02689 -0.161319,-0.02689 -0.0941,0 -0.149796,0.03265 -0.05569,0.03265 -0.05185,0.09986 0.0038,0.04993 0.03649,0.07874 0.03457,0.02689 0.08258,0.04417 0.04993,0.01728 0.103705,0.02881 0.05569,0.0096 0.101785,0.02305 0.172842,0.05569 0.316877,0.120989 0.144035,0.0653 0.249661,0.16132 0.105626,0.0941 0.16324,0.226615 0.05953,0.132512 0.05953,0.322638 0,0.190127 -0.07682,0.339923 -0.0749,0.149797 -0.207411,0.251582 -0.132512,0.101784 -0.314957,0.155558 -0.180524,0.05377 -0.389855,0.05377 -0.119069,0 -0.241979,-0.02113 -0.122909,-0.02112 -0.238138,-0.06722 -0.115228,-0.04801 -0.218933,-0.120989 -0.103705,-0.0749 -0.184365,-0.180524 -0.02112,-0.02689 -0.03265,-0.05569 -0.0096,-0.03073 -0.0096,-0.05953 0.0019,-0.02881 0.01152,-0.05185 0.01152,-0.02497 0.03457,-0.04225 l 0.24774,-0.247741 q 0.04609,-0.03841 0.08066,-0.02689 0.03649,0.01152 0.09218,0.0653 z"
           style="font-style:normal;font-variant:normal;font-weight:normal;font-stretch:normal;font-family:COCOGOOSE;-inkscape-font-specification:COCOGOOSE;fill:#f8c300;fill-opacity:1"
           id="path4337" /></g></g></g><flowRoot
     xml:space="preserve"
     id="flowRoot3350"
     style="font-style:normal;font-weight:normal;font-size:1.70858562px;line-height:125%;font-family:sans-serif;letter-spacing:0px;word-spacing:0px;fill:#000000;fill-opacity:1;stroke:none;stroke-width:1px;stroke-linecap:butt;stroke-linejoin:miter;stroke-opacity:1"><flowRegion
       id="flowRegion3352"><rect
         id="rect3354"
         width="14.07742"
         height="2.3677619"
         x="4.6494226"
         y="14.171813" /></flowRegion><flowPara
       id="flowPara3356"></flowPara></flowRoot></svg>