<?xml version="1.0" encoding="UTF-8" standalone="no"?>
<svg
   xmlns:dc="http://purl.org/dc/elements/1.1/"
   xmlns:cc="http://creativecommons.org/ns#"
   xmlns:rdf="http://www.w3.org/1999/02/22-rdf-syntax-ns#"
   xmlns:svg="http://www.w3.org/2000/svg"
   xmlns="http://www.w3.org/2000/svg"
   xmlns:sodipodi="http://sodipodi.sourceforge.net/DTD/sodipodi-0.dtd"
   xmlns:inkscape="http://www.inkscape.org/namespaces/inkscape"
   style="clip-rule:evenodd;fill-rule:evenodd;image-rendering:optimizeQuality;shape-rendering:geometricPrecision;text-rendering:geometricPrecision"
   xml:space="preserve"
   height="32.139347"
   width="442.85788"
   version="1.1"
   viewBox="0 0 17.127761 1.2430051"
   id="svg2"
   inkscape:version="0.91 r13725"
   sodipodi:docname="logo-audiencias-text.svg"><metadata
     id="metadata16"><rdf:RDF><cc:Work
         rdf:about=""><dc:format>image/svg+xml</dc:format><dc:type
           rdf:resource="http://purl.org/dc/dcmitype/StillImage" /><dc:title></dc:title></cc:Work></rdf:RDF></metadata><sodipodi:namedview
     pagecolor="#ffffff"
     bordercolor="#666666"
     borderopacity="1"
     objecttolerance="10"
     gridtolerance="10"
     guidetolerance="10"
     inkscape:pageopacity="0"
     inkscape:pageshadow="2"
     inkscape:window-width="1861"
     inkscape:window-height="1053"
     id="namedview14"
     showgrid="false"
     fit-margin-top="0"
     fit-margin-left="0"
     fit-margin-right="0"
     fit-margin-bottom="0"
     inkscape:zoom="0.75982168"
     inkscape:cx="264.63467"
     inkscape:cy="-78.930253"
     inkscape:window-x="1139"
     inkscape:window-y="451"
     inkscape:window-maximized="1"
     inkscape:current-layer="svg2" /><defs
     id="defs4"><style
       type="text/css"
       id="style6"><![CDATA[
    .fil1 {fill:#F8C300;fill-rule:nonzero}
    .fil0 {fill:white;fill-rule:nonzero}
   ]]></style></defs><g
     id="g3493"
     transform="translate(0.05778107,0.00540952)"><g
       id="g8"
       transform="matrix(0.9999,0,0,1,104.4,37.27)"
       style="fill-rule:nonzero"><path
         id="path10"
         class="fil0"
         d="m -104.1,-37.03 c 4.5e-4,-0.0027 9.9e-4,-0.0056 0.004,-0.0087 0.003,-0.0031 0.005,-0.006 0.01,-0.0087 0.004,-0.0027 0.007,-0.0049 0.0109,-0.0065 0.004,-0.0016 0.008,-0.0022 0.0109,-0.0022 l 0.1718,0 c 0.008,0 0.0139,0.0022 0.0194,0.007 0.005,0.0046 0.01,0.009 0.0122,0.01259 l 0.0167,0.03842 0.3524,0.9127 c 0.004,0.009 0.003,0.01617 -0.003,0.0218 -0.005,0.0056 -0.0135,0.0085 -0.0255,0.0085 l -0.1926,0 c -0.01,0 -0.018,-0.002 -0.0237,-0.0059 -0.005,-0.0038 -0.01,-0.01013 -0.0135,-0.0191 -0.01,-0.02293 -0.0176,-0.04583 -0.0262,-0.06852 -0.008,-0.02269 -0.0169,-0.04539 -0.0255,-0.06832 l -0.3564,0 c -0.008,0.02293 -0.0169,0.04562 -0.0258,0.06832 -0.008,0.02269 -0.0174,0.04559 -0.0259,0.06852 -0.005,0.01665 -0.0171,0.02494 -0.0343,0.02494 l -0.198,0 c -0.008,0 -0.0153,-0.0022 -0.021,-0.0067 -0.005,-0.0045 -0.007,-0.01122 -0.003,-0.02022 l 0.3645,-0.9478 z m 0.1221,0.2885 c -0.008,0.02293 -0.0169,0.04764 -0.0258,0.07414 -0.008,0.02653 -0.0173,0.05325 -0.0259,0.08022 -0.008,0.02695 -0.0169,0.05348 -0.0258,0.07976 -0.008,0.0263 -0.0174,0.051 -0.0258,0.07392 l 0.2061,0 -0.1026,-0.3081 z m 1.384,0.6748 c -0.005,0.0049 -0.0122,0.008 -0.0183,0.0094 -0.007,0.0013 -0.0122,0.002 -0.0184,0.002 l -0.1014,0 c -0.008,0 -0.0149,-0.0016 -0.0208,-0.0045 -0.005,-0.0029 -0.0109,-0.0067 -0.0146,-0.01163 -0.004,-0.0049 -0.007,-0.01054 -0.01,-0.01687 -0.003,-0.0063 -0.005,-0.01287 -0.007,-0.01954 l -0.0208,-0.08629 c -0.007,0.01394 -0.0163,0.02965 -0.0291,0.04741 -0.0122,0.01774 -0.0291,0.03437 -0.0488,0.04988 -0.0195,0.01549 -0.0432,0.02852 -0.0705,0.03909 -0.0273,0.01054 -0.0585,0.01597 -0.0939,0.01597 -0.051,0 -0.0973,-0.0098 -0.1389,-0.02966 -0.0416,-0.01979 -0.077,-0.04674 -0.1063,-0.08091 -0.0294,-0.03415 -0.0522,-0.07414 -0.0682,-0.1198 -0.016,-0.04559 -0.0241,-0.09415 -0.0241,-0.1458 l 0,-0.4415 c 0,-0.01707 0.004,-0.03011 0.0108,-0.03887 0.007,-0.0087 0.019,-0.013 0.0353,-0.013 l 0.1551,0 c 0.0191,0 0.0325,0.0031 0.0395,0.0097 0.007,0.0065 0.0108,0.01932 0.0108,0.03821 l 0,0.4388 c 0,0.01932 0.004,0.03752 0.0135,0.05481 0.008,0.01732 0.0201,0.03258 0.0345,0.04584 0.0142,0.01327 0.0308,0.02381 0.0488,0.03146 0.018,0.0076 0.0366,0.0115 0.0554,0.0115 0.016,0 0.0328,-0.0038 0.0502,-0.0115 0.0171,-0.0076 0.0332,-0.01797 0.0477,-0.03078 0.0145,-0.01287 0.0265,-0.02786 0.0358,-0.04517 0.01,-0.0173 0.0139,-0.03549 0.0139,-0.05484 l 0,-0.4382 c 0,-0.0076 10e-4,-0.01527 0.004,-0.02293 0.003,-0.0076 0.007,-0.01341 0.0135,-0.01752 0.005,-0.0035 0.0109,-0.006 0.0164,-0.0074 0.005,-0.0013 0.0109,-0.002 0.0176,-0.002 l 0.1517,0 c 0.0191,0 0.0332,0.0048 0.0416,0.01416 0.008,0.0094 0.0122,0.02203 0.0122,0.03774 l 0,0.7543 c 0,0.0085 -10e-4,0.01639 -0.005,0.02358 -0.004,0.0072 -0.01,0.01287 -0.0157,0.01687 l 0.004,-0.002 z m 0.7793,-0.09301 c -0.0123,0.01218 -0.0255,0.02515 -0.0398,0.0391 -0.0145,0.01393 -0.0308,0.02698 -0.0481,0.0391 -0.0174,0.01218 -0.0363,0.02203 -0.0564,0.0299 -0.0201,0.0078 -0.0419,0.01191 -0.0651,0.01191 -0.0609,0 -0.1168,-0.01149 -0.168,-0.03438 -0.0513,-0.02293 -0.0953,-0.05439 -0.1322,-0.09415 -0.0369,-0.03979 -0.0657,-0.0865 -0.0866,-0.1404 -0.0208,-0.05394 -0.0315,-0.1119 -0.0315,-0.1739 0,-0.06246 0.0109,-0.1207 0.0315,-0.1744 0.0208,-0.05369 0.0496,-0.1004 0.0866,-0.1402 0.0371,-0.03977 0.081,-0.07101 0.1322,-0.09369 0.0513,-0.02269 0.1071,-0.03393 0.168,-0.03393 0.0244,0 0.0472,0.0035 0.0675,0.01081 0.0202,0.0072 0.039,0.01642 0.0558,0.02765 0.0167,0.01122 0.0322,0.0238 0.0464,0.03797 0.0139,0.01416 0.0274,0.0281 0.0398,0.04157 l 0,-0.3081 c 0,-0.01438 0.004,-0.02651 0.0135,-0.03641 0.008,-0.0098 0.0216,-0.01483 0.0391,-0.01483 l 0.151,0 c 0.005,0 0.0122,0.0011 0.0184,0.0035 0.007,0.0025 0.0123,0.006 0.0176,0.01054 0.005,0.0045 0.01,0.0098 0.0135,0.0162 0.004,0.0063 0.005,0.01327 0.005,0.02091 l 0,1.008 c 0,0.03461 -0.018,0.0519 -0.0544,0.0519 l -0.1315,0 c -0.01,0 -0.0159,-0.0011 -0.0208,-0.0034 -0.005,-0.0022 -0.01,-0.0056 -0.0122,-0.0098 -0.003,-0.0042 -0.007,-0.0097 -0.01,-0.01616 -0.003,-0.0065 -0.005,-0.01393 -0.01,-0.02248 l -0.0194,-0.05258 z m -0.386,-0.3229 c 0,0.02966 0.005,0.05731 0.0138,0.08314 0.01,0.02585 0.0221,0.04833 0.0391,0.0672 0.017,0.01887 0.0376,0.03371 0.0614,0.04472 0.024,0.01095 0.0503,0.01662 0.0795,0.01662 0.0287,0 0.0558,-0.0052 0.081,-0.01549 0.0254,-0.0104 0.0472,-0.02471 0.0659,-0.04291 0.0187,-0.01822 0.0341,-0.03956 0.0454,-0.06426 0.0109,-0.02471 0.0176,-0.05125 0.0189,-0.07955 l 0,-0.0094 c 0,-0.02875 -0.005,-0.05617 -0.016,-0.08224 -0.0109,-0.02608 -0.0255,-0.04899 -0.0446,-0.06876 -0.0189,-0.01976 -0.0415,-0.03551 -0.0671,-0.04696 -0.0259,-0.0115 -0.0537,-0.01707 -0.0837,-0.01707 -0.0291,0 -0.0555,0.0056 -0.0795,0.01707 -0.0241,0.0115 -0.0446,0.0272 -0.0614,0.04696 -0.0169,0.01976 -0.0301,0.04268 -0.0391,0.06876 -0.01,0.02606 -0.0138,0.05349 -0.0138,0.08224 z m 0.8216,-0.3762 c 0,-0.01439 0.004,-0.02674 0.0122,-0.03707 0.008,-0.0104 0.0205,-0.01551 0.0376,-0.01551 l 0.1537,0 c 0.005,0 0.0109,0.0011 0.0173,0.0035 0.007,0.0025 0.0123,0.006 0.0173,0.01081 0.005,0.0046 0.01,0.0104 0.0138,0.01662 0.004,0.0063 0.005,0.01355 0.005,0.02158 l 0,0.7516 c 0,0.01707 -0.004,0.02988 -0.0139,0.03864 -0.01,0.0087 -0.0228,0.01327 -0.0403,0.01327 l -0.1537,0 c -0.0332,0 -0.0496,-0.0173 -0.0496,-0.0519 l 0,-0.7516 z m 0,-0.3411 c 0,-0.01887 0.004,-0.03236 0.0122,-0.04022 0.008,-0.0079 0.0205,-0.01163 0.0376,-0.01163 l 0.1557,0 c 0.0156,0 0.0285,0.0038 0.038,0.01163 0.01,0.0078 0.0142,0.02136 0.0142,0.04022 l 0,0.1315 c 0,0.0053 -10e-4,0.01122 -0.004,0.01752 -0.003,0.0063 -0.005,0.01232 -0.0109,0.01819 -0.004,0.0059 -0.01,0.01054 -0.0163,0.01438 -0.007,0.0038 -0.0138,0.0059 -0.0219,0.0059 l -0.1557,0 c -0.0332,0 -0.0496,-0.01864 -0.0496,-0.05593 l 0,-0.1315 z m 1.15,1.042 c -0.0394,0.03639 -0.0836,0.06471 -0.1329,0.08517 -0.0492,0.02045 -0.1014,0.03079 -0.1564,0.03079 -0.0613,0 -0.1192,-0.01123 -0.1738,-0.03371 -0.0547,-0.02248 -0.1025,-0.0537 -0.1436,-0.09347 -0.0412,-0.03979 -0.0739,-0.0865 -0.098,-0.1404 -0.0241,-0.05394 -0.0364,-0.1126 -0.0364,-0.1759 0,-0.03955 0.005,-0.07798 0.0145,-0.115 0.01,-0.03708 0.0233,-0.07167 0.0409,-0.104 0.0176,-0.03236 0.0391,-0.06226 0.0644,-0.08944 0.0254,-0.02719 0.0534,-0.05033 0.0847,-0.06964 0.0315,-0.01933 0.0652,-0.03439 0.1021,-0.04517 0.0367,-0.01081 0.0754,-0.0162 0.1161,-0.0162 0.0371,0 0.0732,0.0049 0.1081,0.01484 0.035,0.0098 0.0677,0.02381 0.0984,0.04178 0.0308,0.01797 0.0585,0.03955 0.0841,0.06471 0.0255,0.02517 0.0474,0.05258 0.0657,0.08246 0.0183,0.02988 0.0328,0.06179 0.0428,0.09572 0.01,0.03393 0.0149,0.06898 0.0149,0.1049 0,0.02336 -2.2e-4,0.04248 -8.9e-4,0.05731 -6.8e-4,0.01484 -0.004,0.02653 -0.0109,0.03529 -0.007,0.0087 -0.0165,0.01483 -0.0311,0.01819 -0.0145,0.0034 -0.036,0.0052 -0.0641,0.0052 l -0.4833,0 c 0.004,0.02875 0.0135,0.05281 0.0273,0.07213 0.0135,0.01931 0.0294,0.03461 0.0472,0.04607 0.0178,0.01149 0.037,0.01976 0.0571,0.0247 0.0201,0.0049 0.0391,0.0074 0.0571,0.0074 0.016,0 0.0328,-0.0018 0.0498,-0.0052 0.0169,-0.0034 0.0336,-0.0078 0.0495,-0.01355 0.0158,-0.0056 0.0304,-0.01218 0.0436,-0.01954 0.0135,-0.0074 0.0236,-0.01504 0.0319,-0.02314 0.007,-0.0059 0.0135,-0.0104 0.0185,-0.01327 0.005,-0.0029 0.0109,-0.0042 0.0163,-0.0042 0.005,0 0.0122,0.002 0.0178,0.006 0.005,0.0041 0.0122,0.0098 0.0202,0.01754 l 0.0712,0.08088 c 0.005,0.0059 0.008,0.01095 0.01,0.01574 0.001,0.0046 0.003,0.0097 0.003,0.01459 0,0.009 -0.003,0.01663 -0.007,0.02314 -0.005,0.0065 -0.0109,0.01232 -0.0173,0.01732 z m -0.3229,-0.5615 c -0.0173,0 -0.0343,0.0034 -0.0506,0.0104 -0.0163,0.007 -0.0319,0.01642 -0.0461,0.02807 -0.0142,0.01163 -0.0272,0.02495 -0.0384,0.03979 -0.0109,0.01482 -0.0208,0.02988 -0.028,0.04517 l 0.343,0 c -0.01,-0.01754 -0.0194,-0.03371 -0.0304,-0.04856 -0.0108,-0.01484 -0.0236,-0.02785 -0.0376,-0.0391 -0.0141,-0.01122 -0.0304,-0.02 -0.0484,-0.0263 -0.018,-0.0063 -0.0394,-0.0094 -0.0634,-0.0094 z m 0.0109,-0.5501 c 0.003,-0.0022 0.005,-0.0038 0.007,-0.0046 9.9e-4,-9e-4 0.004,-0.0013 0.007,-0.0013 0.004,0 0.008,0.002 0.0135,0.006 l 0.1725,0.1726 c 0.004,0.0027 0.005,0.0079 0.005,0.01551 0,0.0041 -0.001,0.0083 -0.005,0.01287 l -0.059,0.06066 c -0.005,0.0049 -0.0108,0.0074 -0.018,0.0074 -0.005,0 -0.0109,-0.002 -0.0146,-0.006 l -0.0933,-0.09572 -0.0953,0.09639 c -0.005,0.0049 -0.01,0.0067 -0.0156,0.0053 -0.005,-0.0013 -0.01,-0.0038 -0.0138,-0.0074 l -0.0603,-0.05865 c -0.003,-0.0022 -0.004,-0.0046 -0.004,-0.0071 -6.6e-4,-0.0025 -0.001,-0.0049 -0.001,-0.0076 0,-0.0035 6.8e-4,-0.0065 0.001,-0.0087 9.9e-4,-0.0022 0.003,-0.0042 0.004,-0.006 l 0.1705,-0.1732 z m 0.5685,0.3694 c 0.005,-0.0049 0.0123,-0.008 0.0185,-0.0094 0.007,-0.0013 0.0122,-0.002 0.0183,-0.002 l 0.1014,0 c 0.008,0 0.0149,0.0013 0.0207,0.0042 0.005,0.0029 0.0108,0.007 0.0146,0.01191 0.004,0.0049 0.007,0.01054 0.01,0.01687 0.003,0.0063 0.004,0.01287 0.007,0.01955 l 0.0208,0.08629 c 0.007,-0.01393 0.0164,-0.02988 0.0294,-0.04764 0.0122,-0.01774 0.029,-0.03437 0.0485,-0.04988 0.0195,-0.01549 0.0432,-0.02852 0.0702,-0.03909 0.0271,-0.01054 0.0584,-0.01575 0.0942,-0.01575 0.051,0 0.0973,0.0098 0.139,0.02965 0.04157,0.01978 0.07715,0.04674 0.1065,0.08091 0.0293,0.03415 0.05192,0.07393 0.06801,0.1196 0.01609,0.04562 0.02412,0.09437 0.02412,0.146 l 0,0.4415 c 0,0.01707 -0.0041,0.02987 -0.0109,0.03864 -0.0068,0.0087 -0.01921,0.01327 -0.0353,0.01327 l -0.1551,0 c -0.0191,0 -0.0325,-0.0034 -0.0395,-0.0098 -0.007,-0.0065 -0.0109,-0.01909 -0.0109,-0.03798 l 0,-0.4388 c 0,-0.01931 -0.004,-0.03774 -0.0122,-0.05504 -0.008,-0.01732 -0.0202,-0.03258 -0.0346,-0.04584 -0.0142,-0.01327 -0.0305,-0.0236 -0.0485,-0.03124 -0.018,-0.0076 -0.0367,-0.01149 -0.0555,-0.01149 -0.016,0 -0.0325,0.0035 -0.0492,0.01081 -0.0167,0.0071 -0.0323,0.01707 -0.0464,0.02988 -0.0139,0.01287 -0.0259,0.02786 -0.0357,0.04517 -0.01,0.01729 -0.0152,0.03617 -0.0165,0.0564 l 0,0.4382 c 0,0.0076 -9.9e-4,0.01526 -0.004,0.02293 -0.003,0.0076 -0.007,0.01341 -0.0135,0.01752 -0.005,0.0035 -0.0109,0.006 -0.0163,0.0074 -0.005,0.0013 -0.0109,0.002 -0.0178,0.002 l -0.1517,0 c -0.0191,0 -0.0331,-0.0048 -0.0416,-0.01416 -0.008,-0.0094 -0.0122,-0.02203 -0.0122,-0.03774 l 0,-0.7543 c 0,-0.0085 9.9e-4,-0.0164 0.005,-0.02358 0.004,-0.0072 0.01,-0.01286 0.0156,-0.01687 l -0.004,0.002 z m 1.485,0.5811 c 0.0068,-0.0045 0.01227,-0.0074 0.01785,-0.0085 0.0055,-0.0011 0.0095,-0.0015 0.01227,-0.0015 0.0082,0 0.01459,0.0015 0.02086,0.0046 0.0068,0.0031 0.01227,0.0098 0.01949,0.02022 l 0.07509,0.1139 c 0.0027,0.0035 0.0041,0.0076 0.0068,0.01218 0.0027,0.0045 0.0027,0.008 0.0027,0.01081 0,0.0104 -0.0027,0.01867 -0.0095,0.02517 -0.0068,0.0065 -0.01362,0.01232 -0.02127,0.0173 -0.03665,0.02563 -0.07674,0.04607 -0.1203,0.06158 -0.04362,0.01549 -0.08995,0.02338 -0.1387,0.02338 -0.04035,0 -0.07891,-0.0052 -0.1164,-0.01551 -0.03735,-0.0104 -0.07224,-0.02517 -0.1045,-0.04427 -0.03217,-0.01909 -0.06173,-0.04202 -0.08859,-0.06875 -0.02685,-0.02675 -0.04962,-0.0564 -0.06842,-0.08922 -0.0188,-0.03281 -0.03339,-0.06831 -0.04389,-0.1063 -0.0109,-0.03798 -0.01595,-0.07753 -0.01595,-0.1189 0,-0.04133 0.0055,-0.08111 0.01595,-0.1193 0.0109,-0.03819 0.02507,-0.07369 0.04389,-0.1063 0.01881,-0.03258 0.04156,-0.06224 0.06842,-0.08898 0.02686,-0.02674 0.05642,-0.04943 0.08859,-0.0683 0.03216,-0.01888 0.06706,-0.03348 0.1045,-0.04382 0.03735,-0.0104 0.07606,-0.01551 0.1164,-0.01551 0.0488,0 0.09392,0.0065 0.1353,0.01955 0.04143,0.013 0.08015,0.03236 0.1164,0.05798 l -0.0027,-0.002 c 0.0095,0.0059 0.01771,0.01259 0.02344,0.02045 0.0055,0.0079 0.0082,0.01777 0.0082,0.02945 0,0.008 -0.0027,0.0164 -0.0082,0.02492 l -0.05969,0.1018 c -0.01227,0.02203 -0.0278,0.03303 -0.04565,0.03303 -0.0041,0 -0.0095,-0.0011 -0.01472,-0.0031 -0.0055,-0.002 -0.01227,-0.0053 -0.0195,-0.0104 -0.01963,-0.013 -0.04075,-0.02381 -0.06338,-0.03213 -0.02262,-0.0083 -0.04674,-0.01232 -0.07224,-0.01232 -0.02821,0 -0.05412,0.0056 -0.07783,0.01707 -0.02371,0.01149 -0.04389,0.0272 -0.06065,0.04696 -0.01677,0.01976 -0.02998,0.04268 -0.03939,0.06876 -0.0095,0.02607 -0.01417,0.05348 -0.01417,0.08224 0,0.02965 0.0055,0.0573 0.01417,0.08314 0.0095,0.02585 0.02262,0.04833 0.03939,0.0672 0.01677,0.01887 0.03693,0.03371 0.06065,0.04472 0.02371,0.01095 0.04975,0.01662 0.07783,0.01662 0.02549,0 0.04948,-0.0045 0.07183,-0.01355 0.02235,-0.009 0.04362,-0.02045 0.06379,-0.03436 z m 0.2826,-0.54 c 0,-0.01439 0.0041,-0.02674 0.01227,-0.03707 0.0082,-0.0104 0.02058,-0.01551 0.03762,-0.01551 l 0.1537,0 c 0.0055,0 0.0109,0.0011 0.01745,0.0035 0.0068,0.0025 0.01227,0.006 0.01744,0.01081 0.0055,0.0046 0.0095,0.0104 0.0139,0.01662 0.0041,0.0063 0.0055,0.01355 0.0055,0.02158 l 0,0.7516 c 0,0.01707 -0.0041,0.02988 -0.01404,0.03864 -0.0095,0.0087 -0.02289,0.01327 -0.04034,0.01327 l -0.1537,0 c -0.03312,0 -0.04962,-0.0173 -0.04962,-0.0519 l 0,-0.7516 z m 0,-0.3411 c 0,-0.01887 0.0041,-0.03236 0.01227,-0.04022 0.0082,-0.0079 0.02058,-0.01163 0.03762,-0.01163 l 0.1557,0 c 0.01568,0 0.02848,0.0038 0.03803,0.01163 0.0095,0.0078 0.01431,0.02136 0.01431,0.04022 l 0,0.1315 c 0,0.0053 -0.0011,0.01122 -0.0041,0.01752 -0.0027,0.0063 -0.0055,0.01232 -0.0109,0.01819 -0.0041,0.0059 -0.0095,0.01054 -0.01636,0.01438 -0.0068,0.0038 -0.0139,0.0059 -0.02195,0.0059 l -0.1557,0 c -0.03312,0 -0.04962,-0.01864 -0.04962,-0.05593 l 0,-0.1315 z m 1.296,1.095 c 0,0.0076 -0.0013,0.01483 -0.0041,0.0218 -0.0027,0.007 -0.0072,0.01259 -0.01335,0.01662 -0.0049,0.0049 -0.01076,0.008 -0.01745,0.0094 -0.0067,0.0013 -0.01254,0.002 -0.01745,0.002 l -0.1322,0 c -0.0094,0 -0.017,-0.0013 -0.0228,-0.0038 -0.0059,-0.0025 -0.0105,-0.0059 -0.01411,-0.0104 -0.0035,-0.0045 -0.0065,-0.01013 -0.009,-0.01662 -0.0025,-0.0065 -0.0052,-0.01355 -0.0079,-0.02113 l -0.01946,-0.05055 c -0.01213,0.01218 -0.02527,0.02492 -0.0396,0.03864 -0.01433,0.01371 -0.02998,0.02651 -0.04721,0.03819 -0.01723,0.01164 -0.03601,0.02135 -0.05614,0.02922 -0.02013,0.0078 -0.0416,0.01191 -0.06444,0.01191 -0.04073,0 -0.07966,-0.0052 -0.117,-0.01551 -0.03737,-0.0104 -0.07227,-0.02516 -0.1047,-0.04427 -0.03244,-0.01909 -0.06201,-0.04201 -0.08845,-0.06874 -0.02645,-0.02675 -0.04907,-0.0564 -0.06801,-0.08922 -0.01894,-0.03281 -0.03379,-0.06832 -0.04403,-0.1063 -0.0109,-0.03798 -0.0154,-0.07753 -0.0154,-0.1189 0,-0.06246 0.0109,-0.1207 0.03421,-0.1744 0.02276,-0.05369 0.05398,-0.1004 0.09322,-0.1402 0.03939,-0.03977 0.08573,-0.07101 0.139,-0.09369 0.05325,-0.0227 0.1103,-0.03393 0.1712,-0.03393 0.02773,0 0.05325,0.0041 0.07653,0.01232 0.02325,0.0083 0.04452,0.01931 0.06354,0.03281 0.01901,0.01355 0.03623,0.02875 0.05168,0.04584 0.01542,0.01707 0.02907,0.03439 0.04115,0.0519 l 0.02618,-0.08155 c 0.0045,-0.01122 0.0083,-0.02046 0.01117,-0.02743 0.0029,-0.007 0.006,-0.01218 0.0094,-0.01549 0.0034,-0.0034 0.0074,-0.0056 0.01227,-0.0067 0.0049,-0.0011 0.01186,-0.0016 0.02082,-0.0016 l 0.1,0 c 0.0049,0 0.01076,6.75e-4 0.01744,0.002 0.0067,0.0013 0.01254,0.0045 0.01745,0.0094 0.0063,0.0049 0.01076,0.01054 0.01335,0.01687 0.0027,0.0063 0.0041,0.01341 0.0041,0.02158 l 0,0.7597 z m -0.6612,-0.3775 c 0,0.02966 0.0055,0.05731 0.0139,0.08314 0.0095,0.02585 0.02209,0.04833 0.03912,0.0672 0.01702,0.01887 0.03761,0.03371 0.06153,0.04472 0.02394,0.01095 0.05036,0.01662 0.07943,0.01662 0.02997,0 0.05795,-0.0056 0.08367,-0.01662 0.02574,-0.01095 0.04812,-0.02585 0.06712,-0.04472 0.01901,-0.01887 0.03378,-0.04133 0.04453,-0.0672 0.01076,-0.02584 0.01609,-0.05348 0.01609,-0.08314 0,-0.02875 -0.0053,-0.05617 -0.01609,-0.08224 -0.01076,-0.02608 -0.02551,-0.04899 -0.04453,-0.06876 -0.01901,-0.01976 -0.04138,-0.03551 -0.06712,-0.04696 -0.02573,-0.01149 -0.0537,-0.01707 -0.08367,-0.01707 -0.02908,0 -0.05548,0.0056 -0.07943,0.01707 -0.02393,0.01149 -0.04452,0.0272 -0.06153,0.04696 -0.01704,0.01976 -0.02998,0.04269 -0.03912,0.06876 -0.0095,0.02606 -0.0139,0.05349 -0.0139,0.08224 z m 0.9498,0.1611 c 0.01213,0.01218 0.02528,0.02224 0.03939,0.03055 0.01407,0.0083 0.02752,0.01506 0.0405,0.02022 0.01294,0.0052 0.02439,0.009 0.03423,0.01122 0.0098,0.0022 0.01655,0.0034 0.02013,0.0034 0.0085,0 0.01946,-4.51e-4 0.03267,-0.0011 0.01322,-6.77e-4 0.02573,-0.0027 0.03781,-0.006 0.01213,-0.0034 0.02259,-0.0087 0.03133,-0.0164 0.0087,-0.0076 0.01295,-0.01842 0.01295,-0.03236 0,-0.01259 -0.0025,-0.02269 -0.0074,-0.03011 -0.0049,-0.0074 -0.01213,-0.01371 -0.02149,-0.01887 -0.0094,-0.0052 -0.02082,-0.0097 -0.03445,-0.01371 -0.01366,-0.0041 -0.02908,-0.0087 -0.04609,-0.01416 -0.0537,-0.01438 -0.09797,-0.03169 -0.1329,-0.0519 -0.0349,-0.02022 -0.06242,-0.04291 -0.08278,-0.06787 -0.02036,-0.02492 -0.03469,-0.05167 -0.04274,-0.08043 -0.008,-0.02875 -0.01213,-0.05911 -0.01213,-0.09101 0,-0.03729 0.0074,-0.07122 0.02215,-0.1018 0.01477,-0.03055 0.03579,-0.05685 0.06309,-0.07865 0.02728,-0.02179 0.05995,-0.03865 0.098,-0.05055 0.03803,-0.01191 0.08031,-0.01774 0.1269,-0.01774 0.02818,0 0.05461,0.0022 0.07918,0.007 0.0246,0.0048 0.04811,0.01218 0.07049,0.02224 0.02238,0.01013 0.04429,0.02314 0.06554,0.0391 0.02125,0.01596 0.04228,0.03506 0.06334,0.05707 0.0076,0.009 0.01158,0.0173 0.01186,0.02517 2.24e-4,0.0078 -0.0049,0.0164 -0.01522,0.02538 -0.01745,0.01439 -0.03401,0.02855 -0.04989,0.04246 -0.01589,0.01394 -0.03244,0.02942 -0.04947,0.04652 -0.0053,0.0045 -0.01076,0.0071 -0.0161,0.0083 -0.0055,0.0011 -0.01049,0.0011 -0.01544,-2.25e-4 -0.0049,-0.0013 -0.0097,-0.0035 -0.01411,-0.0067 -0.0045,-0.0031 -0.0085,-0.007 -0.012,-0.01149 -0.01567,-0.01754 -0.03357,-0.02942 -0.05371,-0.0355 -0.02016,-0.006 -0.03894,-0.009 -0.05638,-0.009 -0.02194,0 -0.03938,0.0038 -0.05236,0.0115 -0.01294,0.0076 -0.01901,0.01932 -0.01811,0.03505 8.77e-4,0.01164 0.0053,0.02067 0.01321,0.02719 0.0079,0.0065 0.01746,0.01191 0.02888,0.01596 0.01145,0.004 0.02348,0.0071 0.03623,0.0097 0.01282,0.0025 0.02439,0.0053 0.03514,0.0085 0.04028,0.013 0.0772,0.02719 0.1107,0.04246 0.03356,0.01529 0.06267,0.03393 0.08727,0.05617 0.0246,0.02224 0.04386,0.04898 0.0575,0.07997 0.01365,0.03101 0.02036,0.06876 0.02036,0.1133 0,0.04448 -0.0087,0.08426 -0.02642,0.1193 -0.01766,0.03505 -0.04205,0.06448 -0.07293,0.08831 -0.03087,0.02381 -0.06733,0.04201 -0.1096,0.0546 -0.04229,0.01259 -0.08793,0.01887 -0.1367,0.01887 -0.02773,0 -0.05592,-0.0025 -0.08457,-0.0074 -0.02863,-0.0049 -0.05637,-0.013 -0.08322,-0.02404 -0.02683,-0.01095 -0.05234,-0.02515 -0.07653,-0.04245 -0.02415,-0.01729 -0.04563,-0.03819 -0.06443,-0.06291 -0.0049,-0.0063 -0.0085,-0.013 -0.0109,-0.02 -0.0025,-0.007 -0.0035,-0.01371 -0.0034,-0.02045 2.24e-4,-0.0067 0.0016,-0.013 0.004,-0.01864 0.0025,-0.0056 0.0063,-0.0104 0.01158,-0.01439 l 0.08659,-0.08695 c 0.01076,-0.009 0.02036,-0.01218 0.02863,-0.0094 0.0083,0.0027 0.0188,0.0104 0.03177,0.02293 z"
         inkscape:connector-curvature="0"
         style="fill:#ffffff;fill-rule:nonzero" /><g
         id="flowRoot3358"
         style="font-style:normal;font-weight:normal;font-size:3.84093618px;line-height:125%;font-family:sans-serif;letter-spacing:0px;word-spacing:0px;clip-rule:evenodd;fill:#f8c300;fill-opacity:1;fill-rule:evenodd;stroke:none;stroke-width:1px;stroke-linecap:butt;stroke-linejoin:miter;stroke-opacity:1;image-rendering:optimizeQuality;shape-rendering:geometricPrecision;text-rendering:geometricPrecision"
         transform="matrix(0.35804757,0,0,0.35801179,-104.03011,-29.262025)"><path
           id="path4317"
           style="font-style:normal;font-variant:normal;font-weight:normal;font-stretch:normal;font-family:COCOGOOSE;-inkscape-font-specification:COCOGOOSE;fill:#f8c300;fill-opacity:1"
           d="m 23.29344,-21.728431 q 0,-0.03457 0.02113,-0.05954 0.02112,-0.02497 0.06337,-0.02497 l 0.564618,0 q 0.02881,0 0.06146,0.02305 0.03265,0.02305 0.03265,0.06145 l 0,2.682894 q 0,0.0845 -0.0941,0.0845 l -0.564618,0 q -0.0845,0 -0.0845,-0.0845 l 0,-2.682894 z"
           inkscape:connector-curvature="0" /><path
           id="path4319"
           style="font-style:normal;font-variant:normal;font-weight:normal;font-stretch:normal;font-family:COCOGOOSE;-inkscape-font-specification:COCOGOOSE;fill:#f8c300;fill-opacity:1"
           d="m 24.629785,-21.367383 q 0.02497,-0.02113 0.05185,-0.02689 0.02881,-0.0058 0.05377,-0.0058 l 0.289991,0 q 0.03457,0 0.05953,0.01344 0.02497,0.01152 0.04225,0.03265 0.01728,0.02113 0.02689,0.04801 0.01152,0.02689 0.02113,0.05569 l 0.05953,0.245819 q 0.02881,-0.05953 0.08258,-0.134432 0.05569,-0.07682 0.140194,-0.142115 0.0845,-0.06722 0.199729,-0.111387 0.117148,-0.04609 0.270786,-0.04609 0.218933,0 0.397537,0.0845 0.178603,0.0845 0.303434,0.230456 0.126751,0.145956 0.195887,0.341844 0.06914,0.193967 0.06914,0.414821 l 0,1.257906 q 0,0.07298 -0.03265,0.111388 -0.03073,0.03649 -0.09986,0.03649 l -0.443628,0 q -0.08258,0 -0.113308,-0.02689 -0.03073,-0.02881 -0.03073,-0.109467 l 0,-1.250224 q 0,-0.08258 -0.03841,-0.155558 -0.03649,-0.0749 -0.09794,-0.130592 -0.06146,-0.05761 -0.140195,-0.09026 -0.07682,-0.03265 -0.157478,-0.03265 -0.06914,0 -0.142115,0.03073 -0.07106,0.03073 -0.132512,0.08642 -0.05953,0.05377 -0.101785,0.128672 -0.04033,0.07298 -0.04609,0.159399 l 0,1.248304 q 0,0.03265 -0.01344,0.0653 -0.01152,0.03265 -0.03649,0.04993 -0.02497,0.01536 -0.04801,0.02112 -0.02113,0.0058 -0.04993,0.0058 l -0.434026,0 q -0.08258,0 -0.119069,-0.04033 -0.03649,-0.04033 -0.03649,-0.107547 l 0,-2.149003 q 0,-0.03649 0.01536,-0.06722 0.01728,-0.03073 0.04609,-0.04801 l -0.01152,0.0058 z"
           inkscape:connector-curvature="0" /><path
           id="path4321"
           style="font-style:normal;font-variant:normal;font-weight:normal;font-stretch:normal;font-family:COCOGOOSE;-inkscape-font-specification:COCOGOOSE;fill:#f8c300;fill-opacity:1"
           d="m 27.503406,-21.780284 q 0,-0.05953 0.03841,-0.08834 0.04033,-0.03073 0.113308,-0.05761 l 0.435946,-0.151717 q 0.0096,-0.0019 0.01728,-0.0019 0.0096,0 0.01728,0 0.07106,0 0.0941,0.04225 0.02497,0.04033 0.02497,0.107546 l -0.0019,0.604947 0.320718,0 q 0.06146,0 0.09986,0.03649 0.03841,0.03649 0.03841,0.109467 l 0,0.37065 q 0,0.08066 -0.03841,0.119069 -0.03841,0.03649 -0.09986,0.03649 l -0.320718,0 0.0019,1.544056 q 0,0.07298 -0.04225,0.111388 -0.04225,0.03649 -0.117149,0.03649 l -0.434025,0 q -0.147876,0 -0.147876,-0.147876 l -0.0019,-1.544056 -0.140194,0 q -0.147876,0 -0.147876,-0.155558 l 0,-0.37065 q 0,-0.145956 0.147876,-0.145956 l 0.140194,0 0.0019,-0.455151 z"
           inkscape:connector-curvature="0" /><path
           id="path4323"
           style="font-style:normal;font-variant:normal;font-weight:normal;font-stretch:normal;font-family:COCOGOOSE;-inkscape-font-specification:COCOGOOSE;fill:#f8c300;fill-opacity:1"
           d="m 30.989295,-19.252948 q -0.169001,0.155558 -0.380252,0.2439 -0.211252,0.08642 -0.447469,0.08642 -0.263104,0 -0.497402,-0.09602 -0.234297,-0.09602 -0.41098,-0.265024 -0.176683,-0.170922 -0.280388,-0.401378 -0.103705,-0.230456 -0.103705,-0.501242 0,-0.169001 0.04033,-0.32648 0.04225,-0.159399 0.117148,-0.297672 0.07682,-0.138274 0.184365,-0.253502 0.109467,-0.117149 0.243899,-0.199729 0.134433,-0.08258 0.291912,-0.128671 0.157478,-0.04609 0.332241,-0.04609 0.159398,0 0.309195,0.04225 0.149796,0.04225 0.280388,0.119069 0.132513,0.07682 0.241979,0.184365 0.109467,0.107546 0.188206,0.236217 0.07874,0.126751 0.12099,0.272707 0.04417,0.144035 0.04417,0.297672 0,0.09986 -0.0038,0.16324 -0.0019,0.06338 -0.02881,0.101785 -0.02689,0.03649 -0.09026,0.05185 -0.06145,0.01344 -0.182444,0.01344 l -1.382737,0 q 0.0192,0.12291 0.07682,0.20549 0.05953,0.08258 0.136353,0.132512 0.07682,0.04801 0.16324,0.06914 0.08642,0.02113 0.163239,0.02113 0.06914,0 0.142115,-0.01344 0.07298,-0.01536 0.140194,-0.03841 0.06914,-0.02497 0.124831,-0.05569 0.05761,-0.03265 0.09218,-0.06722 0.03073,-0.02497 0.05185,-0.03649 0.02304,-0.01344 0.04801,-0.01344 0.02497,0 0.04993,0.01728 0.02689,0.01728 0.05953,0.04993 l 0.20357,0.230456 q 0.02112,0.02497 0.02689,0.04609 0.0058,0.0192 0.0058,0.04033 0,0.03841 -0.02112,0.06722 -0.02113,0.02689 -0.04993,0.04801 z m -0.923745,-1.59975 q -0.0749,0 -0.145955,0.03073 -0.06914,0.02881 -0.130592,0.07874 -0.06146,0.04993 -0.111387,0.113308 -0.04801,0.06338 -0.07874,0.128671 l 0.981359,0 q -0.04033,-0.0749 -0.08834,-0.138274 -0.04609,-0.06338 -0.107546,-0.111387 -0.05953,-0.04801 -0.138274,-0.0749 -0.07682,-0.02689 -0.180524,-0.02689 z"
           inkscape:connector-curvature="0" /><path
           id="path4325"
           style="font-style:normal;font-variant:normal;font-weight:normal;font-stretch:normal;font-family:COCOGOOSE;-inkscape-font-specification:COCOGOOSE;fill:#f8c300;fill-opacity:1"
           d="m 31.669082,-21.257916 q 0,-0.03265 0.01344,-0.06145 0.01536,-0.03073 0.03649,-0.04801 0.04993,-0.03265 0.103705,-0.03265 l 0.289991,0 q 0.03649,0 0.05761,0.01344 0.02112,0.01344 0.03457,0.03457 0.01536,0.02112 0.02497,0.04801 0.01152,0.02689 0.02689,0.05377 0.0038,0.0077 0.01536,0.03841 0.01152,0.02881 0.02497,0.0653 0.01344,0.03457 0.02497,0.06722 0.01344,0.03073 0.01728,0.04033 0.05761,-0.06337 0.109467,-0.132512 0.05377,-0.07106 0.113307,-0.130592 0.05953,-0.05954 0.132512,-0.09794 0.07298,-0.03841 0.172843,-0.03841 0.103705,0 0.184365,0.01536 0.08258,0.01536 0.155557,0.04609 0.07298,0.02881 0.144036,0.0749 0.07298,0.04609 0.157478,0.107546 0.132512,0.07106 0.04993,0.211252 l -0.174762,0.297672 q -0.03841,0.05761 -0.0941,0.07106 -0.05569,0.01344 -0.12099,-0.01728 -0.08258,-0.08066 -0.169001,-0.119069 -0.0845,-0.04033 -0.193967,-0.04033 -0.0749,0 -0.132513,0.02113 -0.05569,0.02112 -0.101784,0.05953 -0.04609,0.03841 -0.08642,0.09218 -0.04033,0.05377 -0.08066,0.119069 l 0,1.390418 q 0,0.07298 -0.03649,0.111388 -0.03457,0.03649 -0.117149,0.03649 l -0.432105,0 q -0.149796,0 -0.149796,-0.147876 l 0,-2.149003 z"
           inkscape:connector-curvature="0" /><path
           id="path4327"
           style="font-style:normal;font-variant:normal;font-weight:normal;font-stretch:normal;font-family:COCOGOOSE;-inkscape-font-specification:COCOGOOSE;fill:#f8c300;fill-opacity:1"
           d="m 36.208378,-19.103151 q 0,0.03265 -0.01152,0.06338 -0.01152,0.02881 -0.03841,0.04609 -0.02113,0.02112 -0.04993,0.02689 -0.02881,0.0058 -0.04993,0.0058 l -0.378332,0 q -0.04033,0 -0.0653,-0.0096 -0.02497,-0.01152 -0.04033,-0.03073 -0.01536,-0.0192 -0.02689,-0.04609 -0.0096,-0.02881 -0.02112,-0.06146 l -0.05569,-0.144035 q -0.05185,0.05185 -0.113308,0.111387 -0.06146,0.05761 -0.136353,0.107547 -0.07298,0.04993 -0.159399,0.08258 -0.08642,0.03457 -0.184365,0.03457 -0.174762,0 -0.336082,-0.04417 -0.159398,-0.04417 -0.299593,-0.12483 -0.138273,-0.08258 -0.251581,-0.195888 -0.113308,-0.115228 -0.195888,-0.255422 -0.08066,-0.140194 -0.12483,-0.301513 -0.04417,-0.16324 -0.04417,-0.339923 0,-0.266945 0.09794,-0.495481 0.09794,-0.230456 0.266945,-0.399457 0.169001,-0.170922 0.397537,-0.266945 0.228536,-0.09794 0.489719,-0.09794 0.119069,0 0.218934,0.03649 0.09986,0.03457 0.180524,0.09218 0.08258,0.05761 0.147876,0.130592 0.06722,0.07298 0.119069,0.147876 l 0.0749,-0.232377 q 0.0192,-0.04801 0.03073,-0.07682 0.01344,-0.03073 0.02689,-0.04417 0.01536,-0.01536 0.03649,-0.0192 0.02113,-0.0058 0.05953,-0.0058 l 0.28615,0 q 0.02113,0 0.04993,0.0058 0.02881,0.0058 0.04993,0.02689 0.02689,0.02113 0.03841,0.04801 0.01152,0.02689 0.01152,0.06145 l 0,2.164368 z m -1.891661,-1.075462 q 0,0.126751 0.03841,0.238138 0.04033,0.109466 0.113308,0.190126 0.07298,0.08066 0.174762,0.128671 0.103706,0.04609 0.228536,0.04609 0.128671,0 0.238138,-0.04609 0.111387,-0.04801 0.192047,-0.128671 0.08258,-0.08066 0.128671,-0.190126 0.04609,-0.111387 0.04609,-0.238138 0,-0.12291 -0.04609,-0.234297 -0.04609,-0.111388 -0.128671,-0.195888 -0.08066,-0.0845 -0.192047,-0.132512 -0.109467,-0.04993 -0.238138,-0.04993 -0.12483,0 -0.228536,0.04993 -0.101785,0.04801 -0.174762,0.132512 -0.07298,0.0845 -0.113308,0.195888 -0.03841,0.111387 -0.03841,0.234297 z"
           inkscape:connector-curvature="0" /><path
           id="path4329"
           style="font-style:normal;font-variant:normal;font-weight:normal;font-stretch:normal;font-family:COCOGOOSE;-inkscape-font-specification:COCOGOOSE;fill:#f8c300;fill-opacity:1"
           d="m 36.820677,-21.780284 q 0,-0.05953 0.03841,-0.08834 0.04033,-0.03073 0.113308,-0.05761 l 0.435946,-0.151717 q 0.0096,-0.0019 0.01728,-0.0019 0.0096,0 0.01729,0 0.07106,0 0.0941,0.04225 0.02497,0.04033 0.02497,0.107546 l -0.0019,0.604947 0.320718,0 q 0.06146,0 0.09987,0.03649 0.03841,0.03649 0.03841,0.109467 l 0,0.37065 q 0,0.08066 -0.03841,0.119069 -0.03841,0.03649 -0.09987,0.03649 l -0.320718,0 0.0019,1.544056 q 0,0.07298 -0.04225,0.111388 -0.04225,0.03649 -0.117148,0.03649 l -0.434026,0 q -0.147876,0 -0.147876,-0.147876 l -0.0019,-1.544056 -0.140194,0 q -0.147876,0 -0.147876,-0.155558 l 0,-0.37065 q 0,-0.145956 0.147876,-0.145956 l 0.140194,0 0.0019,-0.455151 z"
           inkscape:connector-curvature="0" /><path
           id="path4331"
           style="font-style:normal;font-variant:normal;font-weight:normal;font-stretch:normal;font-family:COCOGOOSE;-inkscape-font-specification:COCOGOOSE;fill:#f8c300;fill-opacity:1"
           d="m 38.321282,-21.250234 q 0,-0.06146 0.03457,-0.105626 0.03457,-0.04417 0.107546,-0.04417 l 0.439787,0 q 0.02305,0 0.04993,0.01152 0.02689,0.0096 0.04993,0.03073 0.02305,0.0192 0.03841,0.04609 0.01728,0.02689 0.01728,0.06146 l 0,2.141321 q 0,0.07298 -0.04033,0.111388 -0.04033,0.03649 -0.115228,0.03649 l -0.439787,0 q -0.142115,0 -0.142115,-0.147876 l 0,-2.141321 z m 0,-0.971757 q 0,-0.08066 0.03457,-0.113308 0.03457,-0.03457 0.107546,-0.03457 l 0.445549,0 q 0.06722,0 0.107546,0.03457 0.04225,0.03265 0.04225,0.113308 l 0,0.374491 q 0,0.02305 -0.01152,0.04993 -0.0096,0.02689 -0.02881,0.05185 -0.0192,0.02497 -0.04801,0.04225 -0.02689,0.01536 -0.06146,0.01536 l -0.445549,0 q -0.142115,0 -0.142115,-0.159399 l 0,-0.374491 z"
           inkscape:connector-curvature="0" /><path
           id="path4333"
           style="font-style:normal;font-variant:normal;font-weight:normal;font-stretch:normal;font-family:COCOGOOSE;-inkscape-font-specification:COCOGOOSE;fill:#f8c300;fill-opacity:1"
           d="m 39.352754,-21.209905 q -0.03841,-0.07874 -0.01536,-0.134432 0.02497,-0.05569 0.115228,-0.05569 l 0.49164,0 q 0.04993,0 0.08642,0.02689 0.03841,0.02689 0.05377,0.07682 0.03265,0.101785 0.07106,0.228536 0.04033,0.126751 0.08258,0.261184 0.04417,0.132512 0.08642,0.265024 0.04225,0.130592 0.07682,0.241979 0.03649,0.109467 0.06338,0.192047 0.02881,0.08066 0.04225,0.115228 l 0.40714,-1.303998 q 0.02497,-0.06145 0.05569,-0.08258 0.03265,-0.02112 0.09026,-0.02112 l 0.505083,0 q 0.05569,0 0.0845,0.01344 0.02881,0.01344 0.03841,0.03649 0.0096,0.02305 0.0038,0.05377 -0.0058,0.02881 -0.0192,0.06146 l -0.914143,2.191254 q -0.02112,0.03457 -0.04993,0.05954 -0.02881,0.02304 -0.08642,0.02304 l -0.228536,0 q -0.07682,0 -0.109467,-0.02112 -0.03073,-0.02304 -0.04609,-0.06146 l -0.885336,-2.166288 z"
           inkscape:connector-curvature="0" /><path
           id="path4335"
           style="font-style:normal;font-variant:normal;font-weight:normal;font-stretch:normal;font-family:COCOGOOSE;-inkscape-font-specification:COCOGOOSE;fill:#f8c300;fill-opacity:1"
           d="m 44.344111,-19.103151 q 0,0.03265 -0.01152,0.06338 -0.01152,0.02881 -0.03841,0.04609 -0.02112,0.02112 -0.04993,0.02689 -0.02881,0.0058 -0.04993,0.0058 l -0.378332,0 q -0.04033,0 -0.0653,-0.0096 -0.02497,-0.01152 -0.04033,-0.03073 -0.01536,-0.0192 -0.02689,-0.04609 -0.0096,-0.02881 -0.02112,-0.06146 l -0.05569,-0.144035 q -0.05185,0.05185 -0.113308,0.111387 -0.06146,0.05761 -0.136353,0.107547 -0.07298,0.04993 -0.159399,0.08258 -0.08642,0.03457 -0.184365,0.03457 -0.174763,0 -0.336082,-0.04417 -0.159399,-0.04417 -0.299593,-0.12483 -0.138274,-0.08258 -0.251581,-0.195888 -0.113308,-0.115228 -0.195888,-0.255422 -0.08066,-0.140194 -0.12483,-0.301513 -0.04417,-0.16324 -0.04417,-0.339923 0,-0.266945 0.09794,-0.495481 0.09794,-0.230456 0.266945,-0.399457 0.169001,-0.170922 0.397537,-0.266945 0.228535,-0.09794 0.489719,-0.09794 0.119069,0 0.218933,0.03649 0.09987,0.03457 0.180524,0.09218 0.08258,0.05761 0.147876,0.130592 0.06722,0.07298 0.119069,0.147876 l 0.0749,-0.232377 q 0.0192,-0.04801 0.03073,-0.07682 0.01344,-0.03073 0.02689,-0.04417 0.01536,-0.01536 0.03649,-0.0192 0.02113,-0.0058 0.05953,-0.0058 l 0.28615,0 q 0.02112,0 0.04993,0.0058 0.02881,0.0058 0.04993,0.02689 0.02689,0.02113 0.03841,0.04801 0.01152,0.02689 0.01152,0.06145 l 0,2.164368 z m -1.891661,-1.075462 q 0,0.126751 0.03841,0.238138 0.04033,0.109466 0.113307,0.190126 0.07298,0.08066 0.174763,0.128671 0.103705,0.04609 0.228536,0.04609 0.128671,0 0.238138,-0.04609 0.111387,-0.04801 0.192046,-0.128671 0.08258,-0.08066 0.128672,-0.190126 0.04609,-0.111387 0.04609,-0.238138 0,-0.12291 -0.04609,-0.234297 -0.04609,-0.111388 -0.128672,-0.195888 -0.08066,-0.0845 -0.192046,-0.132512 -0.109467,-0.04993 -0.238138,-0.04993 -0.124831,0 -0.228536,0.04993 -0.101785,0.04801 -0.174763,0.132512 -0.07298,0.0845 -0.113307,0.195888 -0.03841,0.111387 -0.03841,0.234297 z"
           inkscape:connector-curvature="0" /><path
           id="path4337"
           style="font-style:normal;font-variant:normal;font-weight:normal;font-stretch:normal;font-family:COCOGOOSE;-inkscape-font-specification:COCOGOOSE;fill:#f8c300;fill-opacity:1"
           d="m 45.169673,-19.719621 q 0.05185,0.05185 0.111387,0.08834 0.06146,0.03457 0.117148,0.05761 0.05569,0.02112 0.09794,0.03073 0.04225,0.0096 0.05761,0.0096 0.03649,0 0.09218,-0.0019 0.05761,-0.0038 0.109466,-0.01729 0.05185,-0.01536 0.08834,-0.04801 0.03841,-0.03265 0.03841,-0.09218 0,-0.05377 -0.02112,-0.0845 -0.02112,-0.03265 -0.06146,-0.05377 -0.04033,-0.02304 -0.09986,-0.04033 -0.05761,-0.01728 -0.130592,-0.04033 -0.230456,-0.06146 -0.380253,-0.147876 -0.149796,-0.08642 -0.238138,-0.192047 -0.08642,-0.107546 -0.120989,-0.230456 -0.03457,-0.12291 -0.03457,-0.259263 0,-0.159399 0.06338,-0.289991 0.06338,-0.130592 0.180524,-0.222774 0.117148,-0.0941 0.280388,-0.144036 0.16324,-0.05185 0.362969,-0.05185 0.120989,0 0.226615,0.02113 0.105626,0.0192 0.201649,0.06338 0.09602,0.04225 0.186285,0.111388 0.09218,0.06722 0.182445,0.161319 0.03265,0.03841 0.03265,0.07298 0.0019,0.03265 -0.04225,0.07106 -0.0749,0.06145 -0.144035,0.120989 -0.06722,0.05954 -0.140194,0.132513 -0.02305,0.0192 -0.04609,0.02497 -0.02305,0.0038 -0.04417,-0.0019 -0.02112,-0.0058 -0.04033,-0.0192 -0.0192,-0.01344 -0.03457,-0.03265 -0.06722,-0.0749 -0.153638,-0.09987 -0.08642,-0.02689 -0.161319,-0.02689 -0.0941,0 -0.149796,0.03265 -0.05569,0.03265 -0.05185,0.09986 0.0038,0.04993 0.03649,0.07874 0.03457,0.02689 0.08258,0.04417 0.04993,0.01728 0.103705,0.02881 0.05569,0.0096 0.101785,0.02305 0.172842,0.05569 0.316877,0.120989 0.144035,0.0653 0.249661,0.16132 0.105626,0.0941 0.16324,0.226615 0.05953,0.132512 0.05953,0.322638 0,0.190127 -0.07682,0.339923 -0.0749,0.149797 -0.207411,0.251582 -0.132512,0.101784 -0.314957,0.155558 -0.180524,0.05377 -0.389855,0.05377 -0.119069,0 -0.241979,-0.02113 -0.122909,-0.02112 -0.238138,-0.06722 -0.115228,-0.04801 -0.218933,-0.120989 -0.103705,-0.0749 -0.184365,-0.180524 -0.02112,-0.02689 -0.03265,-0.05569 -0.0096,-0.03073 -0.0096,-0.05953 0.0019,-0.02881 0.01152,-0.05185 0.01152,-0.02497 0.03457,-0.04225 l 0.24774,-0.247741 q 0.04609,-0.03841 0.08066,-0.02689 0.03649,0.01152 0.09218,0.0653 z"
           inkscape:connector-curvature="0" /></g></g></g></svg>