<?xml version="1.0" encoding="UTF-8" standalone="no"?>
<!-- Creator: CorelDRAW -->

<svg
   xmlns:dc="http://purl.org/dc/elements/1.1/"
   xmlns:cc="http://creativecommons.org/ns#"
   xmlns:rdf="http://www.w3.org/1999/02/22-rdf-syntax-ns#"
   xmlns:svg="http://www.w3.org/2000/svg"
   xmlns="http://www.w3.org/2000/svg"
   xmlns:sodipodi="http://sodipodi.sourceforge.net/DTD/sodipodi-0.dtd"
   xmlns:inkscape="http://www.inkscape.org/namespaces/inkscape"
   xml:space="preserve"
   width="157.39163mm"
   height="61.778282mm"
   style="clip-rule:evenodd;fill-rule:evenodd;image-rendering:optimizeQuality;shape-rendering:geometricPrecision;text-rendering:geometricPrecision"
   viewBox="0 0 23.821395 9.3501637"
   id="svg2"
   version="1.1"
   inkscape:version="0.91 r13725"
   sodipodi:docname="audiencias publicas logo completa.svg"><metadata
     id="metadata31"><rdf:RDF><cc:Work
         rdf:about=""><dc:format>image/svg+xml</dc:format><dc:type
           rdf:resource="http://purl.org/dc/dcmitype/StillImage" /><dc:title></dc:title></cc:Work></rdf:RDF></metadata><sodipodi:namedview
     pagecolor="#ffffff"
     bordercolor="#666666"
     borderopacity="1"
     objecttolerance="10"
     gridtolerance="10"
     guidetolerance="10"
     inkscape:pageopacity="0"
     inkscape:pageshadow="2"
     inkscape:window-width="1856"
     inkscape:window-height="1053"
     id="namedview29"
     showgrid="false"
     fit-margin-top="0"
     fit-margin-left="0"
     fit-margin-right="0"
     fit-margin-bottom="0"
     inkscape:zoom="0.99220506"
     inkscape:cx="204.52086"
     inkscape:cy="76.484453"
     inkscape:window-x="0"
     inkscape:window-y="27"
     inkscape:window-maximized="1"
     inkscape:current-layer="svg2" /><defs
     id="defs4"><style
       type="text/css"
       id="style6"><![CDATA[
    .fil4 {fill:#DEDEDD}
    .fil0 {fill:#F8C300}
    .fil3 {fill:white}
    .fil5 {fill:#293554}
    .fil1 {fill:#3D9BCA}
    .fil2 {fill:#47C7FF}
    .fil7 {fill:#F8C300;fill-rule:nonzero}
    .fil6 {fill:white;fill-rule:nonzero}
   ]]></style></defs><g
     id="g4210"
     transform="translate(-23.293386,22.369685)"><g
       transform="matrix(1.1108035,0,0,1.1108035,23.293387,-22.369704)"
       id="Camada_x0020_1"><metadata
         id="CorelCorpID_0Corel-Layer" /><path
         style="fill:#f8c300"
         inkscape:connector-curvature="0"
         id="path10"
         d="m 1.92776,0.0990441 c 1.81069,1.13385 3.46851,2.18997 5.2792,3.32382 0.129526,0.081094 0.197861,0.152668 0.179003,0.226921 0.018858,0.074253 -0.049477,0.145812 -0.179003,0.226906 -1.81069,1.13385 -3.46851,2.18997 -5.2792,3.32382 -0.195697,0.122549 -0.274642,0.171223 -0.274642,-0.092718 l 0,-3.45801 0,-3.45802 c 0,-0.263941 0.078945,-0.215267 0.274642,-0.0927177 z"
         class="fil0" /><g
         id="_118248960"><path
           style="fill:#3d9bca"
           inkscape:connector-curvature="0"
           d="m 1.61066,2.43799 c 0.691311,0 1.25195,0.560635 1.25195,1.25195 0,0.563056 -0.371915,1.0394 -0.883436,1.19678 l -0.737034,0 C 0.730619,4.729345 0.358704,4.252998 0.358704,3.68994 c 0,-0.691311 0.560635,-1.25195 1.25196,-1.25195 z"
           class="fil1"
           id="_118245840" /><path
           style="fill:#47c7ff"
           inkscape:connector-curvature="0"
           d="M 1.24224,4.88672 C 0.730673,4.729375 0.358698,4.253043 0.358698,3.68994 c 0,-0.658786 0.509115,-1.1989 1.15528,-1.24827 0.450269,0.234579 0.75783,0.705553 0.75783,1.24827 0,0.036869 -0.00147,0.073405 -0.00425,0.109563 L 0.85850804,3.778949 0.88313284,3.789498 2.0655128,4.040211 c 0.068486,0.014515 0.153712,0.042363 0.123291,0.126757 -0.108443,0.30075 -0.31652,0.55393 -0.584351,0.71975 l -0.362213,0 z"
           class="fil2"
           id="_118250904" /></g><path
         style="fill:#ffffff"
         inkscape:connector-curvature="0"
         id="path15"
         d="m 1.24214,4.88672 -0.241375,0 c -0.0530485,0 -0.096456,0.035779 -0.096456,0.07949 l 0,0.220821 c 0,0.04371 0.0434075,0.07949 0.096456,0.07949 l 1.22245,0 c 0.053033,0 0.096471,-0.035779 0.096471,-0.07949 l 0,-0.220821 c 0,-0.043695 -0.043407,-0.07949 -0.096471,-0.07949 l -0.244038,0 -0.374715,0 -0.362319,0 z"
         class="fil3" /><path
         style="fill:#ffffff"
         inkscape:connector-curvature="0"
         id="path17"
         d="m 2.09592,5.37905 -0.976684,0 0.190475,2.79326 c 0.00242,0.035734 0.029332,0.065157 0.065157,0.065157 l 0.232687,0 0.232733,0 c 0.035795,0 0.062705,-0.029423 0.065142,-0.065157 L 2.09592,5.37905 Z"
         class="fil3" /><path
         style="fill:#dededd"
         inkscape:connector-curvature="0"
         id="path19"
         d="m 2.19162,4.96621 0,0.220821 c 0,0.04371 -0.043423,0.07949 -0.096471,0.07949 l 0.128058,0 c 0.053033,0 0.096471,-0.035779 0.096471,-0.07949 l 0,-0.220821 c 0,-0.043695 -0.043408,-0.07949 -0.096471,-0.07949 l -0.128058,0 c 0.053064,0 0.096471,0.035795 0.096471,0.07949 z"
         class="fil4" /><path
         style="fill:#dededd"
         inkscape:connector-curvature="0"
         id="path21"
         d="M 1.67036,5.37905 1.66137,8.17231 C 1.6612641,8.208104 1.632023,8.237467 1.596213,8.237467 l 0.011351,0 0.232733,0 c 0.035795,0 0.062705,-0.029423 0.065142,-0.065157 l 0.19049,-2.79326 -0.425569,0 z"
         class="fil4" /><path
         style="fill:#293554"
         inkscape:connector-curvature="0"
         id="path23"
         d="m 0.953633,3.13556 c -0.0185556,0.018556 -0.0486594,0.018556 -0.067215,0 -0.0185405,-0.018556 -0.0185405,-0.048659 0,-0.067215 C 0.9789994,2.975764 1.088487,2.903297 1.207797,2.853881 1.326941,2.804525 1.455513,2.778402 1.586477,2.778402 c 0.026244,0 0.047524,0.021265 0.047524,0.047524 0,0.026244 -0.02128,0.047509 -0.047524,0.047509 C 1.46756,2.873435 1.351232,2.897 1.243818,2.941498 1.136525,2.985935 1.037678,3.0515 0.953633,3.13556 Z m 0.0308908,1.63863 1.25226,0 c 0.343431,-0.1988 0.583716,-0.556049 0.620766,-0.971704 -0.832204,0 -1.67164,0 -2.4938,0 0.0370507,0.415655 0.277336,0.772904 0.620766,0.971704 z M 0.6057228,3.63368 C 0.6113678,3.592724 0.6195714,3.552177 0.6302568,3.512251 0.6524751,3.429356 0.6856513,3.349049 0.7291799,3.273631 0.7422112,3.250974 0.7711344,3.243164 0.7937917,3.25618 0.816449,3.269196 0.8242587,3.298134 0.8112425,3.320792 0.7721637,3.388507 0.7422113,3.461185 0.7219605,3.536755 0.7134395,3.568614 0.7066589,3.600973 0.7016795,3.63368 l 2.15961,0 c -0.029438,-0.665203 -0.578176,-1.19569 -1.25063,-1.19569 -0.672468,0 -1.22121,0.530485 -1.25064,1.19569 l 0.245703,0 z m 0.395041,1.25304 1.22245,0 c 0.053064,0 0.096456,0.035794 0.096456,0.079505 l 0,0.220806 c 0,0.04371 -0.043407,0.07949 -0.096456,0.07949 l -1.22245,0 c -0.0530334,0 -0.096456,-0.035764 -0.096456,-0.07949 l 0,-0.220806 c 0,-0.043725 0.0434075,-0.079505 0.096456,-0.079505 z m 1.465,-0.079989 c 0.025805,0.023217 0.042091,0.056832 0.042091,0.09405 l 0,0.351679 c 0,0.069637 -0.056968,0.126605 -0.126605,0.126605 l -0.036415,0 -0.287113,2.93998 c -0.00527,0.053911 -0.044331,0.098469 -0.098469,0.098469 l -0.351679,0 -0.351679,0 c -0.054138,0 -0.093202,-0.044558 -0.098469,-0.098469 l -0.287113,-2.93998 -0.008279,0 c -0.0696366,0 -0.126605,-0.056968 -0.126605,-0.126605 l 0,-0.351679 c 0,-0.032434 0.0123654,-0.062114 0.032601,-0.084575 -0.314235,-0.235487 -0.526747,-0.599335 -0.559575,-1.01372 l -0.124062,0 C 0.0379731,3.8024856 -9e-7,3.7644965 -9e-7,3.7180771 l 0,0 c 0,-0.046419 0.037974,-0.084393 0.0843934,-0.084393 l 0.120793,0 c 0.0295589,-0.750671 0.647571,-1.35043 1.40548,-1.35043 0.75789,0 1.3759,0.599759 1.40546,1.35043 l 0.120793,0 c 0.046419,0 0.084393,0.037974 0.084393,0.084393 l 0,0 c 0,0.046419 -0.037974,0.084408 -0.084393,0.084408 l -0.124062,0 c -0.032374,0.408875 -0.23971,0.768546 -0.547089,1.00424 z m -0.369841,0.572334 -0.976699,0 0.19049,2.79323 c 0.00242,0.035749 0.029347,0.065157 0.065157,0.065157 l 0.232702,0 0.232702,0 c 0.035825,0 0.062735,-0.029407 0.065157,-0.065157 l 0.19049,-2.79323 z"
         class="fil5" /></g><g
       id="g4225"
       transform="translate(45.977633,8.9777562)"><path
         class="fil6"
         d="m -12.882502,-27.902314 c 7.85e-4,-0.0047 0.0035,-0.0097 0.0078,-0.0154 0.0043,-0.0055 0.0093,-0.01053 0.01579,-0.01541 0.0063,-0.0047 0.01287,-0.0085 0.02005,-0.0115 0.007,-0.0028 0.01365,-0.0039 0.02005,-0.0039 l 0.301653,0 c 0.01326,0 0.02473,0.0039 0.03417,0.01209 0.0093,0.0082 0.01658,0.01579 0.02122,0.022 l 0.02945,0.06715 0.618616,1.595444 c 0.0063,0.01579 0.0051,0.02826 -0.0035,0.03811 -0.0085,0.0097 -0.02357,0.01502 -0.04476,0.01502 l -0.338179,0 c -0.01814,0 -0.03183,-0.0035 -0.04164,-0.01014 -0.0097,-0.0067 -0.01775,-0.01775 -0.02319,-0.03341 -0.0156,-0.04006 -0.03101,-0.0801 -0.04593,-0.119766 -0.01502,-0.03966 -0.02988,-0.07934 -0.0448,-0.119415 l -0.625698,0 c -0.01482,0.04006 -0.02984,0.07974 -0.04515,0.119415 -0.01522,0.03966 -0.03066,0.0797 -0.04558,0.119766 -0.01014,0.02908 -0.03022,0.0436 -0.06011,0.0436 l -0.347587,0 c -0.01482,0 -0.02711,-0.0039 -0.03691,-0.0117 -0.0097,-0.0078 -0.0117,-0.01966 -0.0055,-0.03534 l 0.639837,-1.656732 z m 0.214468,0.504317 c -0.01502,0.04006 -0.02988,0.08328 -0.04518,0.129615 -0.0154,0.04635 -0.03062,0.09308 -0.04558,0.140244 -0.01482,0.04712 -0.02984,0.09347 -0.04515,0.139426 -0.0154,0.04597 -0.03062,0.08914 -0.04558,0.129225 l 0.361755,0 -0.180264,-0.538481 z m 2.429676,1.179494 c -0.01015,0.0085 -0.02082,0.01404 -0.0322,0.01638 -0.01131,0.0024 -0.02239,0.0035 -0.03259,0.0035 l -0.177943,0 c -0.01405,0 -0.02629,-0.0028 -0.03653,-0.0078 -0.01014,-0.0051 -0.01892,-0.0117 -0.02594,-0.02038 -0.007,-0.0085 -0.01287,-0.01853 -0.01775,-0.02947 -0.0047,-0.01092 -0.0085,-0.02239 -0.0117,-0.03417 l -0.03653,-0.150834 c -0.0117,0.02436 -0.02865,0.05183 -0.05106,0.08289 -0.02239,0.03101 -0.05108,0.06007 -0.08564,0.08718 -0.03456,0.02709 -0.07581,0.04987 -0.123706,0.06834 -0.04794,0.01853 -0.102916,0.02791 -0.164955,0.02791 -0.08953,0 -0.170863,-0.01736 -0.243911,-0.05183 -0.07306,-0.0346 -0.135135,-0.08172 -0.186583,-0.141415 -0.05145,-0.05971 -0.09151,-0.129615 -0.119806,-0.209354 -0.02826,-0.07971 -0.04243,-0.164564 -0.04243,-0.254895 l 0,-0.771804 c 0,-0.02984 0.0066,-0.05262 0.01965,-0.06792 0.01287,-0.01541 0.03341,-0.02278 0.06167,-0.02278 l 0.272207,0 c 0.03378,0 0.05693,0.0055 0.06951,0.01696 0.01249,0.01132 0.01892,0.03378 0.01892,0.06679 l 0,0.767083 c 0,0.03378 0.0078,0.06557 0.02319,0.09581 0.01522,0.03026 0.03534,0.05695 0.06046,0.08014 0.02516,0.02317 0.05381,0.04164 0.08564,0.05498 0.03181,0.01326 0.064,0.02005 0.09703,0.02005 0.02826,0 0.05771,-0.0067 0.08797,-0.02005 0.03022,-0.01326 0.05814,-0.03139 0.08365,-0.05381 0.02555,-0.02239 0.04635,-0.0487 0.06286,-0.07895 0.01639,-0.03023 0.02475,-0.06204 0.02475,-0.09584 l 0,-0.765903 c 0,-0.01326 0.0028,-0.02668 0.0078,-0.04006 0.0051,-0.01326 0.01249,-0.02353 0.02278,-0.03062 0.01014,-0.0063 0.02005,-0.01053 0.02908,-0.01287 0.0089,-0.0024 0.0193,-0.0035 0.03101,-0.0035 l 0.266306,0 c 0.03378,0 0.05814,0.0082 0.07306,0.02474 0.01482,0.01658 0.02239,0.0385 0.02239,0.06598 l 0,1.318548 c 0,0.01502 -0.0031,0.02865 -0.0097,0.04121 -0.0067,0.01268 -0.01619,0.02239 -0.02787,0.02947 l 0.007,-0.0035 z m 1.3680256,-0.162595 c -0.0212,0.0212 -0.044388,0.04398 -0.069897,0.06834 -0.025548,0.02436 -0.053809,0.04714 -0.084467,0.06834 -0.03062,0.02122 -0.063598,0.0385 -0.098957,0.05227 -0.035378,0.01365 -0.073447,0.02082 -0.1143057,0.02082 -0.1068556,0 -0.2050247,-0.02005 -0.2949968,-0.06011 -0.089947,-0.04006 -0.1673141,-0.09506 -0.2321062,-0.164564 -0.064827,-0.06955 -0.1154753,-0.151224 -0.1520045,-0.245487 -0.03653,-0.09426 -0.05498,-0.195615 -0.05498,-0.304013 0,-0.109177 0.01853,-0.210927 0.05498,-0.304801 0.03653,-0.09387 0.087178,-0.175544 0.1520045,-0.245091 0.064789,-0.06951 0.1421751,-0.124096 0.2321062,-0.163784 0.089967,-0.03967 0.1881432,-0.05931 0.2949968,-0.05931 0.043179,0 0.082848,0.0063 0.1185964,0.01892 0.035748,0.01268 0.068357,0.02869 0.097806,0.04833 0.029469,0.01966 0.056558,0.0416 0.081307,0.06636 0.024729,0.02475 0.047899,0.0491 0.069897,0.07267 l 0,-0.538483 c 0,-0.02516 0.0078,-0.04633 0.023189,-0.06364 0.015212,-0.01736 0.038109,-0.0259 0.068728,-0.0259 l 0.2651265,0 c 0.010141,0 0.021219,0.002 0.032589,0.0063 0.011312,0.0043 0.02159,0.01053 0.031048,0.01853 0.00936,0.0078 0.017357,0.01736 0.02315,0.0283 0.00585,0.01092 0.00859,0.02319 0.00859,0.03653 l 0,1.761585 c 0,0.0605 -0.031809,0.09072 -0.095447,0.09072 l -0.2309614,0 c -0.015797,0 -0.027869,-0.002 -0.036528,-0.0059 -0.00859,-0.0039 -0.015602,-0.0097 -0.02159,-0.01736 -0.00585,-0.0074 -0.011312,-0.01677 -0.015993,-0.02826 -0.00469,-0.01132 -0.010531,-0.02436 -0.017748,-0.03928 l -0.034189,-0.09189 z M -9.54787,-26.945515 c 0,0.05183 0.00819,0.100165 0.024359,0.145314 0.016187,0.04519 0.038889,0.08447 0.068728,0.117446 0.029878,0.03297 0.065997,0.05892 0.1080452,0.07817 0.042009,0.01931 0.088367,0.02906 0.1394058,0.02906 0.050259,0 0.097806,-0.0089 0.1421751,-0.02709 0.044389,-0.01814 0.082886,-0.04322 0.1158854,-0.07503 0.033018,-0.03183 0.059698,-0.06915 0.079747,-0.112336 0.020049,-0.04322 0.03101,-0.08957 0.033389,-0.139055 l 0,-0.01658 c 0,-0.05025 -0.00936,-0.0982 -0.028259,-0.143735 -0.018918,-0.04558 -0.044798,-0.08564 -0.078167,-0.120195 -0.033369,-0.03456 -0.072668,-0.06208 -0.1178357,-0.08211 -0.045149,-0.01999 -0.094257,-0.02984 -0.1468948,-0.02984 -0.051058,0 -0.097416,0.0097 -0.1394252,0.02984 -0.042028,0.02003 -0.078167,0.04754 -0.1080454,0.08211 -0.029839,0.03456 -0.052618,0.07461 -0.068728,0.120195 -0.016187,0.04554 -0.024359,0.09347 -0.024359,0.143735 z m 1.4422915,-0.657503 c 0,-0.02516 0.00702,-0.04673 0.02118,-0.06479 0.014237,-0.01813 0.036138,-0.02711 0.065997,-0.02711 l 0.2698148,0 c 0.00936,0 0.019659,0.002 0.030658,0.0063 0.010922,0.0043 0.0212,0.01053 0.03062,0.01892 0.00936,0.0082 0.017747,0.01814 0.024359,0.02906 0.00663,0.01112 0.00975,0.02358 0.00975,0.0377 l 0,1.313826 c 0,0.02984 -0.00819,0.05223 -0.02473,0.06754 -0.016383,0.01541 -0.040059,0.02319 -0.070717,0.02319 l -0.2698149,0 c -0.058138,0 -0.087177,-0.03022 -0.087177,-0.09072 l 0,-1.313826 z m 0,-0.596223 c 0,-0.03298 0.00702,-0.05656 0.02118,-0.0703 0.014237,-0.01385 0.036138,-0.02042 0.065997,-0.02042 l 0.2733546,0 c 0.027499,0 0.049908,0.0067 0.066797,0.02042 0.016772,0.01365 0.02512,0.03731 0.02512,0.0703 l 0,0.229779 c 0,0.0093 -0.00195,0.01966 -0.00624,0.03062 -0.00429,0.01092 -0.010531,0.02159 -0.018528,0.03181 -0.0078,0.01015 -0.017358,0.01853 -0.028689,0.02516 -0.011311,0.0067 -0.024359,0.01014 -0.038499,0.01014 l -0.2733546,0 c -0.058137,0 -0.087178,-0.03259 -0.087178,-0.09777 l 0,-0.229782 z m 2.0184468,1.821685 c -0.069118,0.06359 -0.1468909,0.113115 -0.23332,0.148864 -0.086397,0.03573 -0.1779042,0.05381 -0.2745365,0.05381 -0.1076162,0 -0.2093543,-0.01966 -0.3051929,-0.05892 -0.095837,-0.03928 -0.179874,-0.09387 -0.2521434,-0.163395 -0.072258,-0.06955 -0.1296153,-0.151224 -0.1720338,-0.245487 -0.042438,-0.09426 -0.063637,-0.196795 -0.063637,-0.307552 0,-0.06911 0.00859,-0.136305 0.025548,-0.201094 0.016967,-0.06483 0.040858,-0.125285 0.071868,-0.181844 0.031048,-0.05656 0.068747,-0.108825 0.113116,-0.156333 0.044388,-0.04751 0.093867,-0.08797 0.1488646,-0.121737 0.054979,-0.0338 0.1146957,-0.06011 0.1791133,-0.07895 0.064399,-0.01892 0.1323652,-0.0283 0.2038448,-0.0283 0.065179,0 0.1284257,0.0085 0.1897034,0.02594 0.061258,0.01736 0.1189863,0.04164 0.1727945,0.07306 0.053806,0.03142 0.1029238,0.06911 0.1476787,0.113116 0.04479,0.044 0.083283,0.09191 0.1154798,0.144145 0.032233,0.05223 0.057346,0.108006 0.075019,0.167314 0.017669,0.05931 0.026328,0.120586 0.026328,0.183423 0,0.04086 -4.166e-4,0.07427 -0.00158,0.100167 -0.00118,0.02594 -0.00747,0.04635 -0.018449,0.06167 -0.011019,0.01541 -0.029082,0.0259 -0.054594,0.03181 -0.02554,0.0059 -0.063249,0.0089 -0.112724,0.0089 l -0.8483976,0 c 0.0078,0.05025 0.023969,0.09231 0.047938,0.126067 0.023929,0.03378 0.051448,0.0605 0.082848,0.08053 0.031438,0.02005 0.064827,0.03456 0.1001662,0.04318 0.035339,0.0085 0.068728,0.01307 0.1001467,0.01307 0.028299,0 0.057338,-0.0031 0.087216,-0.0089 0.029839,-0.0059 0.058917,-0.01365 0.086787,-0.02357 0.027909,-0.0097 0.053418,-0.0212 0.076588,-0.03416 0.023189,-0.01287 0.041638,-0.02629 0.055778,-0.04047 0.012482,-0.01015 0.023579,-0.01814 0.032589,-0.02315 0.00897,-0.0051 0.018449,-0.0074 0.028689,-0.0074 0.0102,0 0.02082,0.0035 0.031411,0.01053 0.01061,0.007 0.022393,0.01736 0.035738,0.03066 l 0.124925,0.141375 c 0.00862,0.01014 0.01412,0.01931 0.01648,0.02749 0.00236,0.0082 0.00353,0.01696 0.00353,0.02551 0,0.01579 -0.00433,0.02908 -0.012969,0.04047 -0.00862,0.0115 -0.018839,0.02161 -0.030623,0.03026 z m -0.5667763,-0.981553 c -0.03062,0 -0.060107,0.0059 -0.088757,0.01814 -0.028689,0.01209 -0.055778,0.02869 -0.080917,0.04908 -0.025119,0.02042 -0.047508,0.0436 -0.067538,0.06955 -0.020048,0.0259 -0.036528,0.05223 -0.049108,0.07895 l 0.6021224,0 c -0.016382,-0.03066 -0.034169,-0.05892 -0.053418,-0.08486 -0.019308,-0.02594 -0.041248,-0.0487 -0.065978,-0.06834 -0.024749,-0.01966 -0.053047,-0.03495 -0.084857,-0.04597 -0.031809,-0.01092 -0.069118,-0.01658 -0.1115557,-0.01658 z m 0.020048,-0.961517 c 0.00546,-0.0039 0.00975,-0.0067 0.012872,-0.0082 0.00312,-0.0016 0.00741,-0.0024 0.013066,-0.0024 0.00624,0 0.014042,0.0035 0.023539,0.01053 l 0.3028331,0.301653 c 0.00624,0.0047 0.00936,0.01385 0.00936,0.02711 0,0.007 -0.00351,0.01443 -0.010531,0.02239 l -0.1036766,0.106037 c -0.00859,0.0085 -0.019308,0.01287 -0.031809,0.01287 -0.010141,0 -0.018918,-0.0035 -0.025938,-0.01053 l -0.1637843,-0.167314 -0.1673141,0.168504 c -0.00859,0.0085 -0.017747,0.0117 -0.027499,0.0093 -0.00975,-0.0024 -0.018138,-0.0067 -0.024359,-0.01287 l -0.1060366,-0.102526 c -0.0039,-0.0039 -0.00624,-0.0082 -0.00741,-0.01248 -0.00115,-0.0043 -0.00234,-0.0085 -0.00312,-0.01326 0,-0.0063 0.00118,-0.0115 0.00312,-0.01541 0.00195,-0.0039 0.00429,-0.0074 0.00741,-0.01053 l 0.2992913,-0.302834 z m 0.9980431,0.645734 c 0.0102,-0.0085 0.02121,-0.01404 0.032591,-0.01658 0.01137,-0.0024 0.022001,-0.0035 0.032199,-0.0035 l 0.1779412,0 c 0.01412,0 0.026296,0.0024 0.036524,0.0074 0.0102,0.0051 0.018839,0.01209 0.025904,0.02079 0.00708,0.0085 0.012969,0.01853 0.017319,0.02947 0.00429,0.01092 0.00823,0.02239 0.01217,0.03416 l 0.036524,0.150835 c 0.01176,-0.02436 0.029051,-0.05223 0.051444,-0.08328 0.022395,-0.03101 0.050658,-0.06007 0.085249,-0.08718 0.034559,-0.02709 0.075805,-0.04987 0.1233179,-0.06834 0.047544,-0.01853 0.10253,-0.02752 0.1653503,-0.02752 0.089545,0 0.1708598,0.01736 0.2439122,0.05183 0.073052,0.0346 0.135513,0.08172 0.1869574,0.141414 0.051444,0.05971 0.091117,0.129226 0.1194155,0.208961 0.028261,0.07974 0.042428,0.164954 0.042428,0.255289 l 0,0.771805 c 0,0.02984 -0.0063,0.05223 -0.01923,0.06754 -0.012969,0.01541 -0.033804,0.02319 -0.062068,0.02319 l -0.2722094,0 c -0.033773,0 -0.056954,-0.0059 -0.069509,-0.01736 -0.012559,-0.01131 -0.018839,-0.03339 -0.018839,-0.0664 l 0,-0.767082 c 0,-0.03378 -0.00745,-0.06598 -0.022789,-0.09621 -0.01531,-0.03026 -0.035739,-0.05695 -0.060857,-0.08014 -0.02515,-0.02319 -0.053445,-0.04125 -0.085249,-0.05459 -0.031805,-0.01326 -0.064396,-0.02005 -0.097412,-0.02005 -0.028265,0 -0.056954,0.0063 -0.086397,0.01892 -0.029443,0.01248 -0.05656,0.02984 -0.081315,0.05223 -0.024724,0.02239 -0.045545,0.0487 -0.062428,0.07895 -0.01687,0.03022 -0.026723,0.06325 -0.029083,0.09858 l 0,0.765903 c 0,0.01326 -0.00236,0.02668 -0.00745,0.04006 -0.00511,0.01326 -0.012969,0.02354 -0.023181,0.03062 -0.01022,0.0063 -0.019649,0.01053 -0.028691,0.01287 -0.00901,0.0024 -0.019649,0.0035 -0.03141,0.0035 l -0.2663064,0 c -0.033771,0 -0.058132,-0.0082 -0.073052,-0.02475 -0.01492,-0.01638 -0.022395,-0.0385 -0.022395,-0.06598 l 0,-1.318549 c 0,-0.01502 0.00353,-0.02865 0.01022,-0.04121 0.00669,-0.01268 0.0157,-0.02239 0.027476,-0.02947 l -0.00704,0.0035 z m 2.6064071,1.015716 c 0.011019,-0.0078 0.021599,-0.01306 0.031444,-0.01502 0.00981,-0.002 0.017279,-0.0028 0.022756,-0.0028 0.013379,0 0.02554,0.0028 0.036526,0.0082 0.011019,0.0055 0.022393,0.01736 0.034198,0.03534 l 0.1319401,0.199158 c 0.00394,0.0063 0.00786,0.01326 0.011409,0.02118 0.00353,0.0078 0.00511,0.01423 0.00511,0.01892 0,0.01814 -0.0055,0.03263 -0.01687,0.044 -0.011409,0.01132 -0.023969,0.02159 -0.037313,0.03022 -0.064427,0.0448 -0.134727,0.08053 -0.2113215,0.107635 -0.076595,0.02709 -0.157908,0.04086 -0.2435174,0.04086 -0.070691,0 -0.1386607,-0.0089 -0.2042397,-0.02711 -0.065608,-0.01814 -0.1268576,-0.044 -0.1834176,-0.07738 -0.05656,-0.03337 -0.1084315,-0.07345 -0.1555482,-0.120176 -0.04715,-0.04677 -0.087183,-0.09858 -0.1202013,-0.155943 -0.032985,-0.05734 -0.058528,-0.119416 -0.076988,-0.185784 -0.018449,-0.06639 -0.027871,-0.135505 -0.027871,-0.207779 0,-0.07226 0.0094,-0.141785 0.027871,-0.208566 0.018449,-0.06676 0.044002,-0.128816 0.076988,-0.185783 0.033017,-0.05694 0.073052,-0.108787 0.1202013,-0.155554 0.047116,-0.04673 0.098988,-0.0864 0.1555482,-0.119377 0.05656,-0.03302 0.1178064,-0.05853 0.1834176,-0.07659 0.065577,-0.01814 0.1335471,-0.02711 0.2042397,-0.02711 0.085611,0 0.1649583,0.0115 0.237616,0.03416 0.072658,0.02278 0.1406286,0.05656 0.2042398,0.101356 l -0.00353,-0.0035 c 0.017279,0.01014 0.03105,0.022 0.041248,0.03575 0.01022,0.01385 0.01531,0.03105 0.01531,0.05149 0,0.01404 -0.00468,0.02865 -0.01412,0.04356 l -0.1048566,0.177943 c -0.022001,0.0385 -0.048723,0.05775 -0.080135,0.05775 -0.00708,0 -0.0157,-0.002 -0.025934,-0.0055 -0.0102,-0.0035 -0.021578,-0.0093 -0.034167,-0.01814 -0.034557,-0.02278 -0.07148,-0.04164 -0.1111521,-0.05617 -0.039673,-0.01443 -0.082068,-0.02159 -0.1268577,-0.02159 -0.049479,0 -0.095055,0.0097 -0.1366949,0.02984 -0.041642,0.02003 -0.076985,0.04754 -0.1064324,0.08211 -0.029443,0.03456 -0.052624,0.07461 -0.069118,0.120195 -0.01648,0.04554 -0.024755,0.09347 -0.024755,0.143736 0,0.05183 0.00825,0.100166 0.024755,0.145314 0.01648,0.04519 0.039673,0.08447 0.069118,0.117446 0.029443,0.03298 0.06479,0.05892 0.1064324,0.07817 0.041642,0.01931 0.087216,0.02906 0.1366949,0.02906 0.04479,0 0.086791,-0.0078 0.1260698,-0.02358 0.039281,-0.01579 0.076595,-0.03574 0.111938,-0.06007 z m 0.4960866,-0.943844 c 0,-0.02516 0.00704,-0.04673 0.021188,-0.06479 0.014159,-0.01813 0.036132,-0.02711 0.066003,-0.02711 l 0.2698152,0 c 0.00944,0 0.019649,0.002 0.030656,0.0063 0.01098,0.0043 0.02121,0.01053 0.030623,0.01892 0.00944,0.0082 0.017669,0.01814 0.024361,0.02906 0.00665,0.01112 0.00981,0.02357 0.00981,0.0377 l 0,1.313828 c 0,0.02984 -0.00823,0.05223 -0.024723,0.06754 -0.01648,0.01522 -0.040067,0.02319 -0.070723,0.02319 l -0.2698152,0 c -0.058134,0 -0.087184,-0.03022 -0.087184,-0.09072 l 0,-1.313828 z m 0,-0.596223 c 0,-0.03298 0.00704,-0.05656 0.021188,-0.07031 0.014159,-0.01385 0.036132,-0.02042 0.066003,-0.02042 l 0.2733556,0 c 0.027509,0 0.049904,0.0067 0.066789,0.02042 0.01687,0.01365 0.025116,0.03731 0.025116,0.07031 l 0,0.229779 c 0,0.0093 -0.00197,0.01964 -0.00626,0.03062 -0.00433,0.01092 -0.01061,0.02159 -0.018449,0.03181 -0.00786,0.01014 -0.017279,0.01853 -0.028689,0.02516 -0.01137,0.0067 -0.024361,0.01014 -0.038495,0.01014 l -0.2733556,0 c -0.058132,0 -0.087183,-0.03259 -0.087183,-0.09777 l 0,-0.229782 z m 2.27532071,1.91359 c 0,0.01326 -0.002359,0.0259 -0.007079,0.03811 -0.004681,0.01209 -0.0125598,0.02198 -0.0235418,0.02906 -0.008659,0.0085 -0.0188396,0.01404 -0.0306563,0.01638 -0.0117601,0.0024 -0.021966,0.0035 -0.0306233,0.0035 l -0.23214214,0 c -0.0164798,0 -0.0298373,-0.0024 -0.0400333,-0.0066 -0.0102195,-0.0043 -0.0184496,-0.01014 -0.0247568,-0.01814 -0.006299,-0.0078 -0.0114092,-0.01775 -0.0156998,-0.02906 -0.00433,-0.01131 -0.009049,-0.02357 -0.013769,-0.03691 l -0.0341668,-0.08837 c -0.0212092,0.02118 -0.044363,0.04357 -0.0695098,0.06754 -0.0251488,0.02397 -0.0526263,0.04633 -0.0828907,0.06676 -0.030231,0.02044 -0.063214,0.03731 -0.098561,0.05108 -0.035346,0.01365 -0.073053,0.02081 -0.11311987,0.02081 -0.071478,0 -0.1398406,-0.0089 -0.2054175,-0.02711 -0.065625,-0.01814 -0.1268753,-0.04402 -0.1838272,-0.07738 -0.056954,-0.03339 -0.1088234,-0.07345 -0.1551522,-0.120176 -0.046362,-0.04677 -0.086038,-0.09858 -0.1194155,-0.155944 -0.033379,-0.05733 -0.059313,-0.119415 -0.077381,-0.185783 -0.018059,-0.06639 -0.027084,-0.135505 -0.027084,-0.207779 0,-0.109176 0.020039,-0.210928 0.060102,-0.3048 0.040035,-0.09387 0.094661,-0.175545 0.1637784,-0.245093 0.069117,-0.06951 0.1504325,-0.124096 0.2439112,-0.163785 0.093479,-0.03966 0.1936156,-0.05931 0.3004717,-0.05931 0.048693,0 0.093478,0.007 0.13433302,0.02159 0.040821,0.01443 0.078134,0.03378 0.11154613,0.05736 0.033379,0.02357 0.0636102,0.05025 0.0907268,0.08014 0.0270835,0.02984 0.0510505,0.06011 0.0722656,0.09072 l 0.0459348,-0.142565 c 0.007859,-0.01966 0.014549,-0.03577 0.0196491,-0.04794 0.00511,-0.01209 0.0106095,-0.02122 0.0165383,-0.02709 0.00587,-0.0059 0.0129499,-0.0097 0.0215779,-0.0119 0.008659,-0.002 0.0208192,-0.0027 0.0365247,-0.0027 l 0.17557946,0 c 0.008659,0 0.0188396,0.0012 0.0306232,0.0035 0.0117991,0.0024 0.022001,0.0078 0.0306564,0.01658 0.0109801,0.0085 0.0188396,0.01853 0.0235417,0.02947 0.00472,0.01092 0.007079,0.02353 0.007079,0.0377 l 0,1.327959 z M -1.418646,-26.945517 c 0,0.05183 0.00825,0.100165 0.024361,0.145314 0.01609,0.04519 0.038887,0.08447 0.068724,0.117446 0.02987,0.03298 0.066004,0.05892 0.1080042,0.07817 0.042034,0.01931 0.088396,0.02906 0.1394507,0.02906 0.052626,0 0.10174202,-0.0097 0.14689094,-0.02906 0.045182,-0.01931 0.084462,-0.04518 0.11784154,-0.07817 0.033379,-0.03297 0.0593138,-0.07226 0.078167,-0.117446 0.0188397,-0.04515 0.0282654,-0.09347 0.0282654,-0.145314 0,-0.05025 -0.0094,-0.0982 -0.0282654,-0.143736 -0.0188397,-0.04558 -0.0447901,-0.08564 -0.078167,-0.120196 -0.033379,-0.03456 -0.0726575,-0.06208 -0.11784154,-0.08211 -0.045149,-0.01999 -0.094265,-0.02984 -0.14689094,-0.02984 -0.05105,0 -0.097412,0.0097 -0.1394507,0.02984 -0.042002,0.02005 -0.078134,0.04754 -0.1080042,0.08211 -0.029837,0.03456 -0.052626,0.07461 -0.068724,0.120196 -0.01609,0.04554 -0.024361,0.09347 -0.024361,0.143736 z m 1.66731668,0.281617 c 0.0212092,0.02122 0.0443961,0.03889 0.0691509,0.05342 0.0247217,0.01443 0.0482966,0.02632 0.0710857,0.03534 0.022789,0.0089 0.0428203,0.0158 0.0601016,0.01966 0.0172795,0.0039 0.0290513,0.0059 0.0353468,0.0059 0.0149196,0 0.0341669,-7.85e-4 0.0573459,-0.002 0.0231829,-0.0012 0.0451489,-0.0047 0.066364,-0.01053 0.0212092,-0.0059 0.0396726,-0.01541 0.0549861,-0.02865 0.0153097,-0.01326 0.022789,-0.0322 0.022789,-0.05656 0,-0.022 -0.00433,-0.03966 -0.0129499,-0.05262 -0.008659,-0.01287 -0.0212092,-0.02397 -0.0377066,-0.03297 -0.0164798,-0.0089 -0.0365247,-0.01696 -0.0604937,-0.02397 -0.0239688,-0.007 -0.0510505,-0.0154 -0.0809209,-0.02474 -0.0942666,-0.02512 -0.17200851,-0.05537 -0.23328833,-0.09072 -0.0612816,-0.03534 -0.10957821,-0.07503 -0.14531702,-0.118635 -0.0357388,-0.04357 -0.0608876,-0.09034 -0.0750193,-0.140596 -0.014159,-0.05025 -0.0212093,-0.103325 -0.0212093,-0.159084 0,-0.06517 0.0129498,-0.124505 0.0388866,-0.177904 0.0259036,-0.05342 0.0628223,-0.09939 0.11075812,-0.137474 0.0479027,-0.03811 0.10525055,-0.06754 0.17204165,-0.08837 0.066756,-0.02081 0.14098937,-0.03103 0.22269853,-0.03103 0.0494785,0 0.0958404,0.0039 0.13902153,0.01209 0.0432161,0.0082 0.0844625,0.0212 0.12374306,0.03889 0.0392805,0.01775 0.07774,0.04047 0.11505464,0.06834 0.037315,0.02791 0.074233,0.06128 0.11118524,0.09978 0.01334,0.01579 0.020386,0.03022 0.020798,0.044 4.166e-4,0.01365 -0.00862,0.02865 -0.02669,0.04437 -0.030656,0.02514 -0.059708,0.04991 -0.087577,0.07423 -0.027903,0.02436 -0.056954,0.05145 -0.086824,0.0813 -0.0094,0.0078 -0.01884,0.01249 -0.028261,0.01443 -0.00944,0.002 -0.0184496,0.002 -0.0271167,-3.92e-4 -0.008621,-0.0024 -0.0168699,-0.0063 -0.0247549,-0.0117 -0.00784,-0.0055 -0.0149196,-0.01229 -0.0211878,-0.02005 -0.0275086,-0.03066 -0.0589217,-0.05145 -0.0942666,-0.06208 -0.03538,-0.01053 -0.068365,-0.01579 -0.0989883,-0.01579 -0.0384946,0 -0.0691177,0.0067 -0.0919068,0.02005 -0.0227889,0.01326 -0.0333789,0.03378 -0.0318051,0.06128 0.001542,0.02042 0.0094,0.03614 0.0231478,0.04751 0.013769,0.01131 0.0306564,0.02082 0.0506915,0.02791 0.0199962,0.007 0.0412152,0.01249 0.0636083,0.01696 0.022395,0.0043 0.0428203,0.0093 0.0616756,0.01502 0.0706897,0.02278 0.13551298,0.04751 0.19440158,0.07423 0.058922,0.02672 0.11000334,0.05931 0.15318632,0.0982 0.043216,0.03889 0.076987,0.08562 0.100956,0.139816 0.023969,0.05419 0.035739,0.120195 0.035739,0.197975 0,0.07774 -0.01531,0.147285 -0.046362,0.208534 -0.031018,0.06127 -0.073837,0.112726 -0.12803758,0.154365 -0.054198,0.04164 -0.11820034,0.07345 -0.19243366,0.09545 -0.0742334,0.022 -0.15436631,0.03298 -0.24001015,0.03298 -0.0486906,0 -0.0981672,-0.0043 -0.14846672,-0.01287 -0.0502644,-0.0085 -0.0989551,-0.02278 -0.14610492,-0.04203 -0.0471167,-0.01931 -0.0919068,-0.04398 -0.13433307,-0.07423 -0.042397,-0.03023 -0.0801017,-0.06676 -0.11311992,-0.109977 -0.008621,-0.01092 -0.0149196,-0.02278 -0.0192297,-0.03495 -0.004291,-0.01209 -0.00626,-0.02397 -0.00587,-0.03574 4.1658e-4,-0.0117 0.002749,-0.02278 0.00704,-0.03259 0.00433,-0.0097 0.0110191,-0.01813 0.0204292,-0.02516 l 0.15199672,-0.152024 c 0.0188397,-0.01579 0.0357388,-0.0212 0.0502645,-0.01658 0.014549,0.0047 0.0330162,0.01814 0.055772,0.04006 z"
         id="path25"
         inkscape:connector-curvature="0"
         style="clip-rule:evenodd;fill:#ffffff;fill-rule:nonzero;image-rendering:optimizeQuality;shape-rendering:geometricPrecision;text-rendering:geometricPrecision" /><path
         class="fil7"
         d="m -16.390043,-24.997005 c 0,-0.02674 0.007,-0.0484 0.02101,-0.0643 0.01401,-0.01595 0.03506,-0.02358 0.06306,-0.02358 l 1.221118,0 c 0.08788,0 0.170707,0.01206 0.248429,0.0363 0.07768,0.0242 0.149013,0.05733 0.21402,0.09998 0.06496,0.04269 0.123584,0.09364 0.175824,0.152885 0.0522,0.05925 0.09681,0.123585 0.133137,0.192361 0.0363,0.0688 0.06368,0.140784 0.08278,0.216573 0.01907,0.07582 0.02866,0.152885 0.02866,0.230604 0,0.114654 -0.02039,0.226775 -0.06175,0.33632 -0.0414,0.109576 -0.100646,0.20702 -0.177088,0.292393 -0.07645,0.08534 -0.168158,0.15413 -0.275189,0.20702 -0.107027,0.05286 -0.225498,0.08024 -0.355421,0.08151 l -0.579029,0 0,0.909622 c 0,0.05479 -0.0293,0.08216 -0.08788,0.08216 l -0.567578,0 c -0.02549,0 -0.04586,-0.007 -0.06113,-0.02031 -0.01518,-0.01343 -0.02293,-0.03376 -0.02293,-0.06179 l 0,-2.667696 z m 1.438931,0.837007 c 0,-0.03821 -0.0064,-0.07645 -0.01972,-0.114655 -0.01343,-0.03823 -0.03313,-0.07261 -0.05862,-0.102552 -0.02549,-0.02997 -0.05608,-0.05417 -0.09238,-0.07327 -0.0363,-0.01907 -0.07772,-0.02866 -0.123584,-0.02866 l -0.405109,0 0,0.638231 0.405109,0 c 0.04586,0 0.08726,-0.0096 0.124227,-0.02799 0.03693,-0.01848 0.06814,-0.04207 0.093,-0.07135 0.02482,-0.0293 0.04397,-0.06306 0.05734,-0.101307 0.01343,-0.03821 0.01972,-0.07772 0.01972,-0.118467 z m 3.338438,1.880381 c -0.01654,0.01401 -0.0338,0.02293 -0.05224,0.02676 -0.01849,0.0039 -0.0363,0.0056 -0.0529,0.0056 l -0.288533,0 c -0.02293,0 -0.04269,-0.0044 -0.05924,-0.01284 -0.01654,-0.0081 -0.03059,-0.01926 -0.04207,-0.03313 -0.01148,-0.01401 -0.02101,-0.02992 -0.02866,-0.04779 -0.0075,-0.0177 -0.01401,-0.0363 -0.01907,-0.05541 l -0.05925,-0.244612 c -0.01907,0.03951 -0.04652,0.08409 -0.08282,0.134402 -0.0363,0.05033 -0.08278,0.09748 -0.138858,0.141406 -0.05607,0.04395 -0.122961,0.08092 -0.200642,0.11084 -0.07772,0.02992 -0.166912,0.04521 -0.267531,0.04521 -0.145239,0 -0.277118,-0.02799 -0.395592,-0.08407 -0.118467,-0.05606 -0.219122,-0.132495 -0.302566,-0.229326 -0.08345,-0.09681 -0.14841,-0.210192 -0.194268,-0.339493 -0.04586,-0.129305 -0.06879,-0.266909 -0.06879,-0.413419 l 0,-1.251669 c 0,-0.0484 0.01089,-0.08534 0.03183,-0.110198 0.02103,-0.02482 0.05417,-0.03693 0.100024,-0.03693 l 0.441417,0 c 0.05479,0 0.09238,0.009 0.112747,0.02738 0.02037,0.01848 0.03059,0.05479 0.03059,0.108312 l 0,1.244014 c 0,0.05479 0.01264,0.106366 0.03759,0.155434 0.02482,0.04903 0.05732,0.09234 0.09809,0.129927 0.04076,0.03759 0.08724,0.06755 0.138858,0.0892 0.05158,0.02166 0.103817,0.03247 0.15734,0.03247 0.04586,0 0.09365,-0.01089 0.142672,-0.03247 0.04907,-0.02166 0.09426,-0.05096 0.135686,-0.08726 0.0414,-0.0363 0.07518,-0.07899 0.10193,-0.128059 0.02676,-0.04903 0.04013,-0.100607 0.04013,-0.155396 l 0,-1.24212 c 0,-0.02166 0.0044,-0.04331 0.01264,-0.06496 0.0083,-0.0217 0.02039,-0.03823 0.03697,-0.04969 0.01654,-0.01012 0.03247,-0.01712 0.04715,-0.02103 0.01459,-0.0039 0.0312,-0.0056 0.05031,-0.0056 l 0.431866,0 c 0.05479,0 0.09426,0.01343 0.118468,0.04013 0.0242,0.02674 0.0363,0.06241 0.0363,0.106989 l 0,2.13836 c 0,0.0242 -0.005,0.04648 -0.01595,0.06689 -0.01089,0.02031 -0.02613,0.0363 -0.04523,0.04777 l 0.01148,-0.0056 z m -1.266977,-3.1588 c 0.0064,-0.0293 0.01975,-0.05031 0.03948,-0.06241 0.01975,-0.01206 0.04013,-0.01789 0.06179,-0.01789 l 0.493032,0 c 0.01907,0 0.03376,0.0039 0.04331,0.01148 0.0096,0.0075 0.01595,0.01712 0.01907,0.02866 0.0031,0.01148 0.0031,0.0242 6.22e-4,0.03886 -0.0025,0.01459 -0.007,0.0293 -0.01343,0.04331 l -0.187265,0.410866 c -0.01537,0.02803 -0.02992,0.0484 -0.04459,0.06113 -0.01459,0.01284 -0.03442,0.01907 -0.05862,0.01907 l -0.418487,0 c -0.01907,0 -0.03187,-0.005 -0.03886,-0.01537 -0.007,-0.01012 -0.01089,-0.02228 -0.01089,-0.0363 0,-0.01401 0.0019,-0.02928 0.0056,-0.04586 0.0039,-0.01654 0.007,-0.03059 0.0096,-0.04202 l 0.09936,-0.393661 z m 2.375309,3.04415 c -0.01148,0.0242 -0.02101,0.04521 -0.02866,0.06368 -0.0075,0.01868 -0.01595,0.03376 -0.02549,0.04586 -0.0096,0.01206 -0.02166,0.02166 -0.03568,0.02803 -0.01401,0.0064 -0.03309,0.0096 -0.05731,0.0096 l -0.378385,0 c -0.101929,0 -0.152845,-0.04903 -0.152845,-0.147127 l 0,-2.854959 c 0,-0.02166 0.0044,-0.0414 0.01264,-0.05925 0.0081,-0.0179 0.01907,-0.03313 0.03247,-0.04586 0.01343,-0.01284 0.02868,-0.02294 0.04586,-0.02996 0.01712,-0.007 0.03376,-0.01012 0.05033,-0.01012 l 0.433764,0 c 0.0484,0 0.08664,0.01401 0.114673,0.04203 0.02803,0.02803 0.04203,0.06241 0.04203,0.103194 l 0,0.871384 c 0.03568,-0.03821 0.07389,-0.07707 0.114654,-0.11658 0.04078,-0.03948 0.08538,-0.07578 0.133137,-0.108272 0.04779,-0.03247 0.100023,-0.05862 0.157341,-0.07899 0.05734,-0.02037 0.1210364,-0.03059 0.1911172,-0.03059 0.1732363,0 0.333114,0.03186 0.478999,0.09619 0.1458616,0.06434 0.2713586,0.152885 0.3764561,0.265603 0.1051013,0.112748 0.187264,0.245257 0.2464997,0.397488 0.059244,0.152224 0.088545,0.317218 0.088545,0.494309 0,0.175824 -0.029301,0.34015 -0.088545,0.493032 -0.059244,0.152847 -0.1414062,0.28536 -0.2464997,0.39811 -0.1051013,0.112747 -0.2306042,0.201916 -0.3764561,0.266878 -0.1458811,0.06498 -0.3057706,0.09748 -0.478999,0.09748 -0.065002,0 -0.126134,-0.01148 -0.1834702,-0.03376 -0.05733,-0.0223 -0.110822,-0.05033 -0.160513,-0.08471 -0.04969,-0.0344 -0.09555,-0.07137 -0.137612,-0.11084 -0.04203,-0.03948 -0.08024,-0.07645 -0.114654,-0.110822 l -0.0535,0.149053 z m 1.1522997,-1.064405 c 0,-0.08153 -0.012647,-0.159267 -0.038854,-0.233155 -0.02611,-0.07389 -0.063679,-0.138857 -0.1121055,-0.194916 -0.048406,-0.05604 -0.106366,-0.100645 -0.1738783,-0.133117 -0.067551,-0.03247 -0.1433323,-0.0484 -0.2273983,-0.0484 -0.08409,0 -0.1624376,0.01595 -0.2357076,0.0484 -0.07324,0.03247 -0.13695,0.0771 -0.190435,0.133117 -0.0535,0.05608 -0.09559,0.121036 -0.126776,0.194916 -0.0312,0.07389 -0.04715,0.151601 -0.04715,0.233155 l 0,0.02676 c 0.0039,0.08024 0.02232,0.155396 0.05479,0.225469 0.03247,0.0701 0.07516,0.130607 0.128681,0.182185 0.05348,0.05158 0.11592,0.09238 0.187265,0.121639 0.07135,0.0293 0.1477872,0.04397 0.2293276,0.04397 0.084069,0 0.159851,-0.01595 0.2273983,-0.04715 0.067513,-0.0312 0.1254717,-0.07324 0.1738782,-0.126755 0.048406,-0.05352 0.085996,-0.117203 0.1121055,-0.190474 0.026129,-0.07324 0.038854,-0.151602 0.038854,-0.235673 z m 1.0739887,-1.790561 c 0,-0.04078 0.010117,-0.07516 0.030546,-0.103194 0.020371,-0.02803 0.055449,-0.04203 0.1051208,-0.04203 l 0.4681756,0 c 0.012647,0 0.02611,0.0031 0.040138,0.01012 0.014009,0.007 0.027375,0.01712 0.039476,0.02997 0.012062,0.01264 0.022316,0.02799 0.030584,0.04586 0.00817,0.01789 0.012062,0.03759 0.012062,0.05925 l 0,2.854961 c 0,0.0484 -0.013424,0.08471 -0.04078,0.109557 -0.027375,0.02484 -0.063038,0.03759 -0.106366,0.03759 l -0.4433146,0 c -0.049691,0 -0.08475,-0.01284 -0.1051208,-0.03759 -0.02039,-0.02482 -0.030546,-0.06115 -0.030546,-0.109557 l 0,-2.854961 z m 1.1828489,0.72426 c 0,-0.04078 0.011479,-0.07582 0.034418,-0.105121 0.02292,-0.02928 0.058582,-0.04394 0.1069885,-0.04394 l 0.4376239,0 c 0.015175,0 0.031869,0.0031 0.049691,0.01012 0.017899,0.007 0.034379,0.01712 0.049691,0.03059 0.015175,0.01343 0.028658,0.0293 0.039476,0.04715 0.010896,0.01789 0.015954,0.03823 0.015954,0.06117 l 0,2.130708 c 0,0.0484 -0.013424,0.08471 -0.040138,0.109557 -0.026752,0.02484 -0.064964,0.03759 -0.1146542,0.03759 l -0.4376258,0 c -0.094264,0 -0.1414062,-0.04903 -0.1414062,-0.147127 l 0,-2.130708 z m 0,-0.966964 c 0,-0.05352 0.011479,-0.09172 0.034418,-0.114031 0.02292,-0.02228 0.058582,-0.03309 0.1069885,-0.03309 l 0.4433458,0 c 0.044574,0 0.080898,0.01089 0.1082922,0.03309 0.027375,0.02232 0.04076,0.06051 0.04076,0.114031 l 0,0.37263 c 0,0.01537 -0.00311,0.03187 -0.010117,0.04969 -0.007,0.0179 -0.017121,0.03506 -0.029924,0.05162 -0.012647,0.01654 -0.028037,0.02992 -0.04648,0.04076 -0.018483,0.01089 -0.039516,0.01654 -0.062434,0.01654 l -0.4433477,0 c -0.094264,0 -0.1414062,-0.05286 -0.1414062,-0.158605 l 0,-0.37263 z m 2.7460373,2.49761 c 0.017899,-0.01264 0.03504,-0.02101 0.050955,-0.0242 0.015954,-0.0031 0.028036,-0.0044 0.036967,-0.0044 0.021654,0 0.041383,0.0044 0.059244,0.01343 0.017899,0.009 0.036305,0.02803 0.05541,0.05732 l 0.2140195,0.322975 c 0.00638,0.01012 0.012743,0.02166 0.018483,0.03438 0.00572,0.01284 0.00827,0.02294 0.00827,0.03059 0,0.0293 -0.00893,0.05286 -0.027377,0.07135 -0.018483,0.01868 -0.03886,0.03504 -0.060514,0.04905 -0.1044748,0.07261 -0.2185022,0.130589 -0.3426996,0.17452 -0.1242265,0.04395 -0.2560856,0.06627 -0.3949373,0.06627 -0.1146541,0 -0.2248472,-0.0146 -0.331217,-0.04395 -0.1064049,-0.0293 -0.2057413,-0.07135 -0.2974939,-0.125472 -0.091716,-0.05417 -0.1757849,-0.119129 -0.2522237,-0.194916 -0.076443,-0.07582 -0.1414256,-0.159888 -0.1949161,-0.252881 -0.053504,-0.09302 -0.094926,-0.193646 -0.1248491,-0.301321 -0.029923,-0.10765 -0.045235,-0.219746 -0.045235,-0.336942 0,-0.117204 0.015371,-0.229951 0.045235,-0.338251 0.029924,-0.108273 0.071345,-0.208918 0.1248491,-0.301288 0.053485,-0.09238 0.1184676,-0.176446 0.1949161,-0.252258 0.076443,-0.07578 0.160512,-0.140123 0.2522237,-0.193646 0.091754,-0.05348 0.1910969,-0.09488 0.2974958,-0.124208 0.106366,-0.0293 0.2165726,-0.04397 0.331219,-0.04397 0.1388575,0 0.2675316,0.01849 0.3853844,0.05541 0.1178256,0.03697 0.2280197,0.09175 0.3312186,0.164364 l -0.00572,-0.0058 c 0.028033,0.01654 0.050308,0.03568 0.06689,0.058 0.016557,0.02228 0.024828,0.05031 0.024828,0.08345 0,0.02293 -0.00764,0.04648 -0.022929,0.07068 l -0.1700961,0.288558 c -0.035653,0.06241 -0.078961,0.09365 -0.1299233,0.09365 -0.011479,0 -0.025488,-0.0031 -0.042063,-0.009 -0.016537,-0.0056 -0.03504,-0.01537 -0.05541,-0.0293 -0.056033,-0.03693 -0.1159188,-0.06751 -0.1802598,-0.09109 -0.064341,-0.02355 -0.133118,-0.03504 -0.2057433,-0.03504 -0.080275,0 -0.1541694,0.01595 -0.2216759,0.0484 -0.067513,0.03247 -0.1248492,0.0771 -0.1726136,0.133119 -0.047784,0.05608 -0.085373,0.121035 -0.112125,0.194918 -0.026733,0.07389 -0.040099,0.1516 -0.040099,0.233154 0,0.08407 0.013424,0.162439 0.040099,0.235671 0.026752,0.07327 0.064341,0.136951 0.112125,0.190474 0.047765,0.0535 0.1051013,0.09555 0.1726136,0.126756 0.067512,0.0312 0.1414062,0.04715 0.2216759,0.04715 0.07261,0 0.1407835,-0.01264 0.2044689,-0.03821 0.063719,-0.02549 0.1242265,-0.05796 0.181544,-0.09748 z m 3.2237667,0.605784 c 0,0.02166 -0.00381,0.04204 -0.01146,0.06179 -0.00764,0.01967 -0.02038,0.03566 -0.038206,0.04715 -0.014028,0.01401 -0.030582,0.02294 -0.049685,0.02676 -0.019126,0.0039 -0.035686,0.0056 -0.049685,0.0056 l -0.3764562,0 c -0.026758,0 -0.04841,-0.0039 -0.064995,-0.0107 -0.016557,-0.007 -0.029931,-0.01654 -0.040136,-0.0293 -0.010175,-0.01284 -0.018464,-0.02866 -0.025482,-0.04715 -0.007,-0.01868 -0.014631,-0.03821 -0.022275,-0.05987 l -0.05541,-0.143333 c -0.03441,0.0344 -0.071993,0.07072 -0.1127514,0.109558 -0.040788,0.03886 -0.085373,0.07516 -0.1344041,0.108291 -0.049066,0.03313 -0.1025778,0.06051 -0.1598835,0.08282 -0.057341,0.02228 -0.1184734,0.03376 -0.1834682,0.03376 -0.1159227,0 -0.2267445,-0.01459 -0.3331154,-0.04395 -0.1063991,-0.02932 -0.2057391,-0.07137 -0.2981101,-0.125492 -0.092371,-0.05417 -0.1764368,-0.119129 -0.2516023,-0.194918 -0.075169,-0.07582 -0.1395073,-0.159889 -0.1936416,-0.252879 -0.054167,-0.09302 -0.096198,-0.193646 -0.1255069,-0.301323 -0.029309,-0.10765 -0.043927,-0.219744 -0.043927,-0.336943 0,-0.177089 0.032479,-0.342077 0.097443,-0.494309 0.06496,-0.152223 0.1535059,-0.284736 0.2656346,-0.397488 0.1120957,-0.112727 0.2439498,-0.201262 0.3955586,-0.265601 0.1516089,-0.06435 0.3140129,-0.09619 0.4872764,-0.09619 0.078994,0 0.151609,0.01148 0.2178473,0.03504 0.06627,0.02358 0.1267831,0.05479 0.1809174,0.09302 0.054135,0.03821 0.1031986,0.08151 0.1471282,0.129927 0.043962,0.0484 0.08282,0.09748 0.1172322,0.147165 l 0.074513,-0.231225 c 0.012743,-0.03187 0.023582,-0.05796 0.031859,-0.07772 0.00827,-0.01975 0.017199,-0.03442 0.026756,-0.04397 0.00956,-0.0096 0.021006,-0.01595 0.035032,-0.01907 0.014009,-0.0031 0.033756,-0.0044 0.059238,-0.0044 l 0.2847372,0 c 0.014009,0 0.03055,0.0019 0.049685,0.0056 0.019105,0.0039 0.035653,0.01264 0.049685,0.02676 0.017822,0.01401 0.03055,0.02993 0.038206,0.04775 0.00764,0.01789 0.01146,0.03823 0.01146,0.06117 l 0,2.153639 z m -1.8822799,-1.070131 c 0,0.08407 0.013386,0.162439 0.039513,0.235673 0.026102,0.07327 0.063065,0.136951 0.1114732,0.190474 0.04841,0.0535 0.1069925,0.09555 0.1751585,0.126756 0.068168,0.03121 0.1433323,0.04715 0.226122,0.04715 0.085373,0 0.1649868,-0.01595 0.2382248,-0.04715 0.07327,-0.0312 0.1369547,-0.07323 0.1910891,-0.126756 0.054168,-0.05352 0.096198,-0.117203 0.126783,-0.190474 0.030582,-0.07323 0.045858,-0.151601 0.045858,-0.235673 0,-0.08154 -0.015273,-0.159267 -0.045858,-0.233155 -0.030582,-0.07389 -0.072616,-0.138857 -0.126783,-0.194916 -0.054135,-0.05604 -0.1178217,-0.100645 -0.1910891,-0.133137 -0.073238,-0.03247 -0.1528521,-0.04841 -0.2382248,-0.04841 -0.082789,0 -0.1579556,0.01595 -0.226122,0.04841 -0.068168,0.03247 -0.1267519,0.0771 -0.1751585,0.133137 -0.04841,0.05608 -0.085373,0.121017 -0.1114732,0.194916 -0.026135,0.07389 -0.039513,0.151601 -0.039513,0.233155 z m 2.70400306,0.456724 c 0.0343768,0.03438 0.07196,0.06304 0.11209573,0.08662 0.0401358,0.02355 0.0783396,0.04269 0.11530015,0.05733 0.0369275,0.01459 0.0694112,0.02549 0.0974415,0.03183 0.0280322,0.0064 0.0471341,0.0096 0.0573407,0.0096 0.0242052,0 0.0554107,-0.0013 0.0929938,-0.0031 0.0375831,-0.0019 0.0732693,-0.0075 0.10764811,-0.01712 0.0344098,-0.0096 0.064341,-0.02482 0.0891979,-0.04648 0.0248258,-0.02166 0.0369313,-0.05224 0.0369313,-0.09176 0,-0.03564 -0.007004,-0.0643 -0.0210281,-0.08534 -0.0140083,-0.02103 -0.0343788,-0.03886 -0.0611365,-0.0535 -0.0267559,-0.01459 -0.0592377,-0.02738 -0.0980971,-0.03886 -0.0388595,-0.01148 -0.0828203,-0.02482 -0.13123072,-0.04014 -0.15285023,-0.04076 -0.278979,-0.08979 -0.37835168,-0.147146 -0.0993715,-0.05733 -0.17771306,-0.121678 -0.23567248,-0.192361 -0.0579944,-0.07072 -0.0987509,-0.146504 -0.12168172,-0.228053 -0.0229309,-0.08152 -0.0344099,-0.167517 -0.0344099,-0.257981 0,-0.105724 0.0210281,-0.201918 0.0630628,-0.288532 0.0420658,-0.08664 0.10192414,-0.161155 0.17964114,-0.222951 0.077717,-0.06179 0.17071082,-0.109576 0.27901206,-0.143332 0.10826876,-0.03376 0.22867513,-0.05031 0.3611487,-0.05031 0.0802697,0 0.15543593,0.0064 0.22549971,0.01972 0.070063,0.01343 0.13695467,0.03442 0.20064195,0.06306 0.0637184,0.0287 0.12612935,0.06562 0.1866414,0.110861 0.060514,0.04519 0.12040345,0.09938 0.18026377,0.161777 0.021653,0.02549 0.033135,0.04907 0.033754,0.07135 6.647e-4,0.02232 -0.014009,0.04652 -0.043307,0.07199 -0.049685,0.04076 -0.096821,0.0809 -0.14205796,0.120374 -0.045206,0.03951 -0.0923382,0.08345 -0.14074859,0.131853 -0.0152924,0.01264 -0.0305829,0.02041 -0.0458578,0.02358 -0.0152924,0.0031 -0.0299623,0.0031 -0.0439628,-6.56e-4 -0.0140277,-0.0039 -0.0274096,-0.01012 -0.0401358,-0.01907 -0.0127436,-0.009 -0.0242052,-0.01973 -0.0344099,-0.03247 -0.0445834,-0.04969 -0.0955465,-0.08345 -0.15285023,-0.100645 -0.0573407,-0.01712 -0.11085444,-0.02549 -0.16053923,-0.02549 -0.062411,0 -0.11209574,0.01089 -0.14905825,0.03247 -0.0369314,0.0217 -0.0541363,0.05479 -0.0515837,0.09938 0.002549,0.03313 0.015273,0.05862 0.0375832,0.0771 0.0223063,0.01849 0.0496848,0.03376 0.0821666,0.04519 0.0324799,0.01148 0.0668917,0.02037 0.10319852,0.02741 0.0363088,0.007 0.0694112,0.01537 0.0999941,0.0242 0.11468144,0.03693 0.21977711,0.07707 0.31532105,0.120374 0.0955465,0.04331 0.17833373,0.09619 0.24842917,0.159267 0.070063,0.06306 0.12482184,0.138857 0.16367944,0.226744 0.03886,0.08792 0.057961,0.194916 0.057961,0.321046 0,0.126133 -0.024826,0.238878 -0.075133,0.33825 -0.050341,0.09938 -0.11978274,0.182808 -0.20767348,0.250326 -0.0878905,0.06751 -0.19174472,0.119129 -0.3121155,0.154792 -0.12040345,0.03568 -0.25032751,0.0535 -0.38921357,0.0535 -0.0789602,0 -0.15923181,-0.007 -0.24077696,-0.02095 -0.0815129,-0.01401 -0.16050616,-0.03693 -0.23694976,-0.06814 -0.0764426,-0.03122 -0.14905825,-0.07135 -0.2178465,-0.120395 -0.0687886,-0.04903 -0.12995634,-0.108272 -0.183437,-0.178372 -0.0140277,-0.01789 -0.0242052,-0.03693 -0.0312385,-0.05668 -0.007004,-0.01973 -0.0101755,-0.03886 -0.009553,-0.05796 6.648e-4,-0.01907 0.004475,-0.03693 0.0114791,-0.05286 0.007004,-0.01595 0.0178217,-0.0293 0.0331044,-0.04078 l 0.2465258,-0.2465 c 0.0305498,-0.02549 0.0579614,-0.03442 0.0815129,-0.02676 0.0235827,0.0075 0.0535118,0.0293 0.0904763,0.065 z"
         id="path27"
         inkscape:connector-curvature="0"
         style="clip-rule:evenodd;fill:#f8c300;fill-rule:nonzero;image-rendering:optimizeQuality;shape-rendering:geometricPrecision;text-rendering:geometricPrecision" /></g></g></svg>