<svg style="image-rendering:optimizeQuality;text-rendering:geometricPrecision;shape-rendering:geometricPrecision" xmlns="http://www.w3.org/2000/svg" fill-rule="evenodd" height="24" width="164.2" version="1.1" clip-rule="evenodd" viewBox="0 0 185.21715 27.075775">
  <path d="m11.05 19.21h5.672c-0.33 1.846-0.7403 3.264-1.231 4.263-0.5527 1.132-1.4 2.015-2.532 2.648-1.132 0.6329-2.435 0.9543-3.915 0.9543-2.809 0-5.012-1.061-6.626-3.175-1.618-2.11-2.42-5.01-2.42-8.68 0-4.29 0.9275-7.612 2.791-9.984 1.587-2.006 3.621-3.005 6.091-3.005 2.595 0 4.619 1.008 6.064 3.032 1.445 2.015 2.167 4.816 2.167 8.409 0 0.7313-0.0535 1.65-0.1514 2.765h-10.56c0.0358 1.676 0.1605 2.898 0.3926 3.683 0.3654 1.311 1.088 1.962 2.167 1.962 1.32 0 2.024-0.9543 2.086-2.872zm0.2946-6.876v-0.6773c0-1.338-0.214-2.399-0.651-3.175-0.43-0.771-1.023-1.155-1.773-1.155-0.749 0-1.346 0.3835-1.783 1.159-0.437 0.7757-0.651 1.837-0.651 3.175 0 0.0535 0.00905 0.2761 0.02675 0.6773h4.834zm14.6 0.744h6.706v4.717h-6.71zm16.22-13.07h4.424c1.716 0 3.073 0.1399 4.071 0.4259 2.701 0.7852 4.71 2.595 6.02 5.442 0.9514 2.035 1.423 4.563 1.423 7.577 0 4.278-0.9247 7.537-2.767 9.786-1.843 2.249-4.524 3.373-8.043 3.373h-5.12v-26.6zm5.26 21.75c0.7514-0.0066 1.37-0.1132 1.849-0.2992 0.479-0.1864 0.9576-0.5255 1.423-1.005 0.6453-0.6588 1.164-1.623 1.537-2.894 0.3794-1.264 0.5654-2.648 0.5654-4.138 0-1.497-0.186-2.887-0.5518-4.184-0.37-1.294-0.88-2.305-1.51-3.03-0.48-0.532-0.96-0.911-1.43-1.131-0.48-0.226-1.1-0.359-1.88-0.412v17.09zm21.45-0.6584h4.231c-0.2461 1.377-0.5518 2.435-0.9181 3.18-0.4123 0.8448-1.044 1.503-1.889 1.976-0.8448 0.4724-1.816 0.7119-2.92 0.7119-2.096 0-3.739-0.7918-4.943-2.368-1.204-1.577-1.803-3.739-1.803-6.48 0-3.193 0.6918-5.674 2.082-7.444 1.184-1.497 2.701-2.242 4.544-2.242 1.936 0 3.446 0.7518 4.523 2.262 1.078 1.503 1.617 3.592 1.617 6.273 0 0.5453-0.03992 1.23-0.1132 2.062h-7.876c0.02634 1.251 0.1198 2.162 0.2926 2.748 0.2728 0.9778 0.8115 1.463 1.616 1.463 0.9847 0 1.51-0.7119 1.557-2.142zm0.2193-5.129v-0.5057c0-0.9979-0.1597-1.789-0.4856-2.368-0.3259-0.5786-0.765-0.8646-1.324-0.8646-0.5588 0-1.005 0.286-1.33 0.8646-0.3259 0.579-0.4856 1.37-0.4856 2.368 0 0.03992 0.0066 0.2062 0.02016 0.5057h3.605zm6.932-7.191h5.009v2.867c1.211-2.142 2.674-3.213 4.404-3.213 1.623 0 2.668 1.018 3.12 3.06 0.5321-0.9778 1.164-1.73 1.889-2.262 0.7317-0.5321 1.503-0.7983 2.322-0.7983 0.5852 0 1.131 0.1531 1.643 0.4592 0.5189 0.3058 0.8913 0.7049 1.124 1.197 0.3523 0.7387 0.5255 2.002 0.5255 3.779v12.74h-5.01v-10.1c0-1.204-0.08642-2.029-0.2527-2.462-0.1663-0.4325-0.4856-0.6518-0.958-0.6518-0.5057 0-0.8716 0.2662-1.111 0.7983-0.1132 0.2593-0.1728 1.031-0.1728 2.315v10.1h-5.01v-10.42c0-1.064-0.07983-1.783-0.2329-2.155-0.1597-0.3658-0.4588-0.5522-0.8979-0.5522-0.6518 0-1.071 0.3325-1.264 0.9913-0.07942 0.286-0.1193 0.858-0.1193 1.716v10.42h-5.02v-17.83zm29.48-0.347c2.335 0 4.091 0.9313 5.255 2.788 0.9909 1.57 1.483 3.772 1.483 6.606 0 2.648-0.4922 4.77-1.483 6.353-1.164 1.856-2.914 2.788-5.242 2.788-1.463 0-2.747-0.4123-3.839-1.244-1.104-0.8448-1.916-2.195-2.435-4.038-0.3527-1.284-0.5255-2.614-0.5255-3.991 0-2.535 0.5053-4.663 1.523-6.373 1.104-1.876 2.854-2.834 5.262-2.887zm0.0132 4.484c-0.5588 0-0.9847 0.4189-1.29 1.257-0.3062 0.8383-0.4592 2.009-0.4592 3.519 0 1.517 0.1531 2.694 0.4592 3.532 0.3058 0.8383 0.7317 1.257 1.29 1.257 0.5189 0 0.9313-0.4255 1.231-1.277 0.2992-0.8514 0.4457-2.002 0.4457-3.459 0-1.503-0.1465-2.681-0.4391-3.532-0.2926-0.8514-0.7053-1.284-1.237-1.297zm18.23-3.978v4.364c-0.4259-0.3794-0.9045-0.5658-1.423-0.5658-0.9049 0-1.617 0.4259-2.129 1.284-0.5123 0.8584-0.772 2.029-0.772 3.513 0 1.543 0.2395 2.728 0.7185 3.546 0.4856 0.8185 1.178 1.231 2.089 1.231 0.479 0 0.9847-0.1798 1.517-0.5321v4.563c-1.011 0.4193-1.969 0.6255-2.867 0.6255-1.663 0-3.027-0.5856-4.091-1.756-1.61-1.75-2.415-4.191-2.415-7.304 0-2.86 0.6518-5.209 1.949-7.058 1.131-1.61 2.767-2.415 4.909-2.415 0.8185 0 1.657 0.1663 2.515 0.5057zm2.382-0.1597h5.009v2.168c0.6382-0.9382 1.251-1.61 1.842-2.023 0.5922-0.4058 1.344-0.6782 2.249-0.8049v4.83c-0.286-0.0535-0.5321-0.07325-0.7383-0.07325-0.8979 0-1.63 0.2062-2.202 0.6185-0.479 0.3395-0.7918 0.7518-0.9378 1.231-0.1399 0.479-0.2128 1.337-0.2128 2.574v9.313h-5.009v-17.83zm18.81 0h5.009v17.83h-5.009v-2.029c-0.8716 1.59-1.963 2.382-3.273 2.382-0.6387 0-1.244-0.1798-1.823-0.5391-0.5786-0.3523-1.058-0.8448-1.437-1.47-1.077-1.73-1.616-4.171-1.616-7.325 0-3.146 0.4922-5.548 1.484-7.211 0.3592-0.6119 0.8448-1.098 1.444-1.45 0.5922-0.3593 1.217-0.5391 1.87-0.5391 1.43 0 2.548 0.8514 3.353 2.548v-2.202zm-1.324 4.118c-0.5588 0-0.9979 0.4193-1.31 1.258-0.3128 0.8382-0.4658 2.016-0.4658 3.539 0 1.517 0.1531 2.701 0.4658 3.546 0.3123 0.8448 0.7514 1.264 1.31 1.264 0.4522 0 0.8317-0.3259 1.131-0.9716 0.1531-0.3123 0.286-0.858 0.3992-1.63 0.1132-0.7716 0.1663-1.49 0.1663-2.156 0-1.517-0.1461-2.701-0.4457-3.552-0.2992-0.8518-0.7185-1.284-1.251-1.298zm18.4-3.962v4.364c-0.4259-0.3794-0.9045-0.5658-1.423-0.5658-0.9049 0-1.617 0.4259-2.129 1.284-0.5123 0.8584-0.772 2.029-0.772 3.513 0 1.543 0.2395 2.728 0.7185 3.546 0.4856 0.8185 1.178 1.231 2.089 1.231 0.479 0 0.9847-0.1798 1.517-0.5321v4.563c-1.011 0.4193-1.969 0.6255-2.867 0.6255-1.663 0-3.027-0.5856-4.091-1.756-1.61-1.75-2.415-4.191-2.415-7.304 0-2.86 0.6518-5.209 1.949-7.058 1.131-1.61 2.767-2.415 4.909-2.415 0.8185 0 1.657 0.1663 2.515 0.5057zm2.382-0.1597h5.009v17.83h-5.009zm2.648-8.435c0.858 0 1.596 0.3127 2.202 0.9378 0.6119 0.6189 0.9177 1.364 0.9177 2.222 0 0.9448-0.3522 1.73-1.051 2.355-0.5988 0.5457-1.297 0.8181-2.109 0.8181-0.8782 0-1.63-0.3123-2.248-0.9378-0.6189-0.6185-0.9247-1.377-0.9247-2.255 0-0.8716 0.3123-1.616 0.9378-2.222 0.6185-0.6123 1.384-0.9181 2.275-0.9181zm13.2 8.435h5.009v17.83h-5.009v-2.029c-0.8716 1.59-1.962 2.382-3.273 2.382-0.6387 0-1.244-0.1798-1.823-0.5391-0.5786-0.3523-1.058-0.8448-1.437-1.47-1.077-1.73-1.616-4.171-1.616-7.325 0-3.146 0.4922-5.548 1.484-7.211 0.3592-0.6119 0.8448-1.098 1.444-1.45 0.5922-0.3593 1.217-0.5391 1.87-0.5391 1.43 0 2.548 0.8514 3.353 2.548v-2.202zm-1.324 4.118c-0.5588 0-0.9979 0.4193-1.31 1.258-0.3128 0.8382-0.4658 2.016-0.4658 3.539 0 1.517 0.1531 2.701 0.4658 3.546 0.3123 0.8448 0.7514 1.264 1.31 1.264 0.4522 0 0.8317-0.3259 1.131-0.9716 0.1531-0.3123 0.286-0.858 0.3992-1.63 0.1132-0.7716 0.1663-1.49 0.1663-2.156 0-1.517-0.1461-2.701-0.4457-3.552-0.2992-0.8518-0.7185-1.284-1.251-1.298z" fill-rule="nonzero" class="fil0" stroke-width=".9651" fill="#fff"/>
</svg>
