<svg class="social__icon" xmlns="http://www.w3.org/2000/svg" xml:space="preserve" viewBox="0 0 512 512" version="1.1" y="0px" x="0px"><path fill="#fff" d="m134.9 272.7h56.12v231.1c0 4.562 3.696 8.258 8.258 8.258h95.16c4.562 0 8.258-3.696 8.258-8.258v-230h64.52c4.195 0 7.725-3.148 8.204-7.315l9.799-85.06c0.269-2.34-0.472-4.684-2.038-6.44-1.567-1.757-3.81-2.763-6.164-2.763h-74.32v-53.3c0-16.07 8.654-24.22 25.73-24.22h48.59c4.562 0 8.258-3.698 8.258-8.258v-78.1c0-4.562-3.696-8.258-8.258-8.258h-66.96c-0.5-0.024-1.5-0.062-3.1-0.062-11.62 0-52.01 2.281-83.91 31.63-35.35 32.52-30.43 71.46-29.26 78.22v62.35h-58.92c-4.562 0-8.258 3.696-8.258 8.258v83.98c0.1 4.5 3.8 8.2 8.3 8.2z"/>
</svg>